<svg width="78" height="95" viewBox="0 0 78 95" fill="none" xmlns="http://www.w3.org/2000/svg">
  <path d="M2 14.0266V57.4574C3.0173 69.2737 11.4843 92.9063 37.2142 92.9063C69.3764 92.9063 75.4802 64.5002 75.715 57.4574C75.9028 51.8231 75.7932 26.1559 75.715 14.0266" stroke="white" stroke-width="3.28665" />
  <path d="M33.456 33.2964C30.6388 31.1053 23.8308 27.0518 19.1355 28.3665C13.2665 30.0098 11.3884 34.4702 11.3884 37.5221M33.456 33.2964C36.9774 30.2446 45.8983 22.967 54.3497 21.5584C62.8011 20.1498 65.853 34.705 66.0877 37.5221C66.2425 39.3792 66.6013 45.4191 66.2226 52.0773M33.456 33.2964C23.1265 41.7479 14.4403 39.635 11.3884 37.5221M11.3884 37.5221C13.1883 41.8261 19.0416 49.8706 28.0565 47.6169C39.325 44.7997 45.194 37.5221 50.8283 36.3483C56.4625 35.1745 61.897 37.5221 66.2226 52.0773M11.3884 37.5221C11.3884 39.4446 11.3884 48.286 11.3884 55.1292M66.2226 52.0773C66.0268 55.5194 65.634 59.1267 64.9139 62.4068C64.7779 63.0263 64.6001 63.6536 64.3819 64.2849M11.3884 55.1292C11.3884 56.9767 11.3884 58.6785 11.3884 60.0592C13.0318 67.2585 19.7459 81.845 33.456 82.5963C49.4905 83.4749 61.2092 73.4613 64.3819 64.2849M11.3884 55.1292C13.2665 58.1811 18.8154 63.3459 26.1784 63.3459C33.456 63.3459 39.0912 61.3978 45.6645 53.8854C52.2378 46.3731 62.676 53.0164 64.3819 64.2849" stroke="white" stroke-width="1.87809" />
  <circle cx="44.0404" cy="11.0333" r="5.16474" stroke="white" stroke-width="1.40857" />
  <circle cx="34.6532" cy="2.58237" r="2.11285" stroke="white" stroke-width="0.939044" />
</svg>