<svg width="29" height="36" viewBox="0 0 29 36" fill="none" xmlns="http://www.w3.org/2000/svg">
  <path d="M1 5.46643V21.5754C1.37733 25.9582 4.51785 34.7238 14.0613 34.7238C25.9906 34.7238 28.2546 24.1876 28.3417 21.5754C28.4113 19.4856 28.3707 9.96533 28.3417 5.46643" stroke="white" stroke-width="1.21906" />
  <path d="M12.6675 12.6135C11.6226 11.8008 9.09742 10.2973 7.35591 10.7849C5.17903 11.3945 4.48242 13.0489 4.48242 14.1809M12.6675 12.6135C13.9736 11.4816 17.2825 8.78221 20.4172 8.25975C23.5519 7.7373 24.6839 13.136 24.771 14.1809C24.8284 14.8697 24.9615 17.1099 24.821 19.5796M12.6675 12.6135C8.83619 15.7482 5.6144 14.9646 4.48242 14.1809M4.48242 14.1809C5.15 15.7773 7.32108 18.761 10.6648 17.9251C14.8444 16.8802 17.0213 14.1809 19.1111 13.7455C21.2009 13.3101 23.2166 14.1809 24.821 19.5796M4.48242 14.1809C4.48242 14.894 4.48242 18.1733 4.48242 20.7115M24.821 19.5796C24.7484 20.8562 24.6027 22.1942 24.3356 23.4109C24.2852 23.6407 24.2192 23.8733 24.1383 24.1075M4.48242 20.7115C4.48242 21.3968 4.48242 22.028 4.48242 22.5401C5.09195 25.2104 7.58231 30.6207 12.6675 30.8994C18.6149 31.2252 22.9615 27.5111 24.1383 24.1075M4.48242 20.7115C5.17903 21.8435 7.23717 23.7592 9.96817 23.7592C12.6675 23.7592 14.7577 23.0366 17.1958 20.2502C19.6339 17.4638 23.5055 19.9279 24.1383 24.1075" stroke="white" stroke-width="0.696603" />
  <circle cx="16.5929" cy="4.35621" r="1.91566" stroke="white" stroke-width="0.522452" />
  <circle cx="13.1111" cy="1.2215" r="0.783679" stroke="white" stroke-width="0.348302" />
</svg>