<svg width="32" height="32" viewBox="0 0 32 32" fill="none" xmlns="http://www.w3.org/2000/svg">
<path d="M4 5.39868V19.0194C4.31904 22.7253 6.97448 30.1369 15.0438 30.1369C25.1306 30.1369 27.0448 21.2282 27.1185 19.0194C27.1774 17.2524 27.143 9.20267 27.1185 5.39868" stroke="white" stroke-width="1.03076"/>
<path d="M13.8656 11.4423C12.9821 10.7551 10.847 9.48383 9.37447 9.89613C7.53383 10.4115 6.94482 11.8104 6.94482 12.7675M13.8656 11.4423C14.97 10.4851 17.7678 8.20274 20.4183 7.76098C23.0688 7.31923 24.026 11.884 24.0996 12.7675C24.1481 13.3499 24.2607 15.2442 24.1419 17.3323M13.8656 11.4423C10.6261 14.0928 7.90196 13.4302 6.94482 12.7675M6.94482 12.7675C7.50929 14.1173 9.34502 16.6402 12.1722 15.9334C15.7063 15.0499 17.5469 12.7675 19.3139 12.3994C21.0809 12.0313 22.7853 12.7675 24.1419 17.3323M6.94482 12.7675C6.94482 13.3705 6.94482 16.1433 6.94482 18.2895M24.1419 17.3323C24.0805 18.4118 23.9573 19.5431 23.7315 20.5718C23.6888 20.7661 23.6331 20.9629 23.5646 21.1608M6.94482 18.2895C6.94482 18.8688 6.94482 19.4026 6.94482 19.8356C7.4602 22.0934 9.5659 26.668 13.8656 26.9036C18.8944 27.1792 22.5696 24.0387 23.5646 21.1608M6.94482 18.2895C7.53383 19.2466 9.27407 20.8663 11.5832 20.8663C13.8656 20.8663 15.633 20.2554 17.6945 17.8994C19.756 15.5433 23.0296 17.6268 23.5646 21.1608" stroke="white" stroke-width="0.589005"/>
<circle cx="17.1849" cy="4.46051" r="1.61976" stroke="white" stroke-width="0.441754"/>
<circle cx="14.2401" cy="1.80988" r="0.662631" stroke="white" stroke-width="0.294503"/>
</svg>
