
    <svg width="14" height="7" viewBox="0 0 14 7" fill="none" xmlns="http://www.w3.org/2000/svg">
        <path d="M3.8171 6.46867C4.26211 6.46867 4.62285 6.10793 4.62285 5.66292C4.62285 5.21791 4.26211 4.85717 3.8171 4.85717H2.92441C3.24054 4.25961 3.68817 3.73005 4.23111 3.32094C5.03344 2.71635 5.9903 2.3968 6.99823 2.3968C7.52944 2.3968 8.04976 2.48629 8.54472 2.66279C9.02311 2.83338 9.46804 3.08137 9.86707 3.39984C10.6658 4.03733 11.2365 4.9318 11.4739 5.91854C11.5627 6.28785 11.8928 6.53599 12.2566 6.53596C12.319 6.53596 12.3825 6.52864 12.4458 6.51341C12.8784 6.40931 13.1448 5.97417 13.0407 5.54152C12.8786 4.86819 12.6063 4.23052 12.2311 3.64621C11.8628 3.07263 11.4057 2.56598 10.8723 2.14031C10.3336 1.71039 9.73263 1.37549 9.08595 1.14489C8.4168 0.906279 7.71438 0.785278 6.99821 0.785278C6.31236 0.785278 5.63813 0.896457 4.99418 1.1157C4.37155 1.3277 3.78851 1.63663 3.2613 2.0339C2.74029 2.4265 2.28596 2.89606 1.91094 3.42956C1.80378 3.58199 1.70408 3.73877 1.61149 3.89927V2.61051C1.61149 2.16551 1.25074 1.80476 0.805737 1.80476C0.360731 1.80476 0 2.16552 0 2.61053V5.66294C0 6.10794 0.360747 6.46869 0.805752 6.46869L3.8171 6.46867Z" fill="white" />
    </svg>

