<svg width="68" height="60" viewBox="0 0 68 60" fill="none" xmlns="http://www.w3.org/2000/svg">
<path opacity="0.2" d="M60.1052 56.8176V23.9164C60.1052 22.1686 58.6884 20.7518 56.9406 20.7518C55.1929 20.7518 53.7761 22.1686 53.7761 23.9164V56.8176C53.7761 58.5653 55.1929 59.9821 56.9406 59.9821C58.6884 59.9821 60.1052 58.5653 60.1052 56.8176Z" fill="#FE4F74"/>
<path opacity="0.2" d="M65.9801 0C64.8646 0 63.9602 0.90433 63.9602 2.01988V4.21162C63.9602 6.53763 62.0746 8.42324 59.7486 8.42324H2.01988C0.90433 8.42324 0 9.32757 0 10.4431C0 11.5587 0.904331 12.463 2.01988 12.463H7.52761C8.70089 12.463 9.65202 13.4141 9.65202 14.5874V14.6919C9.65202 15.8075 10.5563 16.7118 11.6719 16.7118C12.7874 16.7118 13.6918 15.8075 13.6918 14.6919V14.5874C13.6918 13.4141 14.6429 12.463 15.8162 12.463H37.9605C39.1338 12.463 40.0849 13.4141 40.0849 14.5874V14.6919C40.0849 15.8074 40.9893 16.7118 42.1049 16.7118C43.2205 16.7118 44.1248 15.8074 44.1248 14.6919V14.5874C44.1248 13.4141 45.076 12.463 46.2492 12.463H59.7486C62.0746 12.463 63.9602 14.3486 63.9602 16.6746V18.8664C63.9602 19.9819 64.8646 20.8862 65.9801 20.8862C67.0957 20.8862 68 19.9819 68 18.8664V2.01988C68 0.90433 67.0957 0 65.9801 0Z" fill="#FE4F74"/>
<path opacity="0.2" fill-rule="evenodd" clip-rule="evenodd" d="M5 20.7516C2.23858 20.7516 0 22.9902 0 25.7516V54.9813C0 57.7428 2.23858 59.9813 5 59.9813H44.7368C47.4982 59.9813 49.7368 57.7428 49.7368 54.9813V25.7516C49.7368 22.9902 47.4982 20.7516 44.7368 20.7516H5ZM37.3339 29.5256C37.3591 33.4346 37.3947 41.7379 37.3336 43.5709C37.293 44.7897 36.7584 47.756 34.8883 50.4333C32.9968 53.1411 29.7509 55.5306 24.371 55.5306C20.0257 55.5306 17.1152 53.5235 15.2664 51.0229C13.433 48.5432 12.6421 45.582 12.4713 43.5987L12.4694 43.576V43.5532V29.529H13.5307V43.5301C13.6925 45.3624 14.4337 48.1115 16.1197 50.392C17.7972 52.6608 20.4079 54.4693 24.371 54.4693C29.3766 54.4693 32.3089 52.2726 34.0182 49.8255C35.7489 47.3479 36.2377 44.5909 36.2729 43.5355C36.3331 41.7298 36.2979 33.4567 36.2726 29.5324L37.3339 29.5256ZM33.997 37.091C33.9565 36.6046 33.6831 35.165 33.0675 33.8948C32.7594 33.2589 32.3545 32.6422 31.8295 32.2123C31.2959 31.7754 30.6366 31.5319 29.8547 31.6622C28.4311 31.8995 26.988 32.6257 25.7711 33.4018C24.6723 34.1027 23.7388 34.8567 23.1449 35.3629C22.6638 35.0135 21.9586 34.5782 21.1917 34.2521C20.3229 33.8827 19.3129 33.6266 18.4518 33.8677C16.4097 34.4395 15.7287 36.0121 15.7287 37.1161V37.1198V37.1235V37.1273V37.1311V37.135V37.1389V37.1429V37.1469V37.1509V37.1551V37.1592V37.1634V37.1677V37.172V37.1764V37.1808V37.1853V37.1898V37.1943V37.199V37.2036V37.2083V37.2131V37.2179V37.2227V37.2276V37.2326V37.2376V37.2426V37.2477V37.2528V37.258V37.2633V37.2685V37.2739V37.2792V37.2846V37.2901V37.2956V37.3012V37.3068V37.3124V37.3181V37.3239V37.3297V37.3355V37.3414V37.3473V37.3532V37.3593V37.3653V37.3714V37.3776V37.3837V37.39V37.3963V37.4026V37.4089V37.4154V37.4218V37.4283V37.4348V37.4414V37.448V37.4547V37.4614V37.4682V37.475V37.4818V37.4887V37.4956V37.5026V37.5096V37.5166V37.5237V37.5309V37.538V37.5452V37.5525V37.5598V37.5671V37.5745V37.5819V37.5894V37.5969V37.6044V37.612V37.6196V37.6273V37.635V37.6427V37.6505V37.6583V37.6662V37.6741V37.682V37.69V37.698V37.706V37.7141V37.7222V37.7304V37.7386V37.7469V37.7551V37.7634V37.7718V37.7802V37.7886V37.7971V37.8056V37.8141V37.8227V37.8313V37.84V37.8486V37.8574V37.8661V37.8749V37.8838V37.8926V37.9015V37.9104V37.9194V37.9284V37.9375V37.9465V37.9557V37.9648V37.974V37.9832V37.9924V38.0017V38.011V38.0204V38.0298V38.0392V38.0487V38.0581V38.0677V38.0772V38.0868V38.0964V38.1061V38.1157V38.1255V38.1352V38.145V38.1548V38.1646V38.1745V38.1844V38.1944V38.2043V38.2143V38.2244V38.2344V38.2445V38.2547V38.2648V38.275V38.2852V38.2955V38.3057V38.316V38.3264V38.3368V38.3471V38.3576V38.368V38.3785V38.389V38.3996V38.4101V38.4207V38.4314V38.442V38.4527V38.4634V38.4742V38.4849V38.4957V38.5066V38.5174V38.5283V38.5392V38.5502V38.5611V38.5721V38.5831V38.5942V38.6052V38.6163V38.6275V38.6386V38.6498V38.661V38.6722V38.6835V38.6947V38.706V38.7174V38.7287V38.7401V38.7515V38.7629V38.7744V38.7859V38.7974V38.8089V38.8204V38.832V38.8436V38.8552V38.8669V38.8785V38.8902V38.9019V38.9137V38.9254V38.9372V38.949V38.9609V38.9727V38.9846V38.9965V39.0084V39.0203V39.0323V39.0443V39.0563V39.0683V39.0804V39.0924V39.1045V39.1166V39.1288V39.1409V39.1531V39.1653V39.1775V39.1897V39.202V39.2143V39.2266V39.2389V39.2512V39.2635V39.2759V39.2883V39.3007V39.3131V39.3256V39.3381V39.3505V39.363V39.3756V39.3881V39.4007V39.4132V39.4258V39.4384V39.451V39.4637V39.4764V39.489V39.5017V39.5144V39.5272V39.5399V39.5527V39.5654V39.5782V39.591V39.6039V39.6167V39.6296V39.6424V39.6553V39.6682V39.6811V39.6941V39.707V39.72V39.733V39.746V39.759V39.772V39.785V39.7981V39.8111V39.8242V39.8373V39.8504V39.8635V39.8766V39.8898V39.9029V39.9161V39.9293V39.9425V39.9557V39.9689V39.9821V39.9954V40.0086V40.0219V40.0351V40.0484V40.0617V40.075V40.0884V40.1017V40.115V40.1284V40.1418V40.1551V40.1685V40.1819V40.1953V40.2087V40.2222V40.2356V40.249V40.2625V40.276V40.2894V40.3029V40.3164V40.3299V40.3434V40.3569V40.3705V40.384V40.3975V40.4111V40.4246V40.4382V40.4518V40.4654V40.4789V40.4925V40.5061V40.5197V40.5334V40.547V40.5606V40.5742V40.5879V40.6015V40.6152V40.6288V40.6425V40.6562V40.6699V40.6835V40.6972V40.7109V40.7246V40.7383V40.752V40.7657V40.7795V40.7932V40.8069V40.8206V40.8344V40.8481V40.8619V40.8756V40.8894V40.9031V40.9169V40.9306V40.9444V40.9581V40.9719V40.9857V40.9995V41.0132V41.027V41.0408V41.0546V41.0683V41.0821V41.0959V41.1097V41.1235V41.1373V41.1511V41.1649V41.1787V41.1925V41.2062V41.22V41.2338V41.2476V41.2614V41.2752V41.289V41.3028V41.3166V41.3304V41.3442V41.358V41.3718V41.3856V41.3993V41.4131V41.4269V41.4407V41.4545V41.4683V41.482V41.4958V41.5096V41.5234V41.5371V41.5509V41.5647V41.5784V41.5922V41.6059V41.6197V41.6334V41.6472V41.6609V41.6746V41.6884V41.7021V41.7158V41.7295V41.7433V41.757V41.7707V41.7844V41.7981V41.8118V41.8255V41.8391V41.8528V41.8665V41.8801V41.8938V41.9074V41.9211V41.9347V41.9484V41.962V41.9756V41.9892V42.0028V42.0164V42.03V42.0436V42.0572V42.0707V42.0843V42.0979V42.1114V42.1249V42.1385V42.152V42.1655V42.179V42.1925V42.206V42.2195V42.2329V42.2464V42.2598V42.2733V42.2867V42.3001V42.3135V42.3269V42.3403V42.3537V42.3671V42.3804V42.3938V42.4071V42.4205V42.4338V42.4471V42.4604V42.4737V42.4869V42.5002V42.5134V42.5267V42.5399V42.5531V42.5663V42.5795V42.5927V42.6058V42.619V42.6321V42.6452V42.6583V42.6714V42.6845V42.6976V42.7106V42.7237V42.7367V42.7497V42.7627V42.7757V42.7887V42.8016V42.8051V42.8086V42.8121V42.8156V42.8191V42.8226V42.8261V42.8296V42.833V42.8365V42.84V42.8435V42.847V42.8505V42.8539V42.8574V42.8609V42.8644V42.8678V42.8713V42.8748V42.8783V42.8817V42.8852V42.8887V42.8921V42.8956V42.8991V42.9025V42.906V42.9095V42.9129V42.9164V42.9198V42.9233V42.9268V42.9302V42.9337V42.9371V42.9406V42.944V42.9475V42.9509V42.9544V42.9578V42.9612V42.9647V42.9681V42.9716V42.975V42.9784V42.9819V42.9853V42.9887V42.9922V42.9956V42.999V43.0025V43.0059V43.0093V43.0128V43.0162V43.0196V43.023V43.0264V43.0299V43.0333V43.0367V43.0401V43.0435V43.0469V43.0504V43.0538V43.0572V43.0606V43.064V43.0674V43.0708V43.0742V43.0776V43.081V43.0844V43.0878V43.0912V43.0946V43.098V43.1014V43.1048V43.1082V43.1116V43.1149V43.1183V43.1217V43.1251V43.1285V43.1319V43.1352V43.1386V43.142V43.1454V43.1487V43.1521V43.1555V43.1589V43.1622V43.1656V43.169V43.1723V43.1757V43.1791V43.1824V43.1858V43.1891V43.1925V43.1958V43.1992V43.2026V43.2059V43.2093V43.2126V43.216V43.2193V43.2226V43.226V43.2293V43.2327V43.236V43.2393V43.2427V43.246V43.2494V43.2527V43.256V43.2593V43.2627V43.266V43.2693V43.2726V43.276V43.2793V43.2826V43.2859V43.2892V43.2926V43.2959V43.2992V43.3025V43.3058V43.3091V43.3124V43.3157V43.319V43.3223V43.3256V43.3289V43.3322V43.3355V43.3388V43.3421V43.3454V43.3487V43.352V43.3553V43.3585V43.3618V43.3651V43.3684V43.3717V43.375V43.3782V43.3815V43.3848V43.3881V43.3913V43.3946V43.3979V43.4011V43.4044V43.4076V43.4109V43.4142V43.4174V43.4207V43.4239V43.4272V43.4305V43.4337V43.437V43.4402V43.4434V43.4467V43.4499V43.4532V43.4564V43.4596V43.4629V43.4661V43.4694V43.4726V43.4758V43.479V43.4823V43.4855V43.4887V43.4919V43.4952V43.4984V43.5016V43.5048V43.508V43.5112V43.5145V43.5177V43.5209V43.5241V43.5273V43.5305V43.5337V43.5369V43.5401V43.5433V43.5465V43.5497V43.5529V43.5561V43.5592V43.5624V43.5656V43.5688V43.572V43.5752V43.5783V43.5815V43.5847V43.5879V43.591V43.5942V43.5974V43.6005V43.6037V43.6069V43.61V43.6132V43.6163V43.6195V43.6227V43.6258V43.629V43.6321V43.6353V43.6384V43.6416V43.6447V43.6478V43.651V43.6541V43.6572V43.6604V43.6635V43.6666V43.6698V43.6729V43.676V43.6792V43.6823V43.6854V43.6885V43.6916V43.6947V43.6979V43.701V43.7041V43.7072V43.7103V43.7134V43.7165V43.7196V43.7227V43.7258V43.7289V43.732V43.7351V43.7382V43.7413V43.7443V43.7474V43.7505V43.7536V43.7567V43.7598V43.7628V43.7659V43.769V43.772V43.7751V43.7782V43.7812V43.7843V43.7874V43.7904V43.7935V43.7965V43.7996V43.8027V43.8057V43.8088V43.8118V43.8148V43.8179V43.8209V43.824V43.827V43.83V43.8331V43.8361V43.8391V43.8422V43.8452V43.8482V43.8512V43.8543V43.8573V43.8603V43.8633V43.8663V43.8693V43.8723V43.8753V43.8783V43.8814V43.8844V43.8874V43.8904V43.8933V43.8963V43.8993V43.9023V43.9053V43.9083V43.9113V43.9143V43.9172V43.9202V43.9232V43.9262V43.9291V43.9321V43.9351V43.938V43.941V43.944V43.9469V43.9499V43.9529V43.9558V43.9588V43.9617V43.9647V43.9676V43.9706V43.9735V43.9764V43.9794V43.9823V43.9852V43.9882V43.9911V43.994V43.997V43.9999V44.0028V44.0057V44.0087V44.0116V44.0145V44.0174V44.0203V44.0232V44.0261V44.029V44.0319V44.0348V44.0377V44.0406V44.0435V44.0464V44.0493V44.0522V44.0551V44.058V44.0608V44.0637V44.0666V44.0695V44.0723V44.0752V44.0781V44.081V44.0838V44.0867V44.0895V44.0924V44.0953V44.0981V44.101V44.1038V44.1067V44.1095V44.1124V44.1152V44.118V44.1209V44.1237V44.1266V44.1294V44.1322V44.135V44.1379V44.1407V44.1435V44.1463V44.1491V44.152V44.1548V44.1576V44.1604V44.1632V44.166V44.1688V44.1716V44.1744V44.1772V44.18V44.1828V44.1856V44.1884V44.1911V44.1939V44.1967V44.1995V44.2023V44.205V44.2078V44.2106V44.2133V44.2161V44.2189V44.2216V44.2244V44.2271V44.2299V44.2326V44.2354V44.2381V44.2409V44.2436V44.2464V44.2491V44.2518V44.2546V44.2573V44.26V44.2628V44.2655V44.2682V44.2709V44.2736V44.2764V44.2791V44.2818V44.2845V44.2872V44.2899V44.2926V44.2953V44.298V44.3007V44.3034V44.3061V44.3088V44.3115V44.3141V44.3168V44.3195V44.3222V44.3248V44.3275V44.3302V44.3329V44.3355V44.3382V44.3408V44.3435V44.3462V44.3488V44.3515V44.3541V44.3568V44.3594V44.362V44.3647V44.3673V44.37V44.3726V44.3752V44.3778V44.3805V44.3831V44.3857V44.3883V44.3909V44.3936V44.4277L15.7363 44.461C16.0096 45.6582 16.7005 47.4594 17.894 48.9989C19.0899 50.5414 20.8121 51.8461 23.1412 51.9738C28.4514 52.2647 32.361 48.9508 33.4306 45.8572C33.5047 45.6428 33.5654 45.4289 33.612 45.2166C33.8491 44.1364 33.9774 42.9543 34.0411 41.8334C34.1645 39.6652 34.0478 37.7 33.997 37.091ZM20.9544 34.8102C21.6067 35.0875 22.2151 35.4518 22.6576 35.7604C19.7101 38.0074 17.291 37.505 16.3412 36.9533C16.4044 36.0931 16.9735 34.9114 18.6153 34.4517C19.2704 34.2683 20.1176 34.4544 20.9544 34.8102ZM16.3352 38.316V38.3062C16.6725 38.8127 17.1155 39.3383 17.6592 39.7762C18.6236 40.553 19.9192 41.0621 21.4878 40.67C23.356 40.2029 24.7729 39.3664 25.9379 38.612C26.1139 38.498 26.2827 38.3869 26.4458 38.2796C26.8275 38.0283 27.1779 37.7977 27.5161 37.5992C27.9964 37.3172 28.4224 37.1187 28.8293 37.034C29.6701 36.8588 30.46 36.9478 31.2126 37.601C31.9822 38.2688 32.7437 39.5522 33.4326 41.8518C33.3813 42.7267 33.2901 43.6288 33.1393 44.4806C32.6782 43.1609 31.844 42.1157 30.8644 41.5431C30.2281 41.1711 29.5233 40.9955 28.8223 41.0891C28.1183 41.183 27.4452 41.545 26.8718 42.2003C25.8302 43.3907 24.8779 44.1232 23.9138 44.561C22.9509 44.9983 21.9546 45.1516 20.8078 45.1516C18.623 45.1516 16.946 43.6472 16.3352 42.7135V42.7106V42.6976V42.6845V42.6714V42.6583V42.6452V42.6321V42.619V42.6058V42.5927V42.5795V42.5663V42.5531V42.5399V42.5267V42.5134V42.5002V42.4869V42.4737V42.4604V42.4471V42.4338V42.4205V42.4071V42.3938V42.3804V42.3671V42.3537V42.3403V42.3269V42.3135V42.3001V42.2867V42.2733V42.2598V42.2464V42.2329V42.2195V42.206V42.1925V42.179V42.1655V42.152V42.1385V42.1249V42.1114V42.0979V42.0843V42.0707V42.0572V42.0436V42.03V42.0164V42.0028V41.9892V41.9756V41.962V41.9484V41.9347V41.9211V41.9074V41.8938V41.8801V41.8665V41.8528V41.8391V41.8255V41.8118V41.7981V41.7844V41.7707V41.757V41.7433V41.7295V41.7158V41.7021V41.6884V41.6746V41.6609V41.6472V41.6334V41.6197V41.6059V41.5922V41.5784V41.5647V41.5509V41.5371V41.5234V41.5096V41.4958V41.482V41.4683V41.4545V41.4407V41.4269V41.4131V41.3993V41.3856V41.3718V41.358V41.3442V41.3304V41.3166V41.3028V41.289V41.2752V41.2614V41.2476V41.2338V41.22V41.2062V41.1925V41.1787V41.1649V41.1511V41.1373V41.1235V41.1097V41.0959V41.0821V41.0683V41.0546V41.0408V41.027V41.0132V40.9995V40.9857V40.9719V40.9581V40.9444V40.9306V40.9169V40.9031V40.8894V40.8756V40.8619V40.8481V40.8344V40.8206V40.8069V40.7932V40.7795V40.7657V40.752V40.7383V40.7246V40.7109V40.6972V40.6835V40.6699V40.6562V40.6425V40.6288V40.6152V40.6015V40.5879V40.5742V40.5606V40.547V40.5334V40.5197V40.5061V40.4925V40.4789V40.4654V40.4518V40.4382V40.4246V40.4111V40.3975V40.384V40.3705V40.3569V40.3434V40.3299V40.3164V40.3029V40.2894V40.276V40.2625V40.249V40.2356V40.2222V40.2087V40.1953V40.1819V40.1685V40.1551V40.1418V40.1284V40.115V40.1017V40.0884V40.075V40.0617V40.0484V40.0351V40.0219V40.0086V39.9954V39.9821V39.9689V39.9557V39.9425V39.9293V39.9161V39.9029V39.8898V39.8766V39.8635V39.8504V39.8373V39.8242V39.8111V39.7981V39.785V39.772V39.759V39.746V39.733V39.72V39.707V39.6941V39.6811V39.6682V39.6553V39.6424V39.6296V39.6167V39.6039V39.591V39.5782V39.5654V39.5527V39.5399V39.5272V39.5144V39.5017V39.489V39.4764V39.4637V39.451V39.4384V39.4258V39.4132V39.4007V39.3881V39.3756V39.363V39.3505V39.3381V39.3256V39.3131V39.3007V39.2883V39.2759V39.2635V39.2512V39.2389V39.2266V39.2143V39.202V39.1897V39.1775V39.1653V39.1531V39.1409V39.1288V39.1166V39.1045V39.0924V39.0804V39.0683V39.0563V39.0443V39.0323V39.0203V39.0084V38.9965V38.9846V38.9727V38.9609V38.949V38.9372V38.9254V38.9137V38.9019V38.8902V38.8785V38.8669V38.8552V38.8436V38.832V38.8204V38.8089V38.7974V38.7859V38.7744V38.7629V38.7515V38.7401V38.7287V38.7174V38.706V38.6947V38.6835V38.6722V38.661V38.6498V38.6386V38.6275V38.6163V38.6052V38.5942V38.5831V38.5721V38.5611V38.5502V38.5392V38.5283V38.5174V38.5066V38.4957V38.4849V38.4742V38.4634V38.4527V38.442V38.4314V38.4207V38.4101V38.3996V38.389V38.3785V38.368V38.3576V38.3471V38.3368V38.3264V38.316ZM33.3927 37.1413C33.4286 37.5726 33.4997 38.7218 33.4881 40.141C32.9195 38.693 32.2925 37.7351 31.6101 37.143C30.6813 36.3369 29.6841 36.2364 28.7056 36.4403C28.2027 36.545 27.7096 36.7824 27.2092 37.0761C26.8568 37.283 26.4859 37.5271 26.0978 37.7825L26.0978 37.7825L26.0978 37.7825L26.0977 37.7826C25.9375 37.888 25.7743 37.9954 25.6083 38.103C24.4611 38.8458 23.1111 39.639 21.3407 40.0816C19.9983 40.4172 18.8933 39.9915 18.0396 39.3039C17.4815 38.8543 17.037 38.2967 16.7183 37.7805C18.1493 38.2579 20.5962 38.2392 23.3498 35.9863L23.3498 35.9864L23.3563 35.9808C23.9199 35.4924 24.9117 34.6693 26.0972 33.9131C27.2872 33.1542 28.649 32.478 29.9544 32.2604C30.537 32.1633 31.0242 32.3368 31.4453 32.6815C31.875 33.0334 32.233 33.5633 32.5218 34.1593C33.1002 35.3528 33.3574 36.718 33.3927 37.1413ZM30.5584 42.0666C31.6286 42.6922 32.5536 44.0215 32.8326 45.7294C31.8174 48.5436 28.1777 51.6424 23.1743 51.3682C21.0763 51.2533 19.5009 50.0817 18.3733 48.6273C17.2544 47.184 16.5978 45.4869 16.3352 44.3591V44.3568V44.3541V44.3515V44.3488V44.3462V44.3435V44.3408V44.3382V44.3355V44.3329V44.3302V44.3275V44.3248V44.3222V44.3195V44.3168V44.3141V44.3115V44.3088V44.3061V44.3034V44.3007V44.298V44.2953V44.2926V44.2899V44.2872V44.2845V44.2818V44.2791V44.2764V44.2736V44.2709V44.2682V44.2655V44.2628V44.26V44.2573V44.2546V44.2518V44.2491V44.2464V44.2436V44.2409V44.2381V44.2354V44.2326V44.2299V44.2271V44.2244V44.2216V44.2189V44.2161V44.2133V44.2106V44.2078V44.205V44.2023V44.1995V44.1967V44.1939V44.1911V44.1884V44.1856V44.1828V44.18V44.1772V44.1744V44.1716V44.1688V44.166V44.1632V44.1604V44.1576V44.1548V44.152V44.1491V44.1463V44.1435V44.1407V44.1379V44.135V44.1322V44.1294V44.1266V44.1237V44.1209V44.118V44.1152V44.1124V44.1095V44.1067V44.1038V44.101V44.0981V44.0953V44.0924V44.0895V44.0867V44.0838V44.081V44.0781V44.0752V44.0723V44.0695V44.0666V44.0637V44.0608V44.058V44.0551V44.0522V44.0493V44.0464V44.0435V44.0406V44.0377V44.0348V44.0319V44.029V44.0261V44.0232V44.0203V44.0174V44.0145V44.0116V44.0087V44.0057V44.0028V43.9999V43.997V43.994V43.9911V43.9882V43.9852V43.9823V43.9794V43.9764V43.9735V43.9706V43.9676V43.9647V43.9617V43.9588V43.9558V43.9529V43.9499V43.9469V43.944V43.941V43.938V43.9351V43.9321V43.9291V43.9262V43.9232V43.9202V43.9172V43.9143V43.9113V43.9083V43.9053V43.9023V43.8993V43.8963V43.8933V43.8904V43.8874V43.8844V43.8814V43.8783V43.8753V43.8723V43.8693V43.8663V43.8633V43.8603V43.8573V43.8543V43.8512V43.8482V43.8452V43.8422V43.8391V43.8361V43.8331V43.83V43.827V43.824V43.8209V43.8179V43.8148V43.8118V43.8088V43.8057V43.8027V43.7996V43.7965V43.7935V43.7904V43.7874V43.7843V43.7812V43.7782V43.7751V43.772V43.769V43.7659V43.7628V43.7598V43.7567V43.7536V43.7505V43.7474V43.7443V43.7413V43.7382V43.7351V43.732V43.7289V43.7258V43.7227V43.7196V43.7165V43.7134V43.7103V43.7072V43.7041V43.701V43.6979V43.6947V43.6916V43.6885V43.6882C17.2315 44.6631 18.8206 45.7581 20.8078 45.7581C22.011 45.7581 23.0995 45.5969 24.1646 45.1132C25.2284 44.6301 26.2473 43.835 27.3282 42.5997C27.8161 42.0421 28.3603 41.7625 28.9025 41.6902C29.4477 41.6174 30.0179 41.7507 30.5584 42.0666ZM26.5755 30.0032C27.371 30.0032 28.0159 29.3584 28.0159 28.5629C28.0159 27.7675 27.371 27.1226 26.5755 27.1226C25.7801 27.1226 25.1352 27.7675 25.1352 28.5629C25.1352 29.3584 25.7801 30.0032 26.5755 30.0032ZM26.5755 30.4581C27.6222 30.4581 28.4707 29.6096 28.4707 28.5629C28.4707 27.5163 27.6222 26.6678 26.5755 26.6678C25.5289 26.6678 24.6804 27.5163 24.6804 28.5629C24.6804 29.6096 25.5289 30.4581 26.5755 30.4581ZM24.0744 25.8339C24.0744 26.1269 23.8368 26.3645 23.5438 26.3645C23.2507 26.3645 23.0131 26.1269 23.0131 25.8339C23.0131 25.5408 23.2507 25.3032 23.5438 25.3032C23.8368 25.3032 24.0744 25.5408 24.0744 25.8339ZM24.3776 25.8339C24.3776 26.2944 24.0043 26.6677 23.5438 26.6677C23.0832 26.6677 22.7099 26.2944 22.7099 25.8339C22.7099 25.3733 23.0832 25 23.5438 25C24.0043 25 24.3776 25.3733 24.3776 25.8339Z" fill="#FE4F74"/>
</svg>
