<svg width="59" height="59" viewBox="0 0 59 59" fill="none" xmlns="http://www.w3.org/2000/svg">
<path opacity="0.1" d="M59 8.97824V12.826H0V8.97824C0 6.14486 2.29697 3.84778 5.13046 3.84778H53.8697C56.7031 3.84778 59 6.14486 59 8.97824Z" fill="white"/>
<path d="M45.8532 7.63153V7.75979C45.8532 8.29102 45.4224 8.72176 44.8912 8.72176C44.3599 8.72176 43.9292 8.29102 43.9292 7.75979V7.63153C43.9292 7.1003 44.3599 6.66956 44.8912 6.66956C45.4224 6.66956 45.8532 7.1003 45.8532 7.63153ZM48.7391 6.66956C48.2079 6.66956 47.7771 7.1003 47.7771 7.63153V7.75979C47.7771 8.29102 48.2079 8.72176 48.7391 8.72176C49.2703 8.72176 49.7011 8.29102 49.7011 7.75979V7.63153C49.7009 7.1003 49.2703 6.66956 48.7391 6.66956ZM52.5869 6.66956C52.0556 6.66956 51.6249 7.1003 51.6249 7.63153V7.75979C51.6249 8.29102 52.0556 8.72176 52.5869 8.72176C53.1181 8.72176 53.5489 8.29102 53.5489 7.75979V7.63153C53.5489 7.1003 53.1181 6.66956 52.5869 6.66956Z" fill="#777777"/>
<path opacity="0.1" d="M59 11.9503V47.8633C59 50.6967 56.703 52.9938 53.8695 52.9938H5.13047C2.29697 52.9938 0 50.6967 0 47.8633V11.9503H7.6957H8.54483C7.6957 11.9506 9.36607 11.9503 10.7828 11.9503L20.3448 11.9502C21.7616 11.9502 23.0869 11.9503 21.9724 11.9502L23.0869 11.9503H59Z" fill="white"/>
<path opacity="0.1" d="M50.0218 19.2392H42.0055C39.2652 19.2392 40.1355 19.2389 37.837 19.2389C35.5386 19.2389 36.6204 19.2393 33.6686 19.2392H8.97832C7.56151 19.2392 6.41309 20.3876 6.41309 21.8044V43.6087C6.41309 45.0256 7.56151 46.174 8.97832 46.174H50.0218C51.4386 46.174 52.587 45.0256 52.587 43.6087V21.8043C52.587 20.3876 51.4386 19.2392 50.0218 19.2392Z" fill="white"/>
<path opacity="0.1" d="M52.587 32.7065V43.6088C52.587 45.0256 51.4386 46.174 50.0218 46.174H8.97832C7.56151 46.174 6.41309 45.0256 6.41309 43.6088V32.7065H52.587Z" fill="white"/>
</svg>
