<svg width="63" height="63" viewBox="0 0 63 63" fill="none" xmlns="http://www.w3.org/2000/svg">
<g opacity="0.2">
<path d="M28.3501 12.6C24.2228 12.6082 20.2637 14.2361 17.3244 17.1336C14.3852 20.031 12.7007 23.9665 12.6334 28.0932C12.5661 32.22 14.1214 36.2082 16.9646 39.2C19.8079 42.1917 23.7119 43.9478 27.8367 44.0906L29.922 50.3465C25.4384 50.6664 20.9642 49.6084 17.0988 47.3143C13.2333 45.0202 10.1613 41.5996 8.29438 37.5107C6.42744 33.4218 5.85474 28.86 6.65301 24.4365C7.45128 20.013 9.58239 15.9391 12.7608 12.7607C15.9392 9.58227 20.0131 7.45116 24.4366 6.65289C28.8601 5.85462 33.4219 6.42732 37.5108 8.29426C41.5997 10.1612 45.0204 13.2332 47.3145 17.0986C49.6086 20.9641 50.6665 25.4383 50.3466 29.9219L44.0907 27.8366C43.9574 23.7507 42.2407 19.8767 39.3033 17.0334C36.366 14.1901 32.4382 12.6003 28.3501 12.6Z" fill="#FE4F74"/>
<path d="M28.3502 25.2C27.5147 25.2 26.7135 25.5318 26.1228 26.1226C25.532 26.7133 25.2002 27.5145 25.2002 28.35C25.2002 29.1854 25.532 29.9866 26.1228 30.5774C26.7135 31.1681 27.5147 31.5 28.3502 31.5V37.8C26.4811 37.8 24.6541 37.2457 23.1 36.2074C21.546 35.169 20.3347 33.6931 19.6195 31.9663C18.9042 30.2396 18.7171 28.3395 19.0817 26.5064C19.4464 24.6732 20.3464 22.9894 21.668 21.6678C22.9896 20.3462 24.6734 19.4462 26.5065 19.0815C28.3397 18.7169 30.2397 18.9041 31.9665 19.6193C33.6933 20.3346 35.1692 21.5458 36.2075 23.0998C37.2459 24.6539 37.8001 26.4809 37.8001 28.35H31.5001C31.5001 27.5145 31.1683 26.7133 30.5775 26.1226C29.9868 25.5318 29.1856 25.2 28.3502 25.2Z" fill="#FE4F74"/>
<path d="M35.6453 31.6607C35.0903 31.4756 34.4947 31.4487 33.9253 31.5831C33.3558 31.7175 32.8351 32.0078 32.4214 32.4215C32.0077 32.8352 31.7174 33.356 31.583 33.9254C31.4486 34.4948 31.4755 35.0904 31.6606 35.6454L37.9606 54.5454C38.1692 55.1734 38.5702 55.7197 39.1068 56.1068C39.6434 56.494 40.2882 56.7023 40.9499 56.7023C41.6116 56.7023 42.2565 56.494 42.793 56.1068C43.3296 55.7197 43.7307 55.1734 43.9393 54.5454L46.5916 46.5917L54.5453 43.9394C55.1732 43.7308 55.7195 43.3297 56.1067 42.7932C56.4938 42.2566 56.7022 41.6117 56.7022 40.95C56.7022 40.2884 56.4938 39.6435 56.1067 39.1069C55.7195 38.5703 55.1732 38.1693 54.5453 37.9607L35.6453 31.6607Z" fill="#FE4F74"/>
</g>
</svg>
