<svg width="59" height="51" viewBox="0 0 59 51" fill="none" xmlns="http://www.w3.org/2000/svg">
<path opacity="0.1" d="M59 6.06739V9.98205H0V6.06739C0 3.18478 2.29697 0.847778 5.13046 0.847778H53.8697C56.7031 0.847778 59 3.18478 59 6.06739Z" fill="#372126"/>
<path d="M45.8532 4.69726V4.82774C45.8532 5.3682 45.4224 5.80644 44.8912 5.80644C44.3599 5.80644 43.9292 5.3682 43.9292 4.82774V4.69726C43.9292 4.1568 44.3599 3.71857 44.8912 3.71857C45.4224 3.71857 45.8532 4.1568 45.8532 4.69726ZM48.7391 3.71857C48.2079 3.71857 47.7771 4.1568 47.7771 4.69726V4.82774C47.7771 5.3682 48.2079 5.80644 48.7391 5.80644C49.2703 5.80644 49.7011 5.3682 49.7011 4.82774V4.69726C49.7009 4.1568 49.2703 3.71857 48.7391 3.71857ZM52.5869 3.71857C52.0556 3.71857 51.6249 4.1568 51.6249 4.69726V4.82774C51.6249 5.3682 52.0556 5.80644 52.5869 5.80644C53.1181 5.80644 53.5489 5.3682 53.5489 4.82774V4.69726C53.5489 4.1568 53.1181 3.71857 52.5869 3.71857Z" fill="#FE4F74"/>
<path opacity="0.1" d="M59 9.09112V45.6282C59 48.5108 56.703 50.8478 53.8695 50.8478H5.13047C2.29697 50.8478 0 48.5108 0 45.6282V9.09112H7.6957H8.54483C7.6957 9.09137 9.36607 9.09112 10.7828 9.09112L20.3448 9.091C21.7616 9.091 23.0869 9.09112 21.9724 9.09105L23.0869 9.09112H59Z" fill="#372126"/>
<path opacity="0.56" d="M50.0218 16.5067H42.0055C39.2652 16.5067 40.1355 16.5063 37.837 16.5063C35.5386 16.5063 36.6204 16.5068 33.6686 16.5067H8.97832C7.56151 16.5067 6.41309 17.6751 6.41309 19.1165V41.2997C6.41309 42.7411 7.56151 43.9095 8.97832 43.9095H50.0218C51.4386 43.9095 52.587 42.7411 52.587 41.2997V19.1164C52.587 17.6751 51.4386 16.5067 50.0218 16.5067Z" fill="#FE4F74"/>
<path opacity="0.1" d="M52.587 30.208V41.2997C52.587 42.7411 51.4386 43.9095 50.0218 43.9095H8.97832C7.56151 43.9095 6.41309 42.7411 6.41309 41.2997V30.208H52.587Z" fill="#FE4F74"/>
</svg>
