<svg width="68" height="68" viewBox="0 0 68 68" fill="none" xmlns="http://www.w3.org/2000/svg">
<path opacity="0.2" d="M58.1399 50.83C59.5407 51.374 61.1999 50.558 61.1999 49.3V5.1C61.1999 3.842 59.5407 3.026 58.1399 3.57C55.8177 4.964 53.6825 6.392 51.6153 7.7758C44.3393 12.6378 37.9507 16.9116 27.5297 17H13.5999C7.9559 17 3.3999 21.556 3.3999 27.2C3.3999 32.844 7.9559 37.4 13.5999 37.4H27.1999C37.8181 37.4 44.2679 41.7112 51.6187 46.6276C53.6825 48.008 55.8211 49.436 58.1399 50.83ZM30.5999 61.2H27.9139C26.4519 61.2 25.1599 60.282 24.7179 58.922L17.2379 44.2H30.5999C31.5016 44.2 32.3664 44.5582 33.0041 45.1958C33.6417 45.8335 33.9999 46.6983 33.9999 47.6V57.8C33.9999 59.67 32.4699 61.2 30.5999 61.2Z" fill="white"/>
</svg>
