<svg width="122" height="122" viewBox="0 0 122 122" fill="none" xmlns="http://www.w3.org/2000/svg">
<g opacity="0.2">
<path d="M60.5121 31.476C69.2961 31.476 76.3721 38.552 76.3721 47.336V51.362C71.1261 50.752 65.7581 50.508 60.5121 50.508C55.2661 50.508 49.8981 50.752 44.6521 51.362V47.336C44.6521 38.674 51.7281 31.476 60.5121 31.476Z" fill="#FE4F74"/>
<path d="M89.304 77.836L90.89 63.928C94.428 64.538 97.112 67.466 97.112 70.76C97.112 74.664 93.574 77.836 89.304 77.836Z" fill="#FE4F74"/>
<path d="M31.598 77.836C27.328 77.836 23.79 74.664 23.79 70.76C23.79 67.344 26.474 64.538 30.012 63.928L31.598 77.836Z" fill="#FE4F74"/>
<path d="M83.814 54.778C75.762 53.924 68.076 53.558 60.6341 53.558C53.192 53.558 45.384 53.924 37.454 54.778C34.77 55.022 32.818 57.462 33.184 60.024L35.624 83.692C35.868 85.888 37.576 87.718 39.894 87.962C46.726 88.816 53.68 89.182 60.756 89.182C67.832 89.182 74.7861 88.816 81.618 87.962C83.8141 87.718 85.6441 85.888 85.8881 83.692L88.3281 60.024C88.3281 57.34 86.498 55.022 83.814 54.778ZM47.092 76.25C45.14 76.25 43.676 74.298 43.676 71.736C43.676 69.174 45.262 67.222 47.092 67.222C48.922 67.222 50.5081 69.174 50.5081 71.736C50.5081 74.298 49.044 76.25 47.092 76.25ZM67.466 81.252C67.466 81.496 67.344 81.74 67.222 81.862C67.1 81.984 66.856 82.106 66.612 82.106H54.534C54.2901 82.106 54.046 81.984 53.924 81.862C53.802 81.74 53.68 81.496 53.68 81.252V79.056C53.68 78.568 54.046 78.202 54.534 78.202H54.7781C55.2661 78.202 55.632 78.568 55.632 79.056V80.154H65.514V79.056C65.514 78.568 65.8801 78.202 66.368 78.202H66.612C67.1 78.202 67.466 78.568 67.466 79.056V81.252ZM73.932 76.25C71.98 76.25 70.516 74.298 70.516 71.736C70.516 69.174 72.102 67.222 73.932 67.222C75.762 67.222 77.348 69.174 77.348 71.736C77.348 74.298 75.884 76.25 73.932 76.25Z" fill="#FE4F74"/>
</g>
</svg>
