<svg width="60" height="63" viewBox="0 0 60 63" fill="none" xmlns="http://www.w3.org/2000/svg">
  <path fill-rule="evenodd" clip-rule="evenodd" d="M59.0105 46.5C59.0105 37.3873 52.0911 30 43.5555 30C35.02 30 28.1005 37.3873 28.1005 46.5C28.1005 55.6127 35.02 63 43.5555 63C52.0911 63 59.0105 55.6127 59.0105 46.5ZM25.2905 46.5C25.2905 42.6332 26.3447 39.0292 28.1631 35.9979L6.33299 35.9997C2.84118 35.9997 0.010498 39.0218 0.010498 42.7497V45.4717C0.010498 48.75 1.3499 51.8652 3.67832 54.0023C8.06997 58.0334 14.361 60.0032 22.4805 60.0032C25.1274 60.0032 27.5804 59.7939 29.8346 59.3715C27.0059 55.9373 25.2905 51.4325 25.2905 46.5ZM24.5697 1.94615C24.4302 0.847927 23.5484 0.00146484 22.4815 0.00146484L22.1955 0.0220048L21.9212 0.0818374C21.0292 0.343787 20.374 1.21593 20.374 2.25146L20.3717 4.49846L10.538 4.49998C7.04622 4.49998 4.21554 7.52206 4.21554 11.25V24.7638C4.21554 28.4917 7.04622 31.5138 10.538 31.5138L31.8679 31.5143C34.2377 29.4053 37.1156 27.925 40.2777 27.3167C40.5793 26.5292 40.7455 25.6672 40.7455 24.7638V11.25C40.7455 7.52206 37.9148 4.49998 34.423 4.49998L24.5867 4.49846L24.589 2.25146L24.5697 1.94615ZM12.6455 17.2478C12.6455 15.178 14.2172 13.5 16.156 13.5C18.0948 13.5 19.6665 15.178 19.6665 17.2478C19.6665 19.3177 18.0948 20.9957 16.156 20.9957C14.2172 20.9957 12.6455 19.3177 12.6455 17.2478ZM25.2701 17.2478C25.2701 15.178 26.8418 13.5 28.7806 13.5C30.7194 13.5 32.2911 15.178 32.2911 17.2478C32.2911 19.3177 30.7194 20.9957 28.7806 20.9957C26.8418 20.9957 25.2701 19.3177 25.2701 17.2478ZM51.1985 40.4386C51.2878 40.5094 51.3597 40.6017 51.4081 40.7077C52.0133 42.0641 52.1596 43.597 51.8229 45.0527C51.4863 46.5084 50.6867 47.7997 49.5565 48.713C48.7259 49.3727 47.7493 49.7998 46.7185 49.9543C45.6878 50.1087 44.6365 49.9854 43.6635 49.596L39.1653 54.3588C38.9746 54.5619 38.7474 54.7232 38.4968 54.8333C38.2463 54.9433 37.9775 55 37.706 55C37.4344 55 37.1656 54.9433 36.9151 54.8333C36.6646 54.7232 36.4374 54.5619 36.2467 54.3588L35.6016 53.6774C35.2162 53.2683 35 52.716 35 52.1404C35 51.5649 35.2162 51.0125 35.6016 50.6035L40.1068 45.8333C39.6835 44.6603 39.5895 43.3842 39.8362 42.1568C40.0828 40.9293 40.6596 39.802 41.4981 38.9088C42.3947 37.9562 43.5521 37.3217 44.8087 37.0937C46.0653 36.8658 47.3582 37.0559 48.5069 37.6375C48.6067 37.6892 48.6934 37.765 48.7601 37.8586C48.8267 37.9521 48.8714 38.0609 48.8905 38.1761C48.9096 38.2907 48.9021 38.4085 48.8687 38.5195C48.8354 38.6304 48.777 38.7313 48.6987 38.8136L46.0277 41.6457C45.902 41.7801 45.8316 41.961 45.8316 42.1494C45.8316 42.3379 45.902 42.5188 46.0277 42.6532L46.6728 43.3383C46.799 43.4656 46.9674 43.5364 47.1425 43.5357C47.3175 43.5351 47.4854 43.463 47.6108 43.3346L50.2818 40.5062C50.3609 40.423 50.4578 40.3609 50.5644 40.3252C50.671 40.2895 50.7842 40.2811 50.8946 40.3008C51.0049 40.3206 51.1091 40.3678 51.1985 40.4386Z" fill="#FE4F74" />
</svg>