<svg width="50" height="52" viewBox="0 0 50 52" fill="none" xmlns="http://www.w3.org/2000/svg">
  <path opacity="0.2" d="M19.9679 30.0733L35.1213 14.7489C35.2687 14.5999 35.507 14.5999 35.6544 14.7489L43.6912 22.8765C43.8386 23.0256 43.8386 23.2665 43.6912 23.4156L28.5379 38.74C27.8249 39.4611 26.8565 39.8667 25.8469 39.8667H20.9449C19.7897 39.8667 18.8539 38.9203 18.8539 37.752V32.7947C18.8539 31.7737 19.2549 30.7944 19.9679 30.0733ZM48.996 13.1491L45.2732 9.38427C43.9346 8.03053 41.7647 8.03053 40.4261 9.38427L36.6005 13.2531L45.1704 21.9197L48.996 18.0509C50.3347 16.6972 50.3347 14.5028 48.996 13.1491ZM37.7077 32.9333C37.7077 33.8919 36.9416 34.6667 35.9937 34.6667H34.9893L31.5614 38.1333H35.9937C36.9416 38.1333 37.7077 38.9081 37.7077 39.8667C37.7077 40.8252 36.9416 41.6 35.9937 41.6H26.0046H20.5678H10.2839C9.33609 41.6 8.56993 40.8252 8.56993 39.8667C8.56993 38.9081 9.33609 38.1333 10.2839 38.1333H17.1399V34.6667H10.2839C9.33609 34.6667 8.56993 33.8919 8.56993 32.9333C8.56993 31.9748 9.33609 31.2 10.2839 31.2H17.3627C17.5992 30.3645 18.0209 29.5915 18.6465 28.9588L19.8583 27.7333H10.2839C9.33609 27.7333 8.56993 26.9585 8.56993 26C8.56993 25.0415 9.33609 24.2667 10.2839 24.2667H23.2862L26.7142 20.8H10.2839C9.33609 20.8 8.56993 20.0252 8.56993 19.0667C8.56993 18.1081 9.33609 17.3333 10.2839 17.3333H30.1422L33.5701 13.8667H10.2839C9.33609 13.8667 8.56993 13.0919 8.56993 12.1333C8.56993 11.1748 9.33609 10.4 10.2839 10.4H36.9844L39.2143 8.1588C40.1844 7.176 41.4768 6.6352 42.8497 6.6352C43.4444 6.6352 44.0186 6.7548 44.5637 6.95067V3.46667C44.5637 1.55133 43.0296 0 41.1357 0H3.42797C1.53402 0 0 1.55133 0 3.46667V48.5333C0 50.4487 1.53402 52 3.42797 52H41.1357C43.0296 52 44.5637 50.4487 44.5637 48.5333V24.9843L37.4917 32.136C37.6186 32.3787 37.7077 32.6404 37.7077 32.9333Z" fill="white" />
</svg>