<svg width="54" height="54" viewBox="0 0 54 54" fill="none" xmlns="http://www.w3.org/2000/svg">
<g opacity="0.2" clip-path="url(#clip0_1246_775)">
<path fill-rule="evenodd" clip-rule="evenodd" d="M22.673 50.625C22.673 48.7611 24.1841 47.25 26.048 47.25H50.452C52.3159 47.25 53.827 48.7611 53.827 50.625C53.827 52.4889 52.3159 54 50.452 54H26.048C24.1841 54 22.673 52.4889 22.673 50.625ZM22.673 38.25C22.673 36.3861 24.1841 34.875 26.048 34.875H50.452C52.3159 34.875 53.827 36.3861 53.827 38.25C53.827 40.1139 52.3159 41.625 50.452 41.625H26.048C24.1841 41.625 22.673 40.1139 22.673 38.25ZM22.673 25.875C22.673 24.0111 24.1841 22.5 26.048 22.5H50.452C52.3159 22.5 53.827 24.0111 53.827 25.875C53.827 27.7389 52.3159 29.25 50.452 29.25H26.048C24.1841 29.25 22.673 27.7389 22.673 25.875ZM40.5 15.75H22.5C18.7721 15.75 15.75 18.7721 15.75 22.5V40.5H6.75C3.02209 40.5 0 37.478 0 33.75V6.75C0 3.02209 3.02209 0 6.75 0H33.75C37.478 0 40.5 3.02209 40.5 6.75V15.75Z" fill="#FE4F74"/>
</g>
<defs>
<clipPath id="clip0_1246_775">
<rect width="54" height="54" fill="#FE4F74"/>
</clipPath>
</defs>
</svg>
