<svg width="51" height="53" viewBox="0 0 51 53" fill="none" xmlns="http://www.w3.org/2000/svg">
  <g opacity="0.2">
    <path fill-rule="evenodd" clip-rule="evenodd" d="M3.09641 3.20218C0.167481 6.26709 0.16748 11.2 0.16748 21.0658V31.5301C0.16748 41.3959 0.167481 46.3288 3.09641 49.3937C6.02536 52.4587 10.7394 52.4587 20.1675 52.4587H30.1675C39.5955 52.4587 44.3097 52.4587 47.2385 49.3937C50.1675 46.329 50.1675 41.3959 50.1675 31.5301V21.0658C50.1675 13.6379 50.1675 9.0062 48.9175 5.86267V39.3784C46.5165 39.3784 44.2137 38.3803 42.5157 36.6035L40.6367 34.6373C38.8335 32.7503 37.9317 31.8067 36.9095 31.409C35.7857 30.9721 34.5492 30.9721 33.4255 31.409C32.4032 31.8067 31.5015 32.7503 29.6982 34.6373L29.4155 34.9331C27.952 36.4646 27.2205 37.23 26.443 37.3729C25.8387 37.4838 25.2167 37.3585 24.695 37.0208C24.0237 36.586 23.6162 35.5908 22.801 33.6002L22.6675 33.2743C20.7935 28.6982 19.8563 26.4102 18.2217 25.5527C17.3987 25.121 16.4778 24.9356 15.5605 25.0164C13.7384 25.1773 12.0563 26.9376 8.69221 30.4578L3.91748 35.4543V2.45874C3.62848 2.68398 3.35546 2.9311 3.09641 3.20218Z" fill="white" />
    <path d="M2.66699 21.0662C2.66699 16.0593 2.67229 12.5673 3.01082 9.93259C3.33967 7.3731 3.94114 6.01774 4.86369 5.05235C5.78624 4.08697 7.08147 3.45757 9.52739 3.11345C12.0452 2.75921 15.3823 2.75366 20.167 2.75366H30.167C34.9517 2.75366 38.2887 2.75921 40.8065 3.11345C43.2525 3.45757 44.5477 4.08697 45.4702 5.05235C46.3927 6.01774 46.9942 7.3731 47.3232 9.93259C47.6617 12.5673 47.667 16.0593 47.667 21.0662V31.5305C47.667 36.5374 47.6617 40.0293 47.3232 42.664C46.9942 45.2235 46.3927 46.5789 45.4702 47.5442C44.5477 48.5096 43.2525 49.139 40.8065 49.4833C38.2887 49.8375 34.9517 49.843 30.167 49.843H20.167C15.3823 49.843 12.0452 49.8375 9.52739 49.4833C7.08147 49.139 5.78624 48.5096 4.86369 47.5442C3.94114 46.5789 3.33967 45.2235 3.01082 42.664C2.67229 40.0293 2.66699 36.5374 2.66699 31.5305V21.0662Z" stroke="white" stroke-width="5.16667" />
    <path d="M32.6663 23.6827C35.4277 23.6827 37.6663 21.3402 37.6663 18.4506C37.6663 15.561 35.4277 13.2184 32.6663 13.2184C29.9048 13.2184 27.6663 15.561 27.6663 18.4506C27.6663 21.3402 29.9048 23.6827 32.6663 23.6827Z" fill="white" />
  </g>
</svg>