<svg width="85" height="85" viewBox="0 0 85 85" fill="none" xmlns="http://www.w3.org/2000/svg">
<g opacity="0.2">
<path d="M58.4377 42.4999C63.3252 42.4999 67.2564 38.5333 67.2564 33.6458C67.2564 28.7583 63.3252 24.7916 58.4377 24.7916C53.5502 24.7916 49.5835 28.7583 49.5835 33.6458C49.5835 38.5333 53.5502 42.4999 58.4377 42.4999ZM31.8752 38.9583C37.7543 38.9583 42.4647 34.2124 42.4647 28.3333C42.4647 22.4541 37.7543 17.7083 31.8752 17.7083C25.996 17.7083 21.2502 22.4541 21.2502 28.3333C21.2502 34.2124 25.996 38.9583 31.8752 38.9583ZM58.4377 49.5833C51.9564 49.5833 38.9585 52.8416 38.9585 59.3228V67.2916H77.9168V59.3228C77.9168 52.8416 64.9189 49.5833 58.4377 49.5833ZM31.8752 46.0416C23.6231 46.0416 7.0835 50.1853 7.0835 58.4374V67.2916H31.8752V59.3228C31.8752 56.3124 33.0439 51.0353 40.2689 47.0332C37.1877 46.3958 34.2127 46.0416 31.8752 46.0416Z" fill="white"/>
</g>
</svg>
