<svg width="113" height="113" viewBox="0 0 113 113" fill="none" xmlns="http://www.w3.org/2000/svg">
  <g clip-path="url(#clip0_1246_828)">
    <path d="M62.0389 29.8607C67.3031 30.9255 72.0941 33.5291 75.8937 37.39C79.6939 41.2506 82.22 46.0829 83.2001 51.3645C83.3654 52.2549 84.142 52.9007 85.0477 52.9007H111.121C111.651 52.9007 112.156 52.677 112.512 52.2847C112.869 51.8924 113.043 51.3676 112.991 50.84C111.744 37.989 105.99 25.8006 96.7874 16.5203C87.5854 7.24021 75.4473 1.38451 62.6087 0.0315303C62.0797 -0.0254222 61.5506 0.14717 61.1549 0.503628C60.7591 0.860087 60.5327 1.36746 60.5327 1.90026V28.0189C60.5324 28.9131 61.1627 29.6835 62.0389 29.8607Z" fill="#FE4F74" />
    <path d="M111.026 60.7067H84.8652C83.982 60.7067 83.2187 61.3213 83.0294 62.1834C80.2942 74.6635 69.4388 83.3798 56.63 83.3798C51.4075 83.3798 46.3425 81.8898 41.9829 79.0705C41.239 78.5895 40.2604 78.693 39.6336 79.3197L21.1452 97.8076C20.7671 98.186 20.5679 98.707 20.5976 99.2409C20.6274 99.7752 20.8833 100.271 21.301 100.605C31.2902 108.585 43.8368 112.979 56.63 112.979C70.4672 112.979 83.8441 107.834 94.2964 98.4928C104.729 89.1696 111.333 76.4929 112.892 62.7983C112.953 62.2664 112.784 61.7339 112.428 61.3346C112.071 60.9351 111.561 60.7067 111.026 60.7067ZM89.5486 92.0129C80.5628 100.313 68.8722 104.884 56.6297 104.884C50.7804 104.884 45.0652 103.856 39.6429 101.829C37.0459 100.858 34.5244 99.659 32.139 98.2615L42.0733 88.3275C46.6475 90.4162 51.5431 91.4749 56.6297 91.4749C71.2081 91.4749 84.374 82.3764 89.4899 68.8015H103.551C101.197 77.7016 96.3635 85.7175 89.5486 92.0129Z" fill="#FE4F74" />
    <path d="M34.2472 71.508C31.2065 67.0342 29.5994 61.7925 29.5994 56.3491C29.5994 49.8762 31.9234 43.614 36.1431 38.7164C40.0419 34.1911 45.3974 31.0463 51.2228 29.861C52.0982 29.6832 52.7273 28.913 52.7273 28.0197V1.89996C52.7273 1.36715 52.5012 0.859782 52.1054 0.503323C51.7093 0.147443 51.1809 -0.0254384 50.6512 0.0312249C36.8303 1.48626 24.0357 8.03926 14.6235 18.4832C5.19337 28.9472 0 42.3952 0 56.3491C0 69.3889 4.5429 82.1211 12.792 92.2008C13.1283 92.6116 13.6226 92.8608 14.1528 92.8874C14.184 92.8888 14.2153 92.8897 14.2465 92.8897C14.7435 92.8897 15.2219 92.6925 15.5752 92.3396L34.0217 73.893C34.6595 73.255 34.754 72.2539 34.2472 71.508ZM21.0929 23.2915C22.3045 21.9897 23.611 20.7333 24.9775 19.5558H44.6325V23.3138C43.7129 23.6451 42.7684 24.0331 41.8193 24.4705H20.0328C20.3861 24.064 20.7408 23.6697 21.0929 23.2915ZM44.6325 9.30667V12.9065H34.9639C38.0549 11.3616 41.2977 10.154 44.6325 9.30667ZM12.5391 36.0344C13.3133 34.3568 14.1933 32.7072 15.1609 31.1197H32.1177C30.5678 32.6239 29.1576 34.2726 27.9139 36.0344H12.5391ZM8.88603 47.5984C9.18698 45.9476 9.57784 44.298 10.0502 42.6837H24.2354C23.5659 44.2827 23.0143 45.9317 22.5916 47.5984H8.88603ZM22.7908 65.8116C23.2574 67.4849 23.855 69.1339 24.5714 70.7262H10.2751C9.77992 69.127 9.36275 67.4774 9.03173 65.8116H22.7908ZM21.6171 59.1623H8.17889C8.12309 58.2077 8.09476 57.2635 8.09476 56.3494C8.09476 55.6697 8.11037 54.9646 8.1416 54.2476H21.5691C21.5257 54.9747 21.5043 55.6659 21.5043 56.3494C21.5046 57.2728 21.5425 58.2169 21.6171 59.1623ZM19.0912 77.3755L15.06 81.4067C14.2881 80.1231 13.5605 78.7719 12.8903 77.3755H19.0912Z" fill="#FE4F74" />
  </g>
  <defs>
    <clipPath id="clip0_1246_828">
      <rect width="113" height="113" fill="white" />
    </clipPath>
  </defs>
</svg>