<svg width="60" height="60" viewBox="0 0 60 60" fill="none" xmlns="http://www.w3.org/2000/svg">
<g opacity="0.2">
<path d="M54.9998 42.5V52.5C54.9998 53.163 54.7364 53.7989 54.2675 54.2678C53.7987 54.7366 53.1628 55 52.4998 55H42.4998C41.8367 55 41.2008 54.7366 40.732 54.2678C40.2631 53.7989 39.9998 53.163 39.9998 52.5V42.5C39.9998 41.837 40.2631 41.2011 40.732 40.7322C41.2008 40.2634 41.8367 40 42.4998 40H44.9998V36.25C44.9998 35.9185 44.8681 35.6005 44.6336 35.3661C44.3992 35.1317 44.0813 35 43.7498 35H16.2498C15.9182 35 15.6003 35.1317 15.3659 35.3661C15.1315 35.6005 14.9998 35.9185 14.9998 36.25V40H17.4998C18.1628 40 18.7987 40.2634 19.2675 40.7322C19.7364 41.2011 19.9998 41.837 19.9998 42.5V52.5C19.9998 53.163 19.7364 53.7989 19.2675 54.2678C18.7987 54.7366 18.1628 55 17.4998 55H7.49976C6.83671 55 6.20083 54.7366 5.73199 54.2678C5.26315 53.7989 4.99976 53.163 4.99976 52.5V42.5C4.99976 41.837 5.26315 41.2011 5.73199 40.7322C6.20083 40.2634 6.83671 40 7.49976 40H9.99976V32.5C9.99976 31.837 10.2631 31.2011 10.732 30.7322C11.2008 30.2634 11.8367 30 12.4998 30H27.4998V22.5H22.4998C21.8367 22.5 21.2008 22.2366 20.732 21.7678C20.2631 21.2989 19.9998 20.663 19.9998 20V7.5C19.9998 6.83696 20.2631 6.20107 20.732 5.73223C21.2008 5.26339 21.8367 5 22.4998 5H37.4998C38.1628 5 38.7987 5.26339 39.2675 5.73223C39.7364 6.20107 39.9998 6.83696 39.9998 7.5V20C39.9998 20.663 39.7364 21.2989 39.2675 21.7678C38.7987 22.2366 38.1628 22.5 37.4998 22.5H32.4998V30H47.4998C48.1628 30 48.7987 30.2634 49.2675 30.7322C49.7364 31.2011 49.9998 31.837 49.9998 32.5V40H52.4998C53.1628 40 53.7987 40.2634 54.2675 40.7322C54.7364 41.2011 54.9998 41.837 54.9998 42.5Z" fill="#FE4F74"/>
</g>
</svg>
