<svg width="78" height="78" viewBox="0 0 78 78" fill="none" xmlns="http://www.w3.org/2000/svg">
<g opacity="0.2">
<path d="M52.6175 7.5H25.3825C13.5525 7.5 6.5 14.5525 6.5 26.3825V53.585C6.5 65.4475 13.5525 72.5 25.3825 72.5H52.585C64.415 72.5 71.4675 65.4475 71.4675 53.6175V26.3825C71.5 14.5525 64.4475 7.5 52.6175 7.5ZM39 52.61C32.045 52.61 26.39 46.955 26.39 40C26.39 33.045 32.045 27.39 39 27.39C45.955 27.39 51.61 33.045 51.61 40C51.61 46.955 45.955 52.61 39 52.61ZM58.24 23.36C58.0775 23.75 57.85 24.1075 57.5575 24.4325C57.2325 24.725 56.875 24.9525 56.485 25.115C56.095 25.2775 55.6725 25.375 55.25 25.375C54.3725 25.375 53.56 25.05 52.9425 24.4325C52.65 24.1075 52.4225 23.75 52.26 23.36C52.0975 22.97 52 22.5475 52 22.125C52 21.7025 52.0975 21.28 52.26 20.89C52.4225 20.4675 52.65 20.1425 52.9425 19.8175C53.69 19.07 54.8275 18.7125 55.8675 18.94C56.095 18.9725 56.29 19.0375 56.485 19.135C56.68 19.2 56.875 19.2975 57.07 19.4275C57.2325 19.525 57.395 19.6875 57.5575 19.8175C57.85 20.1425 58.0775 20.4675 58.24 20.89C58.4025 21.28 58.5 21.7025 58.5 22.125C58.5 22.5475 58.4025 22.97 58.24 23.36Z" fill="white"/>
</g>
</svg>
