<svg width="67" height="62" viewBox="0 0 67 62" fill="none" xmlns="http://www.w3.org/2000/svg">
<path opacity="0.2" fill-rule="evenodd" clip-rule="evenodd" d="M47.5072 3.54447C46.3674 3.32796 45.2082 3.21443 44.0435 3.2065C40.238 3 39.117 3 29.5 3C19.883 3 18.762 3 14.9565 3.2065C12.6784 3.22202 10.4211 3.64152 8.2895 4.4455C6.72972 5.03762 5.31323 5.95377 4.1335 7.1335C2.95377 8.31323 2.03762 9.72972 1.4455 11.2895C0.641518 13.4211 0.22202 15.6784 0.2065 17.9565C0 21.762 0 22.883 0 32.5C0 42.117 0 43.238 0.2065 47.0435C0.238253 49.3296 0.657184 51.5939 1.4455 53.74C2.03499 55.2927 2.95038 56.7009 4.13 57.87C5.30467 59.0568 6.7242 59.973 8.2895 60.5545C10.4211 61.3585 12.6784 61.778 14.9565 61.7935C18.762 62 19.883 62 29.5 62C39.117 62 40.238 62 44.0435 61.7935C46.3216 61.778 48.5789 61.3585 50.7105 60.5545C52.2758 59.973 53.6953 59.0568 54.87 57.87C56.0496 56.7009 56.965 55.2927 57.5545 53.74C58.3577 51.598 58.7771 49.3311 58.7935 47.0435C59 43.238 59 42.117 59 32.5C59 26.7685 59 24.0547 58.9563 21.9918C58.8049 21.9973 58.6528 22 58.5 22C55.4409 22 52.6384 20.9011 50.4658 19.0765C50.8972 20.5026 51.1386 21.9808 51.1825 23.473V32.5C51.1825 35.6949 51.2396 37.3813 51.2809 38.601C51.3181 39.7013 51.3425 40.4217 51.3005 41.527V41.5565C51.2058 43.377 50.8173 45.1701 50.15 46.8665C49.5773 48.2816 48.7259 49.567 47.6465 50.6465C46.567 51.7259 45.2816 52.5773 43.8665 53.15C42.1541 53.7801 40.3509 54.1288 38.527 54.1825H29.5H20.473C18.6491 54.1288 16.8459 53.7801 15.1335 53.15C13.6706 52.6064 12.3495 51.7391 11.269 50.613C10.2001 49.5547 9.37464 48.2762 8.85 46.8665C8.21739 45.1558 7.87829 43.3506 7.847 41.527V32.5V23.473C7.87829 21.6494 8.21739 19.8442 8.85 18.1335C9.39363 16.6706 10.2609 15.3495 11.387 14.269C12.45 13.2059 13.7271 12.3813 15.1335 11.85C16.8459 11.2199 18.6491 10.8712 20.473 10.8175H29.5H38.527C40.3509 10.8712 42.1541 11.2199 43.8665 11.85C44.8577 12.2183 45.7838 12.7353 46.6141 13.3806C46.2155 12.159 46 10.8547 46 9.5C46 7.34374 46.546 5.31499 47.5072 3.54447ZM25.4354 26.417C26.6386 25.6131 28.053 25.184 29.5 25.184C30.4608 25.184 31.4121 25.3732 32.2997 25.7409C33.1873 26.1086 33.9938 26.6475 34.6732 27.3268C35.3525 28.0062 35.8914 28.8127 36.2591 29.7003C36.6268 30.5879 36.816 31.5392 36.816 32.5C36.816 33.947 36.3869 35.3614 35.583 36.5646C34.7791 37.7677 33.6365 38.7054 32.2997 39.2591C30.9629 39.8128 29.4919 39.9577 28.0727 39.6754C26.6536 39.3931 25.35 38.6964 24.3268 37.6732C23.3036 36.65 22.6069 35.3464 22.3246 33.9273C22.0423 32.5081 22.1872 31.0371 22.7409 29.7003C23.2946 28.3635 24.2323 27.2209 25.4354 26.417ZM44.9574 17.0721C45.6755 17.7902 46.2293 18.6556 46.5805 19.6085V19.579C47.0882 20.8762 47.3484 22.257 47.3475 23.65V32.5V41.35C47.3339 42.7416 47.0742 44.1198 46.5805 45.421C46.2293 46.3739 45.6755 47.2393 44.9574 47.9574C44.2393 48.6755 43.3739 49.2293 42.421 49.5805C41.1198 50.0742 39.7416 50.3339 38.35 50.3475H29.5H20.65C19.3097 50.3023 17.9852 50.0434 16.7265 49.5805C15.7736 49.2293 14.9082 48.6755 14.1901 47.9574C13.472 47.2393 12.9182 46.3739 12.567 45.421C12.0884 44.1156 11.8292 42.74 11.8 41.35V32.5V23.65C11.7818 22.2682 11.9911 20.8928 12.4195 19.579C12.7884 18.6534 13.3502 17.8169 14.0673 17.1252C14.7845 16.4335 15.6407 15.9023 16.579 15.567C17.8802 15.0733 19.2584 14.8136 20.65 14.8H29.5H38.35C39.7346 14.7758 41.1126 14.9955 42.421 15.449C43.3739 15.8002 44.2393 16.354 44.9574 17.0721ZM25.192 42.9106C26.5576 43.4773 28.0215 43.769 29.5 43.769C31.73 43.7748 33.9117 43.1189 35.7687 41.8842C37.6258 40.6495 39.0748 38.8916 39.9322 36.8329C40.7897 34.7743 41.017 32.5076 40.5856 30.3197C40.1541 28.1318 39.0831 26.1211 37.5083 24.5421C35.9335 22.9632 33.9256 21.887 31.7388 21.4497C29.5521 21.0125 27.2847 21.234 25.2239 22.086C23.163 22.9381 21.4013 24.3824 20.1617 26.2362C18.9222 28.09 18.2605 30.2699 18.2605 32.5C18.2566 33.9785 18.5445 35.4432 19.1076 36.8102C19.6707 38.1773 20.498 39.4198 21.542 40.4666C22.5861 41.5134 23.8264 42.3439 25.192 42.9106ZM39.6058 22.5791C40.0444 23.0666 40.6479 23.3745 41.3 23.4435C41.9521 23.3745 42.5556 23.0666 42.9942 22.5791C43.4328 22.0916 43.6755 21.459 43.6755 20.8032C43.6755 20.1475 43.4328 19.5149 42.9942 19.0274C42.5556 18.5399 41.9521 18.232 41.3 18.163C40.6479 18.232 40.0444 18.5399 39.6058 19.0274C39.1672 19.5149 38.9245 20.1475 38.9245 20.8032C38.9245 21.459 39.1672 22.0916 39.6058 22.5791Z" fill="#FE4F74"/>
<path opacity="0.2" fill-rule="evenodd" clip-rule="evenodd" d="M57.5 19C62.7467 19 67 14.7467 67 9.5C67 4.25329 62.7467 0 57.5 0C52.2533 0 48 4.25329 48 9.5C48 14.7467 52.2533 19 57.5 19ZM56.324 10.4V14.25H58.678V10.4H62.572V8.2H58.678V4.35H56.324V8.2H52.43V10.4H56.324Z" fill="#FE4F74"/>
</svg>
