<svg width="55" height="49" viewBox="0 0 55 49" fill="none" xmlns="http://www.w3.org/2000/svg">
  <g opacity="0.2">
    <path d="M52.6277 10.9386H49.9826V32.5664C49.9826 34.7031 48.031 36.4411 45.6334 36.4411H9.3666C6.96821 36.4411 5.0174 34.7031 5.0174 32.5664V10.9386H2.37229C1.062 10.9386 0 11.8847 0 13.052V39.8227C0 40.99 1.062 41.9361 2.37229 41.9361H52.6277C53.938 41.9361 55 40.99 55 39.8227V13.052C55 11.8847 53.938 10.9386 52.6277 10.9386ZM27.4996 40.0692C26.954 40.0692 26.5112 39.6747 26.5112 39.1886C26.5112 38.7025 26.954 38.308 27.4996 38.308C28.046 38.308 28.4881 38.7025 28.4881 39.1886C28.4881 39.6747 28.046 40.0692 27.4996 40.0692Z" fill="white" />
    <path d="M34.7088 48.6964L34.5561 49H20.4434L20.29 48.6964C19.7159 47.5523 19.9926 46.2117 20.9874 45.3254L22.8149 43.6974H32.1846L34.0121 45.3254C35.0061 46.2117 35.2836 47.5523 34.7088 48.6964Z" fill="white" />
    <path d="M6.99438 2.11347V7.24217H48.0104V2.11347C48.0104 0.951063 46.9428 0 45.6381 0H9.36668C8.06192 0 6.99438 0.951063 6.99438 2.11347ZM40.6943 3.62115C40.6943 3.13682 41.1391 2.74054 41.6827 2.74054H43.8969C44.4405 2.74054 44.8853 3.13682 44.8853 3.62115C44.8853 4.10549 44.4405 4.50177 43.8969 4.50177H41.6827C41.1391 4.50177 40.6943 4.10549 40.6943 3.62115ZM34.0914 3.62115C34.0914 3.13682 34.5362 2.74054 35.0799 2.74054H37.294C37.8377 2.74054 38.2825 3.13682 38.2825 3.62115C38.2825 4.10549 37.8377 4.50177 37.294 4.50177H35.0799C34.5362 4.50177 34.0914 4.10549 34.0914 3.62115ZM27.4885 3.62115C27.4885 3.13682 27.9333 2.74054 28.477 2.74054H30.6911C31.2348 2.74054 31.6796 3.13682 31.6796 3.62115C31.6796 4.10549 31.2348 4.50177 30.6911 4.50177H28.477C27.9333 4.50177 27.4885 4.10549 27.4885 3.62115Z" fill="white" />
    <path d="M36.1451 14.6019C35.0265 14.6019 34.1196 15.4098 34.1196 16.4063C34.1196 17.4029 35.0265 18.2108 36.1451 18.2108C37.2637 18.2108 38.1706 17.4029 38.1706 16.4063C38.1706 15.4098 37.2638 14.6019 36.1451 14.6019Z" fill="white" />
    <path d="M36.1449 26.4373C35.6 26.4373 35.1565 26.814 35.1565 27.2769C35.1565 27.7398 35.6 28.1165 36.1449 28.1165C36.69 28.1165 37.1334 27.7398 37.1334 27.2769C37.1334 26.814 36.6899 26.4373 36.1449 26.4373Z" fill="white" />
    <path d="M6.99438 9.0034V32.5664C6.99438 33.7288 8.06192 34.6799 9.36668 34.6799H45.6381C46.9428 34.6799 48.0104 33.7288 48.0104 32.5664V9.0034H6.99438ZM30.7107 22.5962C30.7107 22.9779 30.3901 23.2993 29.9646 23.3439L28.6075 23.4865C28.4405 24.1735 28.1362 24.8154 27.7212 25.3881L28.5691 26.3455C28.8345 26.6451 28.8062 27.0744 28.5032 27.3443L27.974 27.8158C27.671 28.0857 27.1892 28.1109 26.8528 27.8744L25.7783 27.119C25.1355 27.4888 24.4149 27.76 23.6437 27.9087L23.4837 29.1177C23.4335 29.4968 23.0728 29.7825 22.6444 29.7825H21.8959C21.4675 29.7825 21.1068 29.4967 21.0566 29.1177L20.8966 27.9087C20.1255 27.76 19.4049 27.4888 18.7621 27.119L17.6875 27.8744C17.3511 28.1109 16.8694 28.0857 16.5663 27.8158L16.0371 27.3443C15.7341 27.0744 15.7058 26.6451 15.9712 26.3455L16.8192 25.3881C16.4041 24.8154 16.0997 24.1735 15.9328 23.4865L14.5758 23.3439C14.1502 23.2992 13.8296 22.9779 13.8296 22.5962V21.9293C13.8296 21.5476 14.1502 21.2263 14.5758 21.1816L15.9328 21.0391C16.0998 20.352 16.4041 19.7101 16.8192 19.1374L15.9712 18.18C15.7058 17.8803 15.7341 17.4512 16.0371 17.1812L16.5663 16.7097C16.8694 16.4398 17.3511 16.4146 17.6875 16.6511L18.7621 17.4065C19.4049 17.0366 20.1254 16.7655 20.8966 16.6168L21.0566 15.4078C21.1068 15.0287 21.4674 14.743 21.8959 14.743H22.6444C23.0729 14.743 23.4336 15.0288 23.4837 15.4078L23.6437 16.6168C24.4148 16.7655 25.1355 17.0366 25.7783 17.4065L26.8528 16.6511C27.1892 16.4146 27.671 16.4398 27.974 16.7097L28.5032 17.1812C28.8062 17.4512 28.8345 17.8803 28.5691 18.18L27.7212 19.1374C28.1363 19.7101 28.4406 20.352 28.6075 21.0391L29.9646 21.1816C30.3901 21.2263 30.7107 21.5476 30.7107 21.9293V22.5962ZM41.1755 27.4756C41.1755 27.7031 40.9843 27.8946 40.7307 27.9212L39.9219 28.0062C39.8224 28.4157 39.6411 28.7982 39.3937 29.1395L39.899 29.7101C40.0572 29.8887 40.0403 30.1445 39.8598 30.3053L39.5444 30.5863C39.3638 30.7471 39.0767 30.7622 38.8762 30.6213L38.2358 30.1711C37.8528 30.3915 37.4233 30.5531 36.9637 30.6417L36.8683 31.3622C36.8384 31.5882 36.6235 31.7584 36.3681 31.7584H35.922C35.6667 31.7584 35.4518 31.5882 35.4218 31.3622L35.3264 30.6417C34.8668 30.5531 34.4374 30.3915 34.0543 30.1711L33.4139 30.6213C33.2134 30.7622 32.9263 30.7471 32.7458 30.5863L32.4303 30.3053C32.2498 30.1445 32.2329 29.8887 32.3911 29.7101L32.8964 29.1395C32.649 28.7982 32.4677 28.4156 32.3682 28.0062L31.5594 27.9212C31.3058 27.8946 31.1147 27.703 31.1147 27.4756V27.0782C31.1147 26.8507 31.3058 26.6592 31.5594 26.6326L32.3682 26.5476C32.4677 26.1381 32.6491 25.7556 32.8964 25.4143L32.3911 24.8437C32.233 24.6651 32.2498 24.4093 32.4303 24.2484L32.7458 23.9675C32.9264 23.8066 33.2134 23.7916 33.4139 23.9325L34.0543 24.3827C34.4374 24.1623 34.8668 24.0007 35.3264 23.912L35.4218 23.1915C35.4517 22.9656 35.6666 22.7954 35.922 22.7954H36.3681C36.6234 22.7954 36.8384 22.9656 36.8683 23.1915L36.9637 23.912C37.4233 24.0007 37.8528 24.1623 38.2358 24.3827L38.8762 23.9325C39.0767 23.7916 39.3638 23.8066 39.5444 23.9675L39.8598 24.2484C40.0403 24.4093 40.0573 24.6651 39.899 24.8437L39.3937 25.4143C39.6411 25.7556 39.8225 26.1381 39.9219 26.5476L40.7307 26.6326C40.9843 26.6592 41.1755 26.8507 41.1755 27.0782V27.4756ZM41.1755 16.6051C41.1755 16.8326 40.9843 17.0241 40.7307 17.0507L39.9219 17.1357C39.8224 17.5452 39.6411 17.9277 39.3937 18.269L39.899 18.8396C40.0572 19.0182 40.0403 19.274 39.8598 19.4349L39.5444 19.7158C39.3638 19.8766 39.0767 19.8917 38.8762 19.7508L38.2358 19.3006C37.8528 19.5209 37.4233 19.6826 36.9637 19.7713L36.8683 20.4917C36.8384 20.7177 36.6235 20.8879 36.3681 20.8879H35.922C35.6667 20.8879 35.4518 20.7177 35.4218 20.4917L35.3264 19.7713C34.8668 19.6826 34.4374 19.5209 34.0543 19.3006L33.4139 19.7508C33.2134 19.8917 32.9263 19.8766 32.7458 19.7158L32.4303 19.4349C32.2498 19.274 32.2329 19.0182 32.3911 18.8396L32.8964 18.269C32.649 17.9277 32.4677 17.5452 32.3682 17.1357L31.5594 17.0507C31.3058 17.0241 31.1147 16.8326 31.1147 16.6051V16.2077C31.1147 15.9802 31.3058 15.7887 31.5594 15.7621L32.3682 15.6771C32.4677 15.2677 32.6491 14.885 32.8964 14.5438L32.3911 13.9732C32.233 13.7946 32.2498 13.5388 32.4303 13.3779L32.7458 13.097C32.9264 12.9361 33.2134 12.9211 33.4139 13.062L34.0543 13.5122C34.4374 13.2918 34.8668 13.1302 35.3264 13.0416L35.4218 12.3211C35.4517 12.0951 35.6666 11.9248 35.922 11.9248H36.3681C36.6234 11.9248 36.8384 12.0951 36.8683 12.3211L36.9637 13.0416C37.4233 13.1302 37.8528 13.2918 38.2358 13.5122L38.8762 13.062C39.0767 12.9211 39.3638 12.9361 39.5444 13.097L39.8598 13.3779C40.0403 13.5388 40.0573 13.7946 39.899 13.9732L39.3937 14.5438C39.6411 14.885 39.8225 15.2676 39.9219 15.6771L40.7307 15.7621C40.9843 15.7887 41.1755 15.9802 41.1755 16.2077V16.6051Z" fill="white" />
    <path d="M22.27 18.2471C19.7847 18.2471 17.7627 20.0485 17.7627 22.2627C17.7627 24.4769 19.7847 26.2783 22.27 26.2783C24.7554 26.2783 26.7774 24.4769 26.7774 22.2627C26.7774 20.0485 24.7554 18.2471 22.27 18.2471ZM22.27 24.5171C20.8747 24.5171 19.7396 23.5058 19.7396 22.2627C19.7396 21.0196 20.8747 20.0083 22.27 20.0083C23.6654 20.0083 24.8005 21.0196 24.8005 22.2627C24.8005 23.5058 23.6654 24.5171 22.27 24.5171Z" fill="white" />
  </g>
</svg>