<svg width="86" height="86" viewBox="0 0 86 86" fill="none" xmlns="http://www.w3.org/2000/svg">
<g opacity="0.2">
<path d="M70.3401 26.488H67.4634V52.89C67.4634 55.4984 65.3409 57.62 62.7334 57.62H23.2912C20.6828 57.62 18.5612 55.4984 18.5612 52.89V26.488H15.6845C14.2595 26.488 13.1045 27.643 13.1045 29.068V61.748C13.1045 63.173 14.2595 64.328 15.6845 64.328H70.3401C71.7651 64.328 72.9201 63.173 72.9201 61.748V29.068C72.9201 27.643 71.7651 26.488 70.3401 26.488ZM43.0119 62.049C42.4185 62.049 41.9369 61.5674 41.9369 60.974C41.9369 60.3806 42.4185 59.899 43.0119 59.899C43.6061 59.899 44.0869 60.3806 44.0869 60.974C44.0869 61.5674 43.6061 62.049 43.0119 62.049Z" fill="white"/>
<path d="M50.8526 72.5806L50.6866 72.9511H35.3382L35.1713 72.5806C34.547 71.1839 34.848 69.5473 35.9299 68.4655L37.9173 66.478H48.1075L50.0949 68.4655C51.1759 69.5473 51.4778 71.1839 50.8526 72.5806Z" fill="white"/>
<path d="M20.7114 15.7149V21.9757H65.3186V15.7149C65.3186 14.2959 64.1576 13.1349 62.7386 13.1349H23.2914C21.8724 13.1349 20.7114 14.2959 20.7114 15.7149ZM57.362 17.5554C57.362 16.9641 57.8457 16.4804 58.437 16.4804H60.845C61.4362 16.4804 61.92 16.9641 61.92 17.5554C61.92 18.1466 61.4362 18.6304 60.845 18.6304H58.437C57.8457 18.6304 57.362 18.1466 57.362 17.5554ZM50.181 17.5554C50.181 16.9641 50.6647 16.4804 51.256 16.4804H53.664C54.2552 16.4804 54.739 16.9641 54.739 17.5554C54.739 18.1466 54.2552 18.6304 53.664 18.6304H51.256C50.6647 18.6304 50.181 18.1466 50.181 17.5554ZM43 17.5554C43 16.9641 43.4837 16.4804 44.075 16.4804H46.483C47.0742 16.4804 47.558 16.9641 47.558 17.5554C47.558 18.1466 47.0742 18.6304 46.483 18.6304H44.075C43.4837 18.6304 43 18.1466 43 17.5554Z" fill="white"/>
<path d="M52.4145 30.96C51.1979 30.96 50.2117 31.9462 50.2117 33.1627C50.2117 34.3793 51.1979 35.3655 52.4145 35.3655C53.631 35.3655 54.6173 34.3793 54.6173 33.1627C54.6173 31.9462 53.6311 30.96 52.4145 30.96Z" fill="white"/>
<path d="M52.4148 45.408C51.8221 45.408 51.3398 45.8678 51.3398 46.4329C51.3398 46.998 51.8221 47.4578 52.4148 47.4578C53.0076 47.4578 53.4898 46.998 53.4898 46.4329C53.4898 45.8678 53.0076 45.408 52.4148 45.408Z" fill="white"/>
<path d="M20.7114 24.1257V52.89C20.7114 54.309 21.8724 55.47 23.2914 55.47H62.7386C64.1576 55.47 65.3186 54.309 65.3186 52.89V24.1257H20.7114ZM46.5043 40.7189C46.5043 41.1849 46.1556 41.5772 45.6928 41.6317L44.2169 41.8057C44.0353 42.6444 43.7044 43.428 43.253 44.1271L44.1751 45.2959C44.4638 45.6616 44.433 46.1856 44.1035 46.5152L43.5279 47.0907C43.1985 47.4202 42.6745 47.451 42.3086 47.1623L41.14 46.2401C40.4409 46.6916 39.6572 47.0226 38.8185 47.2041L38.6445 48.68C38.5899 49.1428 38.1976 49.4915 37.7317 49.4915H36.9177C36.4517 49.4915 36.0595 49.1427 36.0049 48.68L35.8309 47.2041C34.9922 47.0226 34.2085 46.6916 33.5094 46.2401L32.3408 47.1623C31.9749 47.451 31.451 47.4202 31.1215 47.0907L30.5459 46.5152C30.2164 46.1856 30.1856 45.6616 30.4742 45.2959L31.3964 44.1271C30.945 43.428 30.614 42.6444 30.4324 41.8057L28.9566 41.6317C28.4937 41.5771 28.1451 41.1849 28.1451 40.7189V39.9049C28.1451 39.4389 28.4938 39.0467 28.9566 38.9921L30.4324 38.8181C30.6141 37.9794 30.945 37.1958 31.3964 36.4967L30.4742 35.3279C30.1856 34.9621 30.2163 34.4382 30.5459 34.1086L31.1215 33.5331C31.451 33.2036 31.9749 33.1729 32.3408 33.4615L33.5094 34.3837C34.2085 33.9322 34.9922 33.6012 35.8309 33.4197L36.0049 31.9438C36.0594 31.481 36.4517 31.1323 36.9177 31.1323H37.7317C38.1977 31.1323 38.59 31.4811 38.6445 31.9438L38.8185 33.4197C39.6571 33.6012 40.4409 33.9322 41.14 34.3837L42.3086 33.4615C42.6745 33.1729 43.1984 33.2036 43.5279 33.5331L44.1035 34.1086C44.433 34.4382 44.4638 34.9621 44.1751 35.3279L43.253 36.4967C43.7045 37.1958 44.0354 37.9794 44.2169 38.8181L45.6928 38.9921C46.1556 39.0467 46.5043 39.4389 46.5043 39.9049V40.7189ZM57.8853 46.6755C57.8853 46.9532 57.6774 47.1869 57.4016 47.2194L56.522 47.3231C56.4137 47.8231 56.2165 48.29 55.9475 48.7066L56.4971 49.4031C56.6691 49.6211 56.6507 49.9334 56.4544 50.1297L56.1114 50.4728C55.915 50.6691 55.6027 50.6875 55.3847 50.5155L54.6882 49.9659C54.2716 50.2349 53.8046 50.4322 53.3047 50.5404L53.201 51.42C53.1685 51.6958 52.9348 51.9037 52.657 51.9037H52.1719C51.8942 51.9037 51.6604 51.6958 51.6278 51.42L51.5241 50.5404C51.0243 50.4322 50.5572 50.2349 50.1406 49.9659L49.4441 50.5155C49.2261 50.6875 48.9138 50.6691 48.7175 50.4728L48.3744 50.1297C48.1781 49.9334 48.1597 49.6211 48.3318 49.4031L48.8813 48.7066C48.6122 48.29 48.415 47.823 48.3069 47.3231L47.4272 47.2194C47.1514 47.1869 46.9436 46.9531 46.9436 46.6755V46.1903C46.9436 45.9126 47.1514 45.6788 47.4272 45.6463L48.3069 45.5426C48.415 45.0427 48.6123 44.5757 48.8813 44.1591L48.3318 43.4625C48.1598 43.2445 48.1781 42.9322 48.3744 42.7359L48.7175 42.3929C48.9139 42.1966 49.2261 42.1782 49.4441 42.3502L50.1406 42.8998C50.5572 42.6308 51.0243 42.4335 51.5241 42.3252L51.6278 41.4456C51.6603 41.1698 51.8941 40.9621 52.1719 40.9621H52.657C52.9347 40.9621 53.1685 41.1698 53.201 41.4456L53.3047 42.3252C53.8046 42.4335 54.2716 42.6308 54.6882 42.8998L55.3847 42.3502C55.6027 42.1782 55.915 42.1966 56.1114 42.3929L56.4544 42.7359C56.6507 42.9322 56.6691 43.2445 56.4971 43.4625L55.9475 44.1591C56.2166 44.5757 56.4138 45.0427 56.522 45.5426L57.4016 45.6463C57.6774 45.6788 57.8853 45.9126 57.8853 46.1903V46.6755ZM57.8853 33.4054C57.8853 33.6831 57.6774 33.9169 57.4016 33.9494L56.522 34.0531C56.4137 34.553 56.2165 35.02 55.9475 35.4366L56.4971 36.1332C56.6691 36.3512 56.6507 36.6634 56.4544 36.8598L56.1114 37.2027C55.915 37.3991 55.6027 37.4175 55.3847 37.2455L54.6882 36.6959C54.2716 36.9649 53.8046 37.1622 53.3047 37.2704L53.201 38.1499C53.1685 38.4258 52.9348 38.6335 52.657 38.6335H52.1719C51.8942 38.6335 51.6604 38.4258 51.6278 38.1499L51.5241 37.2704C51.0243 37.1622 50.5572 36.9649 50.1406 36.6959L49.4441 37.2455C49.2261 37.4175 48.9138 37.3991 48.7175 37.2027L48.3744 36.8598C48.1781 36.6634 48.1597 36.3512 48.3318 36.1332L48.8813 35.4366C48.6122 35.02 48.415 34.553 48.3069 34.0531L47.4272 33.9494C47.1514 33.9169 46.9436 33.6831 46.9436 33.4054V32.9202C46.9436 32.6426 47.1514 32.4088 47.4272 32.3763L48.3069 32.2725C48.415 31.7728 48.6123 31.3056 48.8813 30.8891L48.3318 30.1925C48.1598 29.9745 48.1781 29.6623 48.3744 29.4658L48.7175 29.1229C48.9139 28.9265 49.2261 28.9081 49.4441 29.0802L50.1406 29.6298C50.5572 29.3607 51.0243 29.1635 51.5241 29.0553L51.6278 28.1757C51.6603 27.8999 51.8941 27.692 52.1719 27.692H52.657C52.9347 27.692 53.1685 27.8999 53.201 28.1757L53.3047 29.0553C53.8046 29.1635 54.2716 29.3607 54.6882 29.6298L55.3847 29.0802C55.6027 28.9081 55.915 28.9265 56.1114 29.1229L56.4544 29.4658C56.6507 29.6623 56.6691 29.9745 56.4971 30.1925L55.9475 30.8891C56.2166 31.3056 56.4138 31.7726 56.522 32.2725L57.4016 32.3763C57.6774 32.4088 57.8853 32.6426 57.8853 32.9202V33.4054Z" fill="white"/>
<path d="M37.3244 35.4098C34.6214 35.4098 32.4224 37.6088 32.4224 40.3118C32.4224 43.0148 34.6214 45.2138 37.3244 45.2138C40.0273 45.2138 42.2264 43.0148 42.2264 40.3118C42.2264 37.6088 40.0273 35.4098 37.3244 35.4098ZM37.3244 43.0638C35.8069 43.0638 34.5724 41.8293 34.5724 40.3118C34.5724 38.7943 35.8069 37.5598 37.3244 37.5598C38.8418 37.5598 40.0764 38.7943 40.0764 40.3118C40.0764 41.8293 38.8418 43.0638 37.3244 43.0638Z" fill="white"/>
</g>
</svg>
