<svg width="58" height="58" viewBox="0 0 58 58" fill="none" xmlns="http://www.w3.org/2000/svg">
<g opacity="0.2" clip-path="url(#clip0_1246_779)">
<path d="M29.6135 7.25848C29.4097 7.25283 29.2052 7.25 29 7.25C16.9878 7.25 7.25 16.9878 7.25 29C7.25 41.0122 16.9878 50.75 29 50.75C41.0122 50.75 50.75 41.0122 50.75 29C50.75 28.7948 50.7471 28.5903 50.7417 28.3865L57.1452 21.9828C57.7035 24.2298 58 26.5803 58 29C58 45.0163 45.0163 58 29 58C12.9837 58 0 45.0163 0 29C0 12.9837 12.9837 0 29 0C31.4197 0 33.7702 0.296353 36.0172 0.854742L29.6135 7.25848Z" fill="white"/>
<path d="M14.5 28.9997C14.5 22.2433 19.121 16.5662 25.375 14.9565V22.7196C23.208 23.9732 21.75 26.3162 21.75 28.9997C21.75 33.0038 24.9959 36.2497 29 36.2497C31.6835 36.2497 34.0265 34.7917 35.2801 32.6247H43.0432C41.4334 38.8787 35.7564 43.4999 29 43.4999C20.9919 43.4999 14.5 37.0079 14.5 28.9997Z" fill="white"/>
<path d="M50.75 7.25L47.125 0L36.25 10.875V16.6235L28.2493 24.6242L33.3758 29.7508L41.3765 21.75H47.125L58 10.875L50.75 7.25Z" fill="white"/>
</g>
<defs>
<clipPath id="clip0_1246_779">
<rect width="58" height="58" fill="white"/>
</clipPath>
</defs>
</svg>
