<svg width="42" height="52" viewBox="0 0 42 52" fill="none" xmlns="http://www.w3.org/2000/svg">
<path opacity="0.2" fill-rule="evenodd" clip-rule="evenodd" d="M32.3077 12.9706C30.5243 12.9706 29.0769 11.5179 29.0769 9.72794V3.24265L38.7692 12.9706H32.3077ZM30.6923 29.1838H11.3077C10.416 29.1838 9.69231 28.4591 9.69231 27.5625C9.69231 26.6675 10.416 25.9412 11.3077 25.9412H30.6923C31.584 25.9412 32.3077 26.6675 32.3077 27.5625C32.3077 28.4591 31.584 29.1838 30.6923 29.1838ZM30.6923 38.9118H11.3077C10.416 38.9118 9.69231 38.187 9.69231 37.2904C9.69231 36.3939 10.416 35.6691 11.3077 35.6691H30.6923C31.584 35.6691 32.3077 36.3939 32.3077 37.2904C32.3077 38.187 31.584 38.9118 30.6923 38.9118ZM29.0769 0.0453969C28.8702 0.0453969 6.46154 0 6.46154 0C2.89315 0 0 2.90379 0 6.48529V45.3971C0 48.9786 2.89315 51.8824 6.46154 51.8824H35.5385C39.1068 51.8824 42 48.9786 42 45.3971V12.9706L29.0769 0.0453969Z" fill="white"/>
</svg>
