<svg width="54" height="54" viewBox="0 0 54 54" fill="none" xmlns="http://www.w3.org/2000/svg">
<g opacity="0.2">
<path fill-rule="evenodd" clip-rule="evenodd" d="M47.25 10.125H42.1875L40.5 6.75C39.5061 4.78744 38.988 3.375 37.125 3.375H16.875C15.012 3.375 14.3944 4.98487 13.5 6.75L11.8125 10.125H6.75C3.02231 10.125 0 13.1473 0 16.875V43.875C0 47.6027 3.02231 50.625 6.75 50.625H47.25C50.9777 50.625 54 47.6027 54 43.875V16.875C54 13.1473 50.9777 10.125 47.25 10.125ZM27 43.875C19.5446 43.875 13.5 37.8304 13.5 30.375C13.5 22.9196 19.5446 16.875 27 16.875C34.4554 16.875 40.5 22.9196 40.5 30.375C40.5 37.8304 34.4554 43.875 27 43.875ZM27 20.25C21.4093 20.25 16.875 24.7843 16.875 30.375C16.875 35.9657 21.4093 40.5 27 40.5C32.5907 40.5 37.125 35.9657 37.125 30.375C37.125 24.7843 32.5907 20.25 27 20.25Z" fill="#FE4F74"/>
</g>
</svg>
