<svg width="62" height="51" viewBox="0 0 62 51" fill="none" xmlns="http://www.w3.org/2000/svg">
<path opacity="0.2" d="M29.0625 11.625H32.9375V15.5H29.0625V11.625ZM12.5938 11.625C12.059 11.625 11.625 12.059 11.625 12.5938C11.625 13.1285 12.059 13.5625 12.5938 13.5625C13.1285 13.5625 13.5625 13.1285 13.5625 12.5938C13.5625 12.059 13.1285 11.625 12.5938 11.625ZM41.6562 48.4375H38.75V44.5625H23.25V48.4375H20.3438C19.809 48.4375 19.375 48.8715 19.375 49.4062C19.375 49.941 19.809 50.375 20.3438 50.375H41.6562C42.191 50.375 42.625 49.941 42.625 49.4062C42.625 48.8715 42.191 48.4375 41.6562 48.4375ZM62 5.8125V36.8125C62 40.0229 59.3979 42.625 56.1875 42.625H5.8125C2.60206 42.625 0 40.0229 0 36.8125V5.8125C0 2.60206 2.60206 0 5.8125 0H56.1875C59.3979 0 62 2.60206 62 5.8125ZM52.2466 11.9621C52.0141 10.8539 51.1093 9.9665 49.9991 9.74562C48.484 9.44725 47.1413 10.3269 46.6802 11.625H34.875V9.6875H27.125V11.625H15.3217C14.8606 10.3269 13.516 9.44725 12.0028 9.74562C10.8926 9.96456 9.98781 10.8539 9.75531 11.9621C9.35812 13.8434 10.7822 15.5 12.5938 15.5C13.857 15.5 14.9226 14.6882 15.3217 13.5625H27.125V13.9965C18.6232 15.7344 12.1191 23.0214 11.6521 31.9106C11.6231 32.4667 12.0648 32.9375 12.6228 32.9375C13.1324 32.9375 13.5606 32.5423 13.5858 32.0327C13.9907 24.1568 19.6579 17.6758 27.125 15.9728V17.4375H34.875V15.9708C42.3421 17.6758 48.0093 24.1567 48.4143 32.0308C48.4414 32.5422 48.8676 32.9375 49.3772 32.9375C49.9352 32.9375 50.3769 32.4667 50.3479 31.9106C49.8809 23.0214 43.3768 15.7344 34.875 13.9965V13.5625H46.6782C47.0793 14.6882 48.143 15.5 49.4062 15.5C51.2178 15.5 52.6419 13.8434 52.2466 11.9621ZM49.4062 11.625C48.8715 11.625 48.4375 12.059 48.4375 12.5938C48.4375 13.1285 48.8715 13.5625 49.4062 13.5625C49.941 13.5625 50.375 13.1285 50.375 12.5938C50.375 12.059 49.941 11.625 49.4062 11.625Z" fill="#FE4F74"/>
</svg>
