<svg width="61" height="51" viewBox="0 0 61 51" fill="none" xmlns="http://www.w3.org/2000/svg">
<path d="M5.65156 31.0765C8.77566 31.0765 11.3008 28.5465 11.3008 25.425C11.3008 22.3045 8.77566 19.7733 5.65156 19.7733C2.53007 19.7732 0 22.3045 0 25.425C0 28.5465 2.53007 31.0765 5.65156 31.0765Z" fill="#FE4F74"/>
<path d="M5.64553 33.0041C2.60673 33.0041 0.126465 35.4678 0.126465 38.522V45.383H6.66442L10.883 36.7658C10.16 34.5673 8.09507 33.0041 5.64553 33.0041Z" fill="#FE4F74"/>
<path d="M14.897 20.2714C17.6944 20.2714 19.9582 18.0065 19.9582 15.2079C19.9582 12.4141 17.6944 10.1456 14.897 10.1456C12.1008 10.1456 9.83472 12.4141 9.83472 15.2079C9.83472 18.0065 12.1009 20.2714 14.897 20.2714Z" fill="#FE4F74"/>
<path d="M9.93994 32.0007V33.0918H12.6829L17.7003 22.8666C16.9039 22.3056 15.9443 21.9968 14.8969 21.9968C14.1892 21.9968 13.5101 22.1435 12.9055 22.4098C13.2889 23.3398 13.5101 24.3563 13.5101 25.4201C13.5101 28.1797 12.0936 30.5984 9.93994 32.0007Z" fill="#FE4F74"/>
<path d="M29.9031 10.4674C32.7005 10.4674 34.9654 8.20257 34.9654 5.40396C34.9654 2.61011 32.7005 0.341675 29.9031 0.341675C27.1069 0.341675 24.8408 2.61011 24.8408 5.40396C24.8408 8.20257 27.1069 10.4674 29.9031 10.4674Z" fill="#FE4F74"/>
<path d="M29.903 12.1891C27.1694 12.1891 24.9495 14.4068 24.9495 17.1438V19.2915H34.8564V17.1438C34.8565 14.4068 32.64 12.1891 29.903 12.1891Z" fill="#FE4F74"/>
<path d="M20.9864 21.1956L7.91528 47.868V50.6584H53.0846V47.868L40.0134 21.1956H20.9864Z" fill="#FE4F74"/>
<path d="M55.3483 31.0765C58.47 31.0765 60.9999 28.5465 60.9999 25.425C60.9999 22.3045 58.47 19.7733 55.3483 19.7733C52.2243 19.7733 49.699 22.3046 49.699 25.425C49.699 28.5465 52.2243 31.0765 55.3483 31.0765Z" fill="#FE4F74"/>
<path d="M55.3542 33.0041C52.9047 33.0041 50.8398 34.5673 50.1167 36.766L54.3353 45.3832H60.8733V38.5221C60.8733 35.4678 58.393 33.0041 55.3542 33.0041Z" fill="#FE4F74"/>
<path d="M46.1031 20.2714C48.8994 20.2714 51.1655 18.0065 51.1655 15.2079C51.1655 12.4141 48.8994 10.1456 46.1031 10.1456C43.3057 10.1456 41.042 12.4141 41.042 15.2079C41.042 18.0065 43.3057 20.2714 46.1031 20.2714Z" fill="#FE4F74"/>
<path d="M46.1028 21.9968C45.0557 21.9968 44.096 22.3056 43.2996 22.8666L48.3169 33.0918H51.06V32.0007C48.9062 30.5984 47.4899 28.1797 47.4899 25.4201C47.4899 24.3563 47.7111 23.3398 48.0945 22.4098C47.4897 22.1434 46.8105 21.9968 46.1028 21.9968Z" fill="#FE4F74"/>
</svg>
