<svg width="66" height="66" viewBox="0 0 66 66" fill="none" xmlns="http://www.w3.org/2000/svg">
<path opacity="0.2" d="M56.255 27.5C54.055 17.985 44.43 11 33.375 11C20.4775 11 10 20.24 10 31.625C10.0113 35.1607 11.0218 38.6213 12.915 41.6075L10.165 51.5075C10.0359 51.9974 10.0446 52.5134 10.1901 52.9987C10.3357 53.484 10.6125 53.9196 10.99 54.2575C11.4691 54.7073 12.0935 54.9708 12.75 55C13.1186 54.9993 13.4834 54.9245 13.8225 54.78L23.8875 50.49C26.915 51.6546 30.1312 52.2512 33.375 52.25C46.2725 52.25 56.75 43.01 56.75 31.625C56.7519 30.2351 56.5857 28.85 56.255 27.5Z" fill="white"/>
</svg>
