<svg width="60" height="60" viewBox="0 0 60 60" fill="none" xmlns="http://www.w3.org/2000/svg">
  <path opacity="0.2" d="M59.25 4V13.75H0.75V4C0.75 3.13805 1.09241 2.3114 1.7019 1.7019C2.3114 1.09241 3.13805 0.75 4 0.75H56C56.862 0.75 57.6886 1.09241 58.2981 1.7019C58.9076 2.3114 59.25 3.13805 59.25 4ZM0.75 20.25H59.25V56C59.25 56.862 58.9076 57.6886 58.2981 58.2981C57.6886 58.9076 56.862 59.25 56 59.25H4C3.47543 59.2395 2.9617 59.0988 2.505 58.8405L14.1627 47.1828L21.6962 52.204C22.3215 52.6209 23.0718 52.8083 23.8196 52.7342C24.5674 52.6601 25.2665 52.3292 25.7977 51.7978L32.2977 45.2978C32.8898 44.6848 33.2173 43.8638 33.2099 43.0117C33.2025 42.1596 32.8607 41.3444 32.2582 40.7418C31.6556 40.1393 30.8404 39.7975 29.9883 39.7901C29.1362 39.7827 28.3152 40.1102 27.7023 40.7023L23.0872 45.3172L15.5537 40.296C14.9285 39.8791 14.1782 39.6917 13.4304 39.7658C12.6826 39.8399 11.9835 40.1708 11.4523 40.7023L0.75 51.4045V20.25ZM37.4523 35.5477C38.0617 36.157 38.8882 36.4993 39.75 36.4993C40.6118 36.4993 41.4383 36.157 42.0477 35.5477L45.2978 32.2977C45.8898 31.6848 46.2173 30.8638 46.2099 30.0117C46.2025 29.1596 45.8607 28.3444 45.2582 27.7418C44.6556 27.1393 43.8404 26.7975 42.9883 26.7901C42.1362 26.7827 41.3152 27.1102 40.7023 27.7023L37.4523 30.9523C36.843 31.5617 36.5007 32.3882 36.5007 33.25C36.5007 34.1118 36.843 34.9383 37.4523 35.5477Z" fill="white" />
</svg>