<svg width="78" height="78" viewBox="0 0 78 78" fill="none" xmlns="http://www.w3.org/2000/svg">
<g opacity="0.2">
<path d="M68.25 13V22.75H9.75V13C9.75 12.138 10.0924 11.3114 10.7019 10.7019C11.3114 10.0924 12.138 9.75 13 9.75H65C65.862 9.75 66.6886 10.0924 67.2981 10.7019C67.9076 11.3114 68.25 12.138 68.25 13ZM9.75 29.25H68.25V65C68.25 65.862 67.9076 66.6886 67.2981 67.2981C66.6886 67.9076 65.862 68.25 65 68.25H13C12.4754 68.2395 11.9617 68.0988 11.505 67.8405L23.1627 56.1828L30.6962 61.204C31.3215 61.6209 32.0718 61.8083 32.8196 61.7342C33.5674 61.6601 34.2665 61.3292 34.7977 60.7978L41.2977 54.2978C41.8898 53.6848 42.2173 52.8638 42.2099 52.0117C42.2025 51.1596 41.8607 50.3444 41.2582 49.7418C40.6556 49.1393 39.8404 48.7975 38.9883 48.7901C38.1362 48.7827 37.3152 49.1102 36.7023 49.7023L32.0872 54.3172L24.5537 49.296C23.9285 48.8791 23.1782 48.6917 22.4304 48.7658C21.6826 48.8399 20.9835 49.1708 20.4523 49.7023L9.75 60.4045V29.25ZM46.4523 44.5477C47.0617 45.157 47.8882 45.4993 48.75 45.4993C49.6118 45.4993 50.4383 45.157 51.0477 44.5477L54.2978 41.2977C54.8898 40.6848 55.2173 39.8638 55.2099 39.0117C55.2025 38.1596 54.8607 37.3444 54.2582 36.7418C53.6556 36.1393 52.8404 35.7975 51.9883 35.7901C51.1362 35.7827 50.3152 36.1102 49.7023 36.7023L46.4523 39.9523C45.843 40.5617 45.5007 41.3882 45.5007 42.25C45.5007 43.1118 45.843 43.9383 46.4523 44.5477Z" fill="white"/>
</g>
</svg>
