<svg width="74" height="66" viewBox="0 0 74 66" fill="none" xmlns="http://www.w3.org/2000/svg">
<path opacity="0.2" d="M56.5 0C50.6446 0 45.461 2.87561 42.2842 7.29167C41.7348 8.05546 41.2454 8.86533 40.8229 9.71438C39.6561 12.0593 39 14.703 39 17.5C39 21.3097 40.2173 24.8351 42.2842 27.7083C45.461 32.1244 50.6446 35 56.5 35C66.1651 35 74 27.1651 74 17.5C74 7.8349 66.1651 0 56.5 0ZM63.2302 19.744C63.2302 19.744 64.7779 21.2716 65.1589 21.9807C65.1698 21.9953 65.1753 22.0099 65.1789 22.0172C65.3339 22.2779 65.3703 22.4802 65.2938 22.6315C65.1661 22.8831 64.7286 23.007 64.5792 23.018H61.8448C61.6552 23.018 61.2578 22.9688 60.7766 22.637C60.4065 22.3781 60.0419 21.9534 59.6865 21.5396C59.156 20.9234 58.6966 20.3911 58.2336 20.3911C58.1748 20.391 58.1163 20.4003 58.0604 20.4185C57.7104 20.5315 57.262 21.031 57.262 22.3617C57.262 22.7773 56.9339 23.0161 56.7023 23.0161H55.45C55.0234 23.0161 52.8013 22.8667 50.8326 20.7904C48.4227 18.2474 46.2534 13.1469 46.2352 13.0995C46.0984 12.7695 46.381 12.5927 46.6891 12.5927H49.4508C49.819 12.5927 49.9393 12.8169 50.0232 13.0156C50.1216 13.2471 50.4826 14.1677 51.075 15.2031C52.0357 16.8911 52.6245 17.5766 53.0966 17.5766C53.1851 17.5755 53.2721 17.553 53.35 17.5109C53.9661 17.1682 53.8513 14.9716 53.824 14.5159C53.824 14.4302 53.8221 13.5333 53.5068 13.1031C53.2807 12.7914 52.8961 12.6729 52.6628 12.6292C52.7572 12.4988 52.8816 12.3932 53.0255 12.3211C53.4484 12.1096 54.2104 12.0786 54.9669 12.0786H55.388C56.2083 12.0896 56.4198 12.1424 56.7169 12.2172C57.3185 12.3612 57.3313 12.7495 57.2784 14.0784C57.262 14.4557 57.2456 14.8823 57.2456 15.3854C57.2456 15.4948 57.2401 15.6115 57.2401 15.7354C57.2219 16.4117 57.2 17.1792 57.6776 17.4945C57.7399 17.5336 57.8119 17.5544 57.8854 17.5547C58.0513 17.5547 58.5508 17.5547 59.9034 15.2341C60.3205 14.4872 60.683 13.711 60.988 12.9117C61.0154 12.8643 61.0956 12.7185 61.1904 12.662C61.2603 12.6263 61.3379 12.6082 61.4164 12.6091H64.663C65.0167 12.6091 65.2591 12.662 65.3047 12.7987C65.3849 13.0156 65.2901 13.6773 63.8081 15.6844L63.1464 16.5576C61.8029 18.3185 61.8029 18.4078 63.2302 19.744Z" fill="white"/>
<path opacity="0.2" fill-rule="evenodd" clip-rule="evenodd" d="M45.5226 56.8877C45.149 57.9451 43.6641 58.8199 42.4799 59.0757C41.6693 59.2478 40.6121 59.384 37.0502 57.9079C33.0497 56.2505 27.4945 50.3465 27.4945 46.4176C27.4945 44.4175 28.6477 42.0885 30.6643 42.0885C31.6346 42.0885 31.8485 42.1074 32.1678 42.8734C32.5413 43.7757 33.4527 45.999 33.5612 46.2269C34.0092 47.1618 33.1055 47.7091 32.4498 48.5231C32.2406 48.7681 32.0035 49.033 32.2685 49.4889C32.532 49.9354 33.4434 51.4208 34.7826 52.6131C36.5124 54.1543 37.9151 54.6463 38.4173 54.8556C38.7909 55.0106 39.2373 54.9745 39.5101 54.683C39.8558 54.3094 40.2851 53.6894 40.7222 53.0785C41.0306 52.6413 41.4228 52.5867 41.8336 52.7417C42.111 52.8379 45.6372 54.4755 45.786 54.7375C45.8961 54.9282 45.8961 55.8303 45.5226 56.8877ZM36.5031 35H36.4953C27.9502 35 21 41.9523 21 50.5C21 53.8893 22.0928 57.0338 23.9512 59.5843L22.0199 65.3438L27.9766 63.4404C30.4271 65.0622 33.3519 66 36.5031 66C45.0482 66 52 59.0477 52 50.5C52 41.9523 45.0482 35 36.5031 35Z" fill="white"/>
<path opacity="0.2" d="M17.5 0C14.0389 0 10.6554 1.02635 7.77752 2.94927C4.89967 4.87219 2.65665 7.60532 1.33212 10.803C0.00758959 14.0006 -0.338977 17.5195 0.336261 20.914C1.0115 24.3088 2.67822 27.4268 5.12564 29.8744C7.57306 32.3218 10.6913 33.9885 14.086 34.6637C17.4805 35.339 20.9993 34.9923 24.197 33.6678C27.3947 32.3433 30.1278 30.1004 32.0508 27.2225C33.9736 24.3447 35 20.9613 35 17.5C35 12.8587 33.1562 8.40752 29.8745 5.12564C26.5926 1.84373 22.1412 0 17.5 0ZM26.0969 11.9875L23.2313 25.5281C23.0125 26.4906 22.4438 26.7093 21.6344 26.2719L17.2594 23.0344L15.0719 25.0687C14.9688 25.2033 14.8365 25.3126 14.6849 25.3885C14.5333 25.4642 14.3664 25.5045 14.1969 25.5062L14.5031 21.1312L22.5969 13.8031C22.9688 13.4969 22.5969 13.3219 22.0719 13.6281L12.1406 19.8625L7.76562 18.5062C6.825 18.2219 6.80312 17.5656 7.9625 17.1281L24.8281 10.5656C25.6594 10.325 26.3594 10.8062 26.0969 11.9875Z" fill="white"/>
</svg>
