<svg width="98" height="98" viewBox="0 0 98 98" fill="none" xmlns="http://www.w3.org/2000/svg">
<g opacity="0.2">
<path d="M46.8331 60.8268C47.0784 60.8258 47.3152 60.9169 47.4967 61.082C47.6781 61.2471 47.791 61.4743 47.8131 61.7186V75.8012C47.7998 76.5551 47.5029 77.2763 46.9817 77.8212C46.4604 78.366 45.7531 78.6945 45.0005 78.7412H24.9203C24.1648 78.7277 23.4423 78.4295 22.8972 77.9062C22.3521 77.3829 22.0246 76.6731 21.9803 75.9188V61.8264C21.9793 61.5811 22.0704 61.3443 22.2355 61.1628C22.4006 60.9814 22.6278 60.8685 22.8721 60.8464H46.8821L46.8331 60.8268ZM75.7529 60.8268C75.9982 60.8258 76.235 60.9169 76.4165 61.082C76.5979 61.2471 76.7108 61.4743 76.7329 61.7186V75.8012C76.7196 76.5551 76.4227 77.2763 75.9015 77.8212C75.3802 78.366 74.6729 78.6945 73.9203 78.7412H53.8401C53.0846 78.7277 52.3621 78.4295 51.817 77.9062C51.2719 77.3829 50.9444 76.6731 50.9001 75.9188V61.8264C50.8991 61.5811 50.9902 61.3443 51.1553 61.1628C51.3204 60.9814 51.5476 60.8685 51.7919 60.8464H75.8019L75.7529 60.8268ZM39.1401 64.9722L39.0519 65.08L33.3483 71.2736L30.7709 68.7746C30.6439 68.6466 30.4752 68.5683 30.2954 68.5539C30.1157 68.5395 29.9367 68.59 29.7909 68.6962L29.7027 68.7746L28.6345 69.7546C28.57 69.8066 28.5167 69.8712 28.4781 69.9445C28.4394 70.0178 28.4162 70.0982 28.4097 70.1808C28.4033 70.2634 28.4139 70.3465 28.4407 70.4248C28.4676 70.5032 28.5102 70.5753 28.5659 70.6366L28.6345 70.715L32.2899 74.1842C32.5721 74.4629 32.9517 74.6211 33.3483 74.6252C33.5475 74.6319 33.7458 74.596 33.93 74.5199C34.1142 74.4439 34.2801 74.3294 34.4165 74.1842L37.4937 70.9306L38.1111 70.274L41.1883 67.0302C41.2883 66.9074 41.3476 66.7566 41.3581 66.5986C41.3687 66.4406 41.3299 66.2832 41.2471 66.1482L41.1883 66.0698L40.1201 65.0898C39.9993 64.954 39.8329 64.867 39.6524 64.8454C39.4719 64.8237 39.2897 64.8688 39.1401 64.9722ZM68.0599 64.9722L67.9619 65.08L62.2583 71.2736L59.6711 68.7746C59.5463 68.6428 59.3771 68.5619 59.1961 68.5474C59.0152 68.533 58.8353 68.586 58.6911 68.6962L58.6029 68.7746L57.5347 69.7546C57.4702 69.8066 57.4169 69.8712 57.3783 69.9445C57.3396 70.0178 57.3164 70.0982 57.3099 70.1808C57.3035 70.2634 57.3141 70.3465 57.3409 70.4248C57.3678 70.5032 57.4104 70.5753 57.4661 70.6366L57.5347 70.715L61.1901 74.1842C61.4712 74.4647 61.8514 74.6232 62.2485 74.6252C62.4477 74.6319 62.646 74.596 62.8302 74.5199C63.0144 74.4439 63.1803 74.3294 63.3167 74.1842L66.3939 70.9306L67.0113 70.274L70.0885 67.0302C70.1885 66.9074 70.2478 66.7566 70.2583 66.5986C70.2689 66.4406 70.2301 66.2832 70.1473 66.1482L70.0885 66.0698L69.0399 65.08C68.9178 64.9457 68.7508 64.8606 68.5703 64.8407C68.3898 64.8209 68.2083 64.8676 68.0599 64.9722ZM45.0985 50.8504C45.831 50.8864 46.5235 51.1949 47.0403 51.7152C47.557 52.2356 47.8606 52.9303 47.8915 53.663V56.8382C47.8945 57.0731 47.8131 57.3013 47.662 57.4811C47.5109 57.661 47.3002 57.7806 47.0683 57.8182H20.9219C20.6884 57.8053 20.4672 57.7093 20.2982 57.5476C20.1293 57.3858 20.0237 57.169 20.0007 56.9362V53.8394C19.9845 53.1012 20.2466 52.3838 20.7351 51.83C21.2235 51.2762 21.9024 50.9265 22.6369 50.8504H45.1769H45.0985ZM75.9489 50.8504C76.6814 50.8864 77.3739 51.1949 77.8907 51.7152C78.4074 52.2356 78.711 52.9303 78.7419 53.663V56.8382C78.7449 57.0731 78.6635 57.3013 78.5124 57.4811C78.3613 57.661 78.1506 57.7806 77.9187 57.8182H51.7233C51.4795 57.8194 51.244 57.7297 51.0628 57.5666C50.8816 57.4036 50.7677 57.1788 50.7433 56.9362V53.8394C50.7268 53.1027 50.9876 52.3867 51.474 51.8331C51.9604 51.2795 52.637 50.9288 53.3697 50.8504H75.9097H75.9489ZM61.2489 29.9862C61.4942 29.9852 61.731 30.0763 61.9125 30.2414C62.0939 30.4065 62.2068 30.6337 62.2289 30.878V44.9606C62.2279 45.723 61.9365 46.4564 61.414 47.0116C60.8916 47.5669 60.1772 47.9023 59.4163 47.9496H39.3851C38.6227 47.9486 37.8893 47.6572 37.3341 47.1347C36.7788 46.6123 36.4435 45.8979 36.3961 45.137V30.9858C36.3949 30.742 36.4846 30.5065 36.6477 30.3253C36.8108 30.1441 37.0355 30.0302 37.2781 30.0058H61.2979L61.2489 29.9862ZM53.5559 34.1218L53.4677 34.2002L47.7641 40.3938L45.2259 37.885C45.0987 37.7566 44.9291 37.6788 44.7488 37.6662C44.5685 37.6536 44.3898 37.707 44.2459 37.8164L44.1577 37.885L43.0993 38.865C43.0335 38.9161 42.9791 38.9803 42.9396 39.0537C42.9001 39.127 42.8764 39.2078 42.8699 39.2908C42.8635 39.3739 42.8744 39.4573 42.9021 39.5359C42.9298 39.6145 42.9736 39.6864 43.0307 39.747L43.0993 39.8254L46.7449 43.2848C47.0296 43.5659 47.4131 43.7242 47.8131 43.7258C48.0106 43.7311 48.2071 43.6945 48.3895 43.6185C48.5719 43.5425 48.7362 43.4288 48.8715 43.2848L51.9487 40.041L52.5759 39.3844L55.6433 36.1308C55.7433 36.008 55.8026 35.8572 55.8131 35.6992C55.8237 35.5412 55.7849 35.3838 55.7021 35.2488L55.6433 35.1802L54.5849 34.2002C54.4579 34.0722 54.2892 33.9939 54.1094 33.9795C53.9297 33.9651 53.7507 34.0156 53.6049 34.1218H53.5559ZM61.2979 20C62.0534 20.0135 62.7759 20.3117 63.321 20.835C63.8661 21.3583 64.1936 22.0681 64.2379 22.8224V25.9878C64.2389 26.2331 64.1478 26.4699 63.9827 26.6514C63.8176 26.8328 63.5904 26.9457 63.3461 26.9678H35.3965C35.1512 26.9688 34.9144 26.8777 34.733 26.7126C34.5515 26.5475 34.4386 26.3203 34.4165 26.076V22.9988C34.4298 22.2449 34.7267 21.5237 35.2479 20.9788C35.7692 20.434 36.4765 20.1055 37.2291 20.0588H61.2979V20Z" fill="#FE4F74"/>
</g>
</svg>
