<svg width="60" height="60" viewBox="0 0 60 60" fill="none" xmlns="http://www.w3.org/2000/svg">
  <path opacity="0.2" d="M27.4913 41.4269C27.7366 41.4259 27.9734 41.517 28.1549 41.6821C28.3363 41.8472 28.4492 42.0744 28.4713 42.3187V56.4013C28.458 57.1552 28.1611 57.8764 27.6399 58.4213C27.1186 58.9661 26.4113 59.2946 25.6587 59.3413H5.57851C4.82302 59.3278 4.10048 59.0296 3.55539 58.5063C3.0103 57.983 2.68284 57.2732 2.63852 56.5189V42.4265C2.63752 42.1812 2.72858 41.9444 2.89369 41.7629C3.05881 41.5815 3.28598 41.4686 3.53032 41.4465H27.5403L27.4913 41.4269ZM56.4111 41.4269C56.6564 41.4259 56.8932 41.517 57.0747 41.6821C57.2561 41.8472 57.369 42.0744 57.3911 42.3187V56.4013C57.3778 57.1552 57.0809 57.8764 56.5597 58.4213C56.0384 58.9661 55.3311 59.2946 54.5785 59.3413H34.4983C33.7428 59.3278 33.0203 59.0296 32.4752 58.5063C31.9301 57.983 31.6026 57.2732 31.5583 56.5189V42.4265C31.5573 42.1812 31.6484 41.9444 31.8135 41.7629C31.9786 41.5815 32.2058 41.4686 32.4501 41.4465H56.4601L56.4111 41.4269ZM19.7983 45.5723L19.7101 45.6801L14.0065 51.8737L11.4291 49.3747C11.3021 49.2467 11.1334 49.1684 10.9536 49.154C10.7739 49.1396 10.5949 49.1901 10.4491 49.2963L10.3609 49.3747L9.29272 50.3547C9.22817 50.4067 9.17493 50.4713 9.13628 50.5446C9.09763 50.6179 9.07437 50.6983 9.06795 50.7809C9.06152 50.8635 9.07206 50.9465 9.09892 51.0249C9.12578 51.1033 9.16838 51.1754 9.22411 51.2367L9.29272 51.3151L12.9481 54.7843C13.2303 55.063 13.6099 55.2212 14.0065 55.2253C14.2057 55.232 14.404 55.1961 14.5882 55.12C14.7724 55.044 14.9383 54.9295 15.0747 54.7843L18.1519 51.5307L18.7693 50.8741L21.8465 47.6303C21.9465 47.5075 22.0058 47.3567 22.0163 47.1987C22.0269 47.0407 21.9881 46.8833 21.9053 46.7483L21.8465 46.6699L20.7783 45.6899C20.6575 45.5541 20.4911 45.4671 20.3106 45.4455C20.1301 45.4238 19.9479 45.4689 19.7983 45.5723ZM48.7181 45.5723L48.6201 45.6801L42.9165 51.8737L40.3293 49.3747C40.2045 49.2429 40.0353 49.162 39.8543 49.1475C39.6734 49.1331 39.4935 49.1861 39.3493 49.2963L39.2611 49.3747L38.1929 50.3547C38.1284 50.4067 38.0751 50.4713 38.0365 50.5446C37.9978 50.6179 37.9746 50.6983 37.9681 50.7809C37.9617 50.8635 37.9723 50.9465 37.9991 51.0249C38.026 51.1033 38.0686 51.1754 38.1243 51.2367L38.1929 51.3151L41.8483 54.7843C42.1294 55.0648 42.5096 55.2233 42.9067 55.2253C43.1059 55.232 43.3042 55.1961 43.4884 55.12C43.6726 55.044 43.8385 54.9295 43.9749 54.7843L47.0521 51.5307L47.6695 50.8741L50.7467 47.6303C50.8467 47.5075 50.906 47.3567 50.9165 47.1987C50.9271 47.0407 50.8883 46.8833 50.8055 46.7483L50.7467 46.6699L49.6981 45.6801C49.576 45.5458 49.409 45.4607 49.2285 45.4408C49.048 45.421 48.8665 45.4677 48.7181 45.5723ZM25.7567 31.4505C26.4892 31.4865 27.1817 31.795 27.6985 32.3153C28.2152 32.8357 28.5188 33.5304 28.5497 34.2631V37.4383C28.5527 37.6732 28.4713 37.9014 28.3202 38.0812C28.1691 38.2611 27.9584 38.3807 27.7265 38.4183H1.58012C1.34658 38.4054 1.12535 38.3094 0.956412 38.1477C0.787469 37.9859 0.681949 37.7691 0.658915 37.5363V34.4395C0.642674 33.7013 0.904827 32.9839 1.39326 32.4301C1.88169 31.8763 2.56063 31.5266 3.29512 31.4505H25.8351H25.7567ZM56.6071 31.4505C57.3396 31.4865 58.0321 31.795 58.5489 32.3153C59.0656 32.8357 59.3692 33.5304 59.4001 34.2631V37.4383C59.4031 37.6732 59.3217 37.9014 59.1706 38.0812C59.0195 38.2611 58.8088 38.3807 58.5769 38.4183H32.3815C32.1377 38.4195 31.9022 38.3298 31.721 38.1667C31.5398 38.0037 31.4259 37.7789 31.4015 37.5363V34.4395C31.385 33.7028 31.6458 32.9868 32.1322 32.4332C32.6186 31.8796 33.2952 31.5289 34.0279 31.4505H56.5679H56.6071ZM41.9071 10.5863C42.1524 10.5853 42.3892 10.6764 42.5707 10.8415C42.7521 11.0066 42.865 11.2338 42.8871 11.4781V25.5607C42.8861 26.3231 42.5947 27.0565 42.0723 27.6117C41.5498 28.167 40.8354 28.5024 40.0745 28.5497H20.0433C19.2809 28.5487 18.5475 28.2573 17.9923 27.7348C17.437 27.2124 17.1017 26.498 17.0543 25.7371V11.5859C17.0531 11.3421 17.1428 11.1066 17.3059 10.9254C17.469 10.7442 17.6937 10.6303 17.9363 10.6059H41.9561L41.9071 10.5863ZM34.2141 14.7219L34.1259 14.8003L28.4223 20.9939L25.8841 18.4851C25.7569 18.3567 25.5873 18.2789 25.407 18.2663C25.2267 18.2537 25.048 18.3071 24.9041 18.4165L24.8159 18.4851L23.7575 19.4651C23.6917 19.5162 23.6373 19.5804 23.5978 19.6538C23.5583 19.7271 23.5346 19.8079 23.5281 19.8909C23.5217 19.974 23.5326 20.0574 23.5603 20.136C23.588 20.2146 23.6318 20.2865 23.6889 20.3471L23.7575 20.4255L27.4031 23.8849C27.6878 24.166 28.0713 24.3243 28.4713 24.3259C28.6688 24.3312 28.8653 24.2946 29.0477 24.2186C29.2301 24.1426 29.3944 24.0289 29.5297 23.8849L32.6069 20.6411L33.2341 19.9845L36.3015 16.7309C36.4015 16.6081 36.4608 16.4573 36.4713 16.2993C36.4819 16.1413 36.4431 15.9839 36.3603 15.8489L36.3015 15.7803L35.2431 14.8003C35.1161 14.6723 34.9474 14.594 34.7676 14.5796C34.5879 14.5652 34.4089 14.6157 34.2631 14.7219H34.2141ZM41.9561 0.600098C42.7116 0.613612 43.4342 0.911835 43.9792 1.43512C44.5243 1.95841 44.8518 2.66818 44.8961 3.4225V6.5879C44.8971 6.83323 44.806 7.07001 44.6409 7.25145C44.4758 7.4329 44.2486 7.54582 44.0043 7.5679H16.0547C15.8094 7.56889 15.5726 7.47784 15.3912 7.31272C15.2097 7.1476 15.0968 6.92043 15.0747 6.6761V3.5989C15.0881 2.84499 15.3849 2.12379 15.9061 1.57894C16.4274 1.03409 17.1347 0.705597 17.8873 0.658897H41.9561V0.600098Z" fill="white" />
</svg>