<svg width="62" height="62" viewBox="0 0 62 62" fill="none" xmlns="http://www.w3.org/2000/svg">
<g opacity="0.2">
<g clip-path="url(#clip0_1246_800)">
<path fill-rule="evenodd" clip-rule="evenodd" d="M0 0V62H62V0H0ZM52.4362 13.719L45.1518 48.7573C44.9803 49.5846 44.0102 49.9595 43.3257 49.4621L33.3819 42.2427C32.7782 41.8044 31.9551 41.8277 31.3772 42.2989L25.8639 46.793C25.2242 47.3162 24.26 47.0246 24.015 46.2366L20.1868 33.925L10.2964 30.2338C9.29169 29.8574 9.2831 28.4391 10.2849 28.0532L50.8754 12.3944C51.7359 12.0617 52.6237 12.8155 52.4362 13.719Z" fill="white"/>
<path fill-rule="evenodd" clip-rule="evenodd" d="M41.2547 20.0539L21.9252 31.9589C21.1843 32.416 20.8356 33.3107 21.0746 34.1483L23.1645 41.4917C23.3132 42.012 24.0681 41.9588 24.1404 41.4213L24.6836 37.3943C24.7862 36.6361 25.1477 35.9372 25.7086 35.4155L41.6608 20.587C41.9595 20.3104 41.6019 19.8407 41.2547 20.0539Z" fill="white"/>
</g>
</g>
<defs>
<clipPath id="clip0_1246_800">
<rect width="62" height="62" rx="15" fill="white"/>
</clipPath>
</defs>
</svg>
