<svg width="82" height="82" viewBox="0 0 82 82" fill="none" xmlns="http://www.w3.org/2000/svg">
<g opacity="0.2">
<path d="M16.2266 51.9503L16.4257 52.5125C16.4002 52.4482 16.3273 52.2515 16.2266 51.9503ZM24.1072 39.2089C24.4569 36.1878 25.6445 34.4963 27.8824 32.7623C31.0844 30.4139 35.0843 31.7424 35.0843 31.7424V23.8617C36.0566 23.8358 37.0294 23.8959 37.9912 24.0414V34.1831C37.9912 34.1831 33.9926 32.8546 30.7906 35.2043C28.5539 36.937 27.3639 38.6297 27.0154 41.6508C27.0045 43.2913 27.2995 45.4357 28.6583 47.2899C28.3224 47.1102 27.9799 46.9054 27.631 46.6755C24.6378 44.5785 24.0926 41.4323 24.1072 39.2089ZM54.5066 9.29041C52.3039 6.77201 51.4709 4.22931 51.1698 2.44312H53.9407C53.9407 2.44312 53.3882 7.12657 57.4148 11.7323L57.4706 11.7942C56.3854 11.082 55.3902 10.2413 54.5066 9.29041ZM67.8551 16.4304V26.368C67.8551 26.368 64.3191 26.2235 61.7024 25.5289C58.0486 24.5575 55.7002 23.0676 55.7002 23.0676C55.7002 23.0676 54.0779 22.0051 53.9468 21.931V42.4523C53.9468 43.5949 53.6469 46.4484 52.7325 48.8284C51.5389 51.9418 49.6968 53.9855 49.3581 54.4032C49.3581 54.4032 47.1177 57.1656 43.1653 59.0259C39.6026 60.704 36.4746 60.6615 35.5396 60.704C35.5396 60.704 30.1324 60.9275 25.2668 57.6283C24.2147 56.9011 23.2325 56.0775 22.3332 55.1682L22.3574 55.1864C27.2243 58.4855 32.6302 58.2621 32.6302 58.2621C33.5664 58.2196 36.6944 58.2621 40.2559 56.584C44.2047 54.7237 46.4487 51.9613 46.4487 51.9613C46.7838 51.5435 48.6343 49.4999 49.8231 46.3853C50.735 44.0065 51.0374 41.1518 51.0374 40.0091V19.4903C51.1685 19.5656 52.7896 20.6281 52.7896 20.6281C52.7896 20.6281 55.1392 22.1192 58.793 23.0894C61.4109 23.784 64.9457 23.9285 64.9457 23.9285V16.1414C66.1551 16.4243 67.186 16.5008 67.8551 16.4304Z" fill="#FE4F74"/>
<path d="M64.9467 16.1414V23.9261C64.9467 23.9261 61.412 23.7816 58.794 23.087C55.1402 22.1156 52.7906 20.6257 52.7906 20.6257C52.7906 20.6257 51.1695 19.5632 51.0384 19.4879V40.0116C51.0384 41.1542 50.7385 44.009 49.8241 46.3877C48.6305 49.5024 46.7884 51.546 46.4497 51.9637C46.4497 51.9637 44.2081 54.7262 40.2569 56.5864C36.6954 58.2646 33.5674 58.2221 32.6312 58.2646C32.6312 58.2646 27.2253 58.488 22.3584 55.1888L22.3342 55.1706C21.8203 54.6515 21.3367 54.1033 20.8855 53.5289C19.3325 51.5533 18.3805 49.217 18.1413 48.5504C18.1408 48.5475 18.1408 48.5447 18.1413 48.5419C17.7563 47.3834 16.9476 44.6015 17.0581 41.9071C17.2536 37.1532 18.8565 34.2353 19.2802 33.5043C20.4026 31.5109 21.8624 29.7274 23.5946 28.2331C25.1231 26.9437 26.8557 25.9178 28.7212 25.1974C30.7379 24.3516 32.8975 23.8983 35.084 23.8617V31.7424C35.084 31.7424 31.0842 30.4188 27.8834 32.7624C25.6455 34.4963 24.4579 36.1878 24.1082 39.2089C24.0936 41.4323 24.6388 44.5785 27.6296 46.6767C27.9785 46.9074 28.3209 47.1123 28.6569 47.2912C29.1794 47.9998 29.8153 48.6173 30.539 49.1186C33.4606 51.0481 35.9085 51.1829 39.0389 49.9298C41.1263 49.0919 42.6975 47.2037 43.4261 45.1115C43.8839 43.805 43.8778 42.4899 43.8778 41.1299V2.44312H51.1635C51.4646 4.22931 52.2976 6.77201 54.5003 9.29041C55.3839 10.2413 56.3791 11.082 57.4643 11.7942C57.7849 12.1403 59.4242 13.8512 61.5285 14.9016C62.6166 15.4445 63.7636 15.8605 64.9467 16.1414Z" fill="#FE4F74"/>
<path d="M15.2417 46.1304V46.1364L15.4214 46.6476C15.4008 46.5882 15.334 46.4072 15.2417 46.1304Z" fill="#FE4F74"/>
<path d="M28.7212 25.1974C26.8557 25.9178 25.1231 26.9437 23.5945 28.2331C21.8618 29.7307 20.4024 31.518 19.2814 33.5152C18.8576 34.2438 17.2548 37.1641 17.0593 41.918C16.9488 44.6125 17.7575 47.3944 18.1424 48.5528C18.142 48.5556 18.142 48.5585 18.1424 48.5613C18.3853 49.2219 19.3336 51.5581 20.8867 53.5398C21.3378 54.1143 21.8215 54.6624 22.3353 55.1815C20.689 54.0429 19.2207 52.6663 17.9785 51.0967C16.4388 49.1381 15.4892 46.8261 15.2415 46.1437C15.2412 46.1388 15.2412 46.134 15.2415 46.1291V46.1206C14.8554 44.9634 14.0442 42.1803 14.1572 39.4822C14.3527 34.7283 15.9555 31.8104 16.3793 31.0794C17.4999 29.082 18.9594 27.2946 20.6924 25.7973C22.2206 24.5074 23.9533 23.4815 25.8191 22.7616C26.9828 22.2787 28.1952 21.9225 29.4352 21.6991C31.3039 21.3729 33.2125 21.3446 35.0901 21.6153V23.8617C32.9014 23.8975 30.7398 24.3509 28.7212 25.1974Z" fill="#FE4F74"/>
<path d="M51.1696 2.44312H43.884V41.1311C43.884 42.4911 43.884 43.8026 43.4323 45.1128C42.6964 47.2037 41.1312 49.0919 39.0451 49.9298C35.9135 51.1878 33.4655 51.0481 30.5452 49.1186C29.8202 48.6195 29.1827 48.0041 28.6582 47.2972C31.1463 48.6244 33.3732 48.6014 36.1321 47.4939C38.217 46.6561 39.7846 44.7679 40.518 42.6757C40.977 41.3691 40.971 40.0541 40.971 38.6953V0H51.0312C51.0312 0 50.9183 0.961706 51.1696 2.44312ZM64.9468 13.9885V16.1414C63.7657 15.8601 62.6209 15.4441 61.5347 14.9016C59.4304 13.8512 57.7911 12.1403 57.4705 11.7943C57.8425 12.0385 58.2285 12.2607 58.6265 12.4597C61.185 13.7371 63.7046 14.1184 64.9468 13.9885Z" fill="#FE4F74"/>
</g>
</svg>
