<svg width="58" height="58" viewBox="0 0 58 58" fill="none" xmlns="http://www.w3.org/2000/svg">
<g opacity="0.2" clip-path="url(#clip0_1241_532)">
<path d="M57.0938 17.3125C57.0938 8.81731 50.1827 1.90625 41.6875 1.90625C33.1923 1.90625 26.2812 8.81731 26.2812 17.3125C26.2812 18.6963 26.4752 20.0602 26.8359 21.3807C22.6254 23.4596 17.9637 24.5625 13.1823 24.5625H7.25C6.07006 24.5625 5.07319 25.3228 4.698 26.375H3.625C2.12606 26.375 0.90625 27.5948 0.90625 29.0938V34.5312C0.90625 36.0302 2.12606 37.25 3.625 37.25H4.698C5.07319 38.3022 6.07006 39.0625 7.25 39.0625H10.8813L8.20881 54.0936C8.17437 54.2902 8.15625 54.4887 8.15625 54.689C8.15625 56.5658 9.68419 58.0938 11.561 58.0938H14.1756C15.863 58.0938 17.2777 56.8839 17.5387 55.2173L18.3679 49.9375H20.8438C21.8433 49.9375 22.6562 49.1246 22.6562 48.125V46.3125C22.6562 45.3129 21.8433 44.5 20.8438 44.5H19.2207L19.9556 39.8174C25.0823 40.9683 29.8618 43.4143 33.8321 46.9858L34.0895 47.2188H38.9688V38.0837C41.8243 37.6723 44.0737 35.3587 44.3718 32.4677C51.6735 31.1836 57.0938 24.809 57.0938 17.3125ZM55.0094 18.2885C53.7325 18.4453 52.5199 18.245 51.5031 17.7158C50.7636 17.3315 49.9317 17.2192 49.0961 17.3877C47.6697 17.6759 46.5368 18.8368 46.2786 20.2741C46.1635 20.9085 46.216 21.5583 46.4299 22.1519C46.845 23.3046 46.9048 24.4084 46.6084 25.4316C46.1743 26.9296 46.1091 28.4838 46.3982 30.0535C45.7203 30.3036 45.0189 30.5039 44.293 30.6453C43.7972 27.9972 41.6531 25.9282 38.9678 25.5413V21.8438H40.3907C43.104 21.8438 45.3116 19.6361 45.3116 16.9228C45.3116 15.162 44.3618 13.5253 42.8321 12.6508L41.9784 12.1632C40.1224 11.1011 38.9688 9.11366 38.9688 6.97581C38.9688 6.00159 38.7766 5.03734 38.4196 4.13291C39.2651 3.92266 40.1405 3.79487 41.0404 3.75228C40.8701 4.27156 40.7812 4.81531 40.7812 5.36903C40.7812 7.4815 42.0364 9.38462 43.9785 10.2175L46.0194 11.0929C46.6909 11.3802 47.125 12.039 47.125 12.7695C47.125 14.7741 48.7563 16.4062 50.7618 16.4062C52.3042 16.4062 53.7841 16.0193 55.1127 15.2834C55.2124 15.9468 55.2812 16.621 55.2812 17.3125C55.2812 17.6369 55.2595 17.9559 55.2368 18.2749C55.1616 18.2813 55.0837 18.2795 55.0094 18.2885ZM54.6994 13.3921C53.5222 14.166 52.1792 14.5938 50.7618 14.5938C49.7558 14.5938 48.9375 13.7754 48.9375 12.7686C48.9375 11.3122 48.072 9.99997 46.7335 9.42631L44.6926 8.55087C43.4175 8.00441 42.5938 6.7565 42.5938 5.36903C42.5938 4.81531 42.7315 4.27609 42.9889 3.784C48.5451 4.31506 53.1334 8.20288 54.6994 13.3921ZM36.6932 4.68209C36.9967 5.408 37.1562 6.18828 37.1562 6.97581C37.1562 9.76253 38.6597 12.3544 41.0803 13.7373L41.934 14.2249C42.9001 14.7768 43.5 15.8108 43.5 16.9228C43.5 18.6374 42.1053 20.0312 40.3916 20.0312H38.9688V16.4062H34.0895L33.8312 16.6392C33.7343 16.7262 33.6328 16.8077 33.5349 16.8938C33.5349 16.882 33.5312 16.8712 33.5312 16.8594C33.5312 14.3373 31.6462 12.252 29.213 11.9248C30.6421 8.627 33.3437 6.01066 36.6932 4.68209ZM28.0938 17.3125C28.0938 16.0573 28.2786 14.8475 28.5985 13.6929C30.3231 13.721 31.7188 15.1284 31.7188 16.8594C31.7188 17.3225 31.8039 17.7711 31.9281 18.2106C30.8234 19.0561 29.6688 19.821 28.4708 20.5043C28.2206 19.4648 28.0938 18.3955 28.0938 17.3125ZM2.71875 34.5312V29.0938C2.71875 28.5935 3.12566 28.1875 3.625 28.1875H4.53125V35.4375H3.625C3.12566 35.4375 2.71875 35.0315 2.71875 34.5312ZM6.34375 36.3438V27.2812C6.34375 26.781 6.75066 26.375 7.25 26.375H13.1823C20.6072 26.375 27.7566 23.8611 33.5312 19.2637V44.3623C27.7575 39.7639 20.6072 37.25 13.1823 37.25H7.25C6.75066 37.25 6.34375 36.844 6.34375 36.3438ZM15.7488 54.9364C15.6265 55.7157 14.9649 56.2812 14.1756 56.2812H11.561C10.7943 56.2812 10.1518 55.7357 10.0023 55.0125L11.2293 54.399C12.6476 53.6903 13.7043 52.4705 14.2127 50.9443C14.6214 49.7182 15.592 48.773 16.7801 48.3579L15.7488 54.9364ZM20.8438 46.3125V48.125H18.6515L18.9361 46.3125H20.8438ZM17.0855 46.4149C14.9767 46.7955 13.1805 48.3099 12.4863 50.3933C12.1383 51.4382 11.4043 52.2847 10.4183 52.7777L10.2696 52.852L12.7219 39.0625H13.1832C14.867 39.0625 16.5345 39.2075 18.1748 39.4757L17.0855 46.4149ZM37.1562 45.4062H35.3438V18.2188H37.1562V45.4062ZM38.9688 36.2522V27.3728C41.0341 27.7942 42.5938 29.6239 42.5938 31.8125C42.5938 34.0011 41.0341 35.8308 38.9688 36.2522ZM48.1192 29.2913C47.9669 28.1503 48.0349 27.023 48.3493 25.9355C48.7481 24.5571 48.6738 23.0364 48.1355 21.5365C48.0276 21.2384 48.0032 20.9212 48.063 20.5949C48.1889 19.8926 48.7617 19.3035 49.4568 19.164C49.8818 19.0779 50.3014 19.1322 50.6684 19.3244C51.9426 19.9859 53.4307 20.2424 54.9831 20.1001C54.1539 24.0505 51.6118 27.4108 48.1192 29.2913Z" fill="#FE4F74"/>
<path d="M13.5938 30C13.5938 29.0004 12.7808 28.1875 11.7812 28.1875H9.96875C8.96916 28.1875 8.15625 29.0004 8.15625 30V33.625C8.15625 34.6246 8.96916 35.4375 9.96875 35.4375H11.7812C12.7808 35.4375 13.5938 34.6246 13.5938 33.625V30ZM9.96875 33.625V30H11.7812L11.7822 33.625H9.96875Z" fill="#FE4F74"/>
</g>
<defs>
<clipPath id="clip0_1241_532">
<rect width="58" height="58" fill="#FE4F74"/>
</clipPath>
</defs>
</svg>
