<svg width="62" height="62" viewBox="0 0 62 62" fill="none" xmlns="http://www.w3.org/2000/svg">
<g opacity="0.2" clip-path="url(#clip0_1246_787)">
<path d="M40.5148 0H21.4827C4.11499 0 -0.00219727 4.11719 -0.00219727 21.4849V40.517C-0.00219727 57.8847 4.11499 62.0019 21.4827 62.0019H40.5148C57.8825 62.0019 61.9997 57.8847 61.9997 40.517V21.4849C61.9997 4.11719 57.8419 0 40.5148 0ZM50.0512 44.2292H45.5504C43.8454 44.2292 43.3203 42.8769 40.2532 39.7691C37.5892 37.1864 36.4092 36.8435 35.7524 36.8435C34.8244 36.8435 34.5609 37.1051 34.5609 38.378V42.4448C34.5609 43.5356 34.2179 44.1905 31.331 44.1905C26.557 44.1905 21.2599 41.3036 17.5457 35.9251C11.9444 28.0434 10.4119 22.1398 10.4119 20.9192C10.4119 20.2624 10.6734 19.6482 11.9347 19.6482H16.4452C17.5864 19.6482 18.0204 20.1732 18.4641 21.3939C20.6942 27.8322 24.4084 33.4722 25.9409 33.4722C26.5067 33.4722 26.7682 33.2107 26.7682 31.7672V25.1177C26.5958 22.0507 24.9819 21.7872 24.9819 20.6983C24.9819 20.1732 25.4159 19.6482 26.1114 19.6482H33.2046C34.1637 19.6482 34.5163 20.1732 34.5163 21.3028V30.2734C34.5163 31.2422 34.9503 31.5851 35.2119 31.5851C35.7776 31.5851 36.262 31.2422 37.3102 30.1921C40.5497 26.5592 42.8708 20.9579 42.8708 20.9579C43.173 20.3011 43.6981 19.6869 44.8393 19.6869H49.3498C50.7022 19.6869 51.0044 20.3825 50.7022 21.3512C50.1364 23.9746 44.6165 31.7653 44.6165 31.7653C44.1418 32.5519 43.9597 32.8949 44.6165 33.7726C45.1009 34.4294 46.676 35.7914 47.7242 37.0121C49.6521 39.2014 51.1342 41.0382 51.5295 42.3092C51.9732 43.5705 51.3183 44.2273 50.0454 44.2273L50.0512 44.2292Z" fill="white"/>
</g>
<defs>
<clipPath id="clip0_1246_787">
<rect width="62" height="62" fill="white"/>
</clipPath>
</defs>
</svg>
