<svg width="57" height="49" viewBox="0 0 57 49" fill="none" xmlns="http://www.w3.org/2000/svg">
  <g opacity="0.2">
    <path d="M52.1557 0H4.39865C1.96935 0 0 1.96935 0 4.39865V9.39829C0 9.74524 0.281336 10.0267 0.628394 10.0267H55.9259C56.2729 10.0267 56.5543 9.74535 56.5543 9.39829V4.39865C56.5543 1.96935 54.585 0 52.1557 0ZM7.93142 6.43129C7.14827 6.43129 6.51358 5.79649 6.51358 5.01345C6.51358 4.23042 7.14838 3.59562 7.93142 3.59562C8.71445 3.59562 9.34925 4.23042 9.34925 5.01345C9.34936 5.79649 8.71456 6.43129 7.93142 6.43129ZM12.477 6.43129C11.6938 6.43129 11.0591 5.79649 11.0591 5.01345C11.0591 4.23042 11.6939 3.59562 12.477 3.59562C13.26 3.59562 13.8948 4.23042 13.8948 5.01345C13.8948 5.79649 13.26 6.43129 12.477 6.43129ZM17.0225 6.43129C16.2395 6.43129 15.6047 5.79649 15.6047 5.01345C15.6047 4.23042 16.2395 3.59562 17.0225 3.59562C17.8057 3.59562 18.4404 4.23042 18.4404 5.01345C18.4404 5.79649 17.8056 6.43129 17.0225 6.43129Z" fill="white" />
    <path d="M39.0223 27.8645C38.2269 28.6598 38.2269 29.9539 39.0223 30.7491C39.8176 31.5445 41.1118 31.5445 41.9069 30.7491C42.7023 29.9538 42.7023 28.6599 41.9069 27.8645C41.1119 27.0692 39.8176 27.0691 39.0223 27.8645Z" fill="white" />
    <path d="M55.9259 12.5403H0.628394C0.281225 12.5403 0 12.8216 0 13.1687V44.5076C0 46.9369 1.96935 48.9063 4.39865 48.9063H52.1557C54.585 48.9063 56.5543 46.9369 56.5543 44.5076V13.1687C56.5543 12.8216 56.273 12.5403 55.9259 12.5403ZM33.1551 36.6908H9.9624C9.26828 36.6908 8.70561 36.1282 8.70561 35.4341C8.70561 34.7399 9.26828 34.1773 9.9624 34.1773H33.1551C33.8492 34.1773 34.4119 34.7399 34.4119 35.4341C34.4118 36.1282 33.849 36.6908 33.1551 36.6908ZM47.4807 36.3228C46.9899 36.8136 46.1942 36.8137 45.7034 36.3228L42.6701 33.2896C40.9249 34.255 38.7032 33.9847 37.2451 32.5267C35.4698 30.7513 35.4698 27.8626 37.2451 26.0874C39.0205 24.3121 41.9091 24.3121 43.6845 26.0874C45.1515 27.5545 45.405 29.7813 44.4474 31.5124L47.4806 34.5455C47.9714 35.0362 47.9714 35.8318 47.4807 36.3228Z" fill="white" />
  </g>
</svg>