<svg width="56" height="60" viewBox="0 0 56 60" fill="none" xmlns="http://www.w3.org/2000/svg">
<path opacity="0.2" d="M53.4326 14.4821C54.5885 14.4821 55.5255 13.545 55.5255 12.3892V2.09297C55.5255 0.937031 54.5884 0 53.4326 0H43.1381C41.9822 0 41.0451 0.937149 41.0451 2.09297V5.14723H14.955V2.09297C14.955 0.937031 14.0178 0 12.862 0H2.56733C1.4114 0 0.474365 0.937149 0.474365 2.09297V12.3891C0.474365 13.545 1.41151 14.482 2.56733 14.482H5.62159V45.518H2.56733C1.4114 45.518 0.474365 46.4551 0.474365 47.6109V57.9069C0.474365 59.0629 1.41151 59.9999 2.56733 59.9999H12.8619C14.0178 59.9999 14.9549 59.0627 14.9549 57.9069V54.8527H41.0448V57.9069C41.0448 59.0629 41.9819 59.9999 43.1378 59.9999H53.4322C54.5882 59.9999 55.5252 59.0627 55.5252 57.9069V47.6108C55.5252 46.4549 54.588 45.5179 53.4322 45.5179H50.378V14.4821H53.4326ZM10.7689 52.7597V52.7598V55.8139H4.66042V49.7039H7.71468H10.7689V52.7597ZM10.7689 7.2402V10.2961H7.71468H4.66042V4.18605H10.7689V7.2402ZM37.4326 44.2425H18.5673C17.7967 44.2425 17.1719 43.6178 17.1719 42.8471C17.1719 42.0765 17.7967 41.4518 18.5673 41.4518H37.4327C38.2032 41.4518 38.8281 42.0765 38.8281 42.8471C38.8281 43.6178 38.2031 44.2425 37.4326 44.2425ZM37.4326 37.2751H18.5673C17.7967 37.2751 17.1719 36.6504 17.1719 35.8798C17.1719 35.1091 17.7967 34.4844 18.5673 34.4844H37.4327C38.2032 34.4844 38.8281 35.1091 38.8281 35.8798C38.8281 36.6504 38.2031 37.2751 37.4326 37.2751ZM37.4326 30.4547H18.5714C18.5705 30.4547 18.5694 30.4548 18.5685 30.4548C18.5644 30.4548 18.5604 30.4541 18.5563 30.4541C17.7885 30.4484 17.1717 29.8211 17.1717 29.0593V17.1529C17.1717 16.3822 17.7964 15.7575 18.5671 15.7575H37.4325C38.2008 15.7575 38.8278 16.3841 38.8278 17.1529V29.0593C38.8278 29.8301 38.2031 30.4547 37.4326 30.4547ZM51.3397 49.7039V55.8139H45.2312V52.7598V52.7597V49.7039H48.2855H51.3397ZM48.2852 10.2961H45.231V7.24031V4.18605H51.3395V10.2961H48.2852Z" fill="#FE4F74"/>
<path opacity="0.2" d="M19.9626 18.5482V26.5287L32.6074 18.5482H19.9626Z" fill="#FE4F74"/>
<path opacity="0.2" d="M36.0373 27.6641V19.6835L23.3926 27.6641H36.0373Z" fill="#FE4F74"/>
</svg>
