<svg width="72" height="72" viewBox="0 0 72 72" fill="none" xmlns="http://www.w3.org/2000/svg">
<g opacity="0.6">
<path d="M18.4371 24.0922C18.1198 24.5891 17.7292 24.942 17.2654 25.151C16.8016 25.3599 16.3021 25.4296 15.7669 25.3598C15.2318 25.29 14.6997 25.0862 14.1706 24.7483C13.6323 24.4045 13.2205 24.0022 12.9351 23.5414C12.6489 23.0769 12.5035 22.5921 12.4989 22.0872C12.4934 21.5785 12.6435 21.0849 12.9491 20.6065C13.1871 20.2338 13.4706 19.9421 13.7996 19.7312C14.1286 19.5203 14.4783 19.3987 14.8487 19.3665C15.219 19.3342 15.5845 19.4009 15.9452 19.5664L15.4251 20.3807C15.1439 20.2886 14.8418 20.29 14.5189 20.3849C14.1951 20.476 13.9186 20.701 13.6894 21.0599C13.4867 21.3773 13.3917 21.7085 13.4045 22.0535C13.4165 22.3948 13.5294 22.7276 13.7432 23.052C13.9562 23.3726 14.2628 23.6607 14.6631 23.9164C15.0725 24.1779 15.4702 24.3412 15.8561 24.4063C16.2435 24.4691 16.5968 24.4357 16.916 24.306C17.2367 24.1741 17.4999 23.9471 17.7056 23.625C17.8408 23.4134 17.9267 23.1978 17.9632 22.9783C17.9998 22.7588 17.9873 22.5451 17.9257 22.3373C17.8641 22.1296 17.7528 21.9387 17.5919 21.7647L18.112 20.9504C18.3954 21.1962 18.6045 21.49 18.7392 21.8319C18.873 22.17 18.9187 22.5344 18.8764 22.9252C18.8333 23.3122 18.6869 23.7012 18.4371 24.0922Z" fill="black"/>
<path d="M19.822 21.9179L15.4863 17.363L16.1862 16.6968L18.0717 18.6777L18.5343 18.2374L18.2857 14.6983L19.1872 13.8402L19.4374 17.7847L23.5466 18.3726L22.6451 19.2307L19.3214 18.7317L18.6927 19.3301L20.5218 21.2517L19.822 21.9179Z" fill="black"/>
<path d="M25.0866 17.8419C24.7406 18.0396 24.3894 18.1538 24.0329 18.1846C23.6751 18.213 23.3421 18.1502 23.034 17.9961C22.7246 17.8397 22.4684 17.5837 22.2653 17.2283C22.0865 16.9154 22.0033 16.6267 22.0155 16.3619C22.0263 16.0948 22.103 15.8467 22.2456 15.6175C22.3881 15.3883 22.5682 15.1754 22.7859 14.9787C23.0046 14.7783 23.2313 14.5891 23.4659 14.411C23.7733 14.1788 24.024 13.9931 24.218 13.854C24.413 13.7111 24.5423 13.5854 24.606 13.4767C24.672 13.3667 24.6664 13.2441 24.5892 13.1091L24.573 13.0806C24.3726 12.7299 24.1209 12.5122 23.8179 12.4275C23.5173 12.3415 23.1739 12.4089 22.7876 12.6296C22.3871 12.8584 22.1232 13.1255 21.9959 13.4309C21.8685 13.7362 21.8155 14.0148 21.8369 14.2667L20.8781 14.4373C20.8307 14.0242 20.8727 13.6576 21.0041 13.3374C21.1365 13.0134 21.3227 12.7341 21.5627 12.4995C21.8038 12.2612 22.0618 12.0635 22.3367 11.9064C22.5121 11.8062 22.7257 11.7125 22.9776 11.6252C23.2304 11.5341 23.5001 11.4916 23.7865 11.4977C24.0753 11.5025 24.3646 11.5934 24.6543 11.7705C24.9441 11.9476 25.2129 12.2529 25.4607 12.6866L27.5161 16.2841L26.6771 16.7634L26.2547 16.024L26.212 16.0484C26.2228 16.1993 26.2005 16.3803 26.145 16.5912C26.0894 16.8021 25.9785 17.0179 25.8123 17.2386C25.6461 17.4594 25.4042 17.6604 25.0866 17.8419ZM24.784 17.0151C25.1158 16.8256 25.3582 16.6006 25.5112 16.3403C25.6666 16.0786 25.7435 15.8115 25.7418 15.539C25.7425 15.2651 25.6779 15.0144 25.5479 14.7869L25.1092 14.0191C25.098 14.0821 25.0421 14.1658 24.9416 14.2704C24.8421 14.3713 24.7215 14.4795 24.58 14.5949C24.4395 14.7066 24.3012 14.8139 24.1651 14.9168C24.03 15.016 23.9209 15.0973 23.8376 15.1606C23.6358 15.3136 23.4584 15.4762 23.3054 15.6485C23.1533 15.8171 23.0552 15.9974 23.0108 16.1893C22.9674 16.3776 23.0067 16.5783 23.1286 16.7916C23.2951 17.0831 23.5289 17.2419 23.8298 17.268C24.1318 17.2903 24.4499 17.2061 24.784 17.0151Z" fill="black"/>
<path d="M30.5639 11.7104L30.8105 12.5767L27.4715 13.5275L27.2248 12.6613L30.5639 11.7104ZM26.7053 9.99969L28.4276 16.0478L27.4983 16.3124L25.776 10.2643L26.7053 9.99969ZM30.5326 8.9098L32.2549 14.9579L31.3256 15.2225L29.6033 9.17443L30.5326 8.9098Z" fill="black"/>
<path d="M33.1637 13.4962L36.0174 8.52722L37.1303 8.4874L37.3552 14.7719L36.3896 14.8064L36.2157 9.94578L33.3783 14.9142L32.249 14.9546L32.0242 8.67009L32.9898 8.63554L33.1637 13.4962Z" fill="black"/>
<path d="M36.9864 17.1201L38.7542 8.65608L39.6679 8.84692L39.4637 9.82477L39.5759 9.84821C39.6677 9.75585 39.7923 9.63968 39.9498 9.4997C40.1105 9.35761 40.3208 9.24538 40.5806 9.16301C40.8436 9.07853 41.1755 9.07814 41.5762 9.16184C42.0945 9.27009 42.5243 9.49509 42.8656 9.83684C43.2069 10.1786 43.4388 10.6104 43.5612 11.1323C43.6836 11.6542 43.6773 12.2384 43.5423 12.8849C43.4061 13.5368 43.1772 14.0788 42.8556 14.5107C42.5345 14.9399 42.1503 15.2445 41.7028 15.4243C41.256 15.6014 40.776 15.6364 40.2631 15.5293C39.8676 15.4467 39.5647 15.3151 39.3543 15.1345C39.1444 14.9513 38.9929 14.7621 38.8998 14.567C38.8073 14.3692 38.738 14.207 38.692 14.0802L38.6118 14.0635L37.9322 17.3177L36.9864 17.1201ZM39.0411 11.9281C38.944 12.393 38.9265 12.8173 38.9885 13.2011C39.0511 13.5823 39.1924 13.9004 39.4124 14.1554C39.6329 14.4078 39.9329 14.5736 40.3123 14.6529C40.7077 14.7355 41.0594 14.7002 41.3674 14.547C41.6787 14.3917 41.9382 14.1504 42.146 13.823C42.357 13.4934 42.5083 13.1095 42.5998 12.6714C42.6902 12.2386 42.7049 11.8345 42.6439 11.4593C42.5861 11.082 42.4448 10.7639 42.22 10.505C41.9985 10.2441 41.6873 10.0717 41.2866 9.98801C40.9018 9.90766 40.5582 9.93766 40.2556 10.078C39.9536 10.2157 39.6995 10.4442 39.4934 10.7637C39.2878 11.0804 39.1371 11.4686 39.0411 11.9281Z" fill="black"/>
<path d="M42.1298 18.3801C41.9822 18.3093 41.8565 18.2338 41.7526 18.1537C41.6476 18.076 41.5783 18.0155 41.5446 17.9721L42.1346 17.3107C42.3202 17.4664 42.4978 17.5758 42.6673 17.639C42.8367 17.7022 43.0155 17.6987 43.2036 17.6286C43.393 17.562 43.6097 17.4102 43.8537 17.1731L44.2287 16.8082L44.8679 10.1032L45.8128 10.5567L45.209 15.8256L45.2681 15.8539L49.0017 12.0876L49.9465 12.5411L44.4218 17.8818C44.1729 18.1226 43.9225 18.3006 43.6704 18.4158C43.4172 18.5334 43.1623 18.5882 42.9058 18.5801C42.6518 18.5732 42.3931 18.5065 42.1298 18.3801Z" fill="black"/>
<path d="M48.3732 17.4783L53.8043 15.6514L54.6637 16.3596L50.6646 21.2127L49.919 20.5982L53.012 16.8447L47.5935 18.682L46.7215 17.9634L50.7206 13.1103L51.4662 13.7248L48.3732 17.4783ZM54.6445 13.6276L55.3396 14.2003C55.0584 14.5416 54.7104 14.7235 54.2957 14.746C53.8811 14.7686 53.4715 14.6132 53.0671 14.28C52.669 13.9519 52.4413 13.5822 52.3842 13.1709C52.3292 12.7612 52.4422 12.3858 52.7234 12.0446L53.4185 12.6174C53.2832 12.7817 53.2095 12.9633 53.1977 13.1622C53.188 13.3628 53.2937 13.5543 53.5149 13.7365C53.7361 13.9188 53.9452 13.9868 54.1424 13.9407C54.3417 13.8962 54.5091 13.7919 54.6445 13.6276Z" fill="black"/>
<path d="M54.6454 27.9868C54.4168 27.4434 54.3482 26.9214 54.4397 26.421C54.5312 25.9206 54.7576 25.47 55.119 25.0692C55.4805 24.6684 55.9505 24.3463 56.5291 24.1028C57.1178 23.8551 57.6828 23.7447 58.2242 23.7716C58.7691 23.8 59.2507 23.9557 59.6688 24.2387C60.0905 24.5232 60.4115 24.9271 60.6317 25.4504C60.8031 25.8579 60.8822 26.257 60.8689 26.6475C60.8555 27.0381 60.7569 27.3949 60.5731 27.7181C60.3892 28.0412 60.1267 28.3041 59.7856 28.5069L59.4109 27.6163C59.6465 27.4372 59.817 27.1878 59.9223 26.8681C60.0312 26.5499 60.0031 26.1945 59.838 25.8021C59.6919 25.4549 59.4733 25.1886 59.1821 25.0031C58.8944 24.8192 58.5564 24.723 58.1679 24.7147C57.7831 24.7079 57.3717 24.7965 56.934 24.9807C56.4862 25.1691 56.1259 25.4036 55.8531 25.6842C55.5813 25.9673 55.4081 26.2771 55.3335 26.6135C55.2599 26.9524 55.2972 27.298 55.4454 27.6502C55.5428 27.8816 55.6715 28.0748 55.8313 28.2296C55.9912 28.3844 56.1742 28.4954 56.3802 28.5628C56.5862 28.6301 56.8065 28.6469 57.0411 28.6134L57.4158 29.504C57.0525 29.5976 56.6919 29.6027 56.334 29.5194C55.9798 29.4374 55.6539 29.2681 55.3563 29.0113C55.0623 28.756 54.8254 28.4145 54.6454 27.9868Z" fill="black"/>
<path d="M55.6477 30.3627L61.8592 29.3819L62.0099 30.3363L59.3085 30.7628L59.4081 31.3937L62.462 33.1995L62.6561 34.4288L59.2677 32.3941L56.4496 35.4419L56.2555 34.2125L58.5542 31.7606L58.4189 30.9033L55.7984 31.317L55.6477 30.3627Z" fill="black"/>
<path d="M56.0113 37.0091C56.0451 36.6121 56.1507 36.2581 56.3278 35.9472C56.5077 35.6366 56.7486 35.3983 57.0503 35.2323C57.3548 35.0665 57.7111 35.001 58.119 35.0358C58.478 35.0664 58.7629 35.1619 58.9739 35.3223C59.1875 35.483 59.3482 35.6871 59.4558 35.9346C59.5635 36.1821 59.6364 36.4513 59.6746 36.7421C59.7153 37.036 59.7422 37.33 59.7555 37.6242C59.772 38.0092 59.7824 38.321 59.7867 38.5596C59.7935 38.8013 59.8235 38.9791 59.8768 39.0933C59.9298 39.2101 60.0338 39.2751 60.1888 39.2883L60.2215 39.2911C60.624 39.3254 60.9461 39.242 61.1879 39.0407C61.4294 38.8422 61.5691 38.5213 61.6069 38.078C61.6461 37.6184 61.5762 37.2495 61.3972 36.9712C61.2182 36.693 61.0191 36.4911 60.7997 36.3656L61.2039 35.4796C61.5707 35.6753 61.8486 35.9181 62.0375 36.2081C62.229 36.5011 62.353 36.813 62.4097 37.1438C62.4689 37.4776 62.4851 37.8022 62.4582 38.1177C62.441 38.3189 62.3968 38.548 62.3256 38.8049C62.2569 39.0648 62.1387 39.3108 61.9709 39.543C61.803 39.778 61.5638 39.9644 61.2535 40.1023C60.9432 40.2402 60.5392 40.2879 60.0415 40.2455L55.9133 39.8935L55.9953 38.9307L56.8438 39.0031L56.848 38.9542C56.7176 38.8773 56.5814 38.7561 56.4394 38.5906C56.2973 38.4251 56.1827 38.2112 56.0955 37.949C56.0083 37.6868 55.9802 37.3735 56.0113 37.0091ZM56.8636 37.2297C56.8311 37.6105 56.8785 37.9377 57.0058 38.2116C57.1329 38.4881 57.3091 38.7031 57.5343 38.8565C57.7593 39.0127 58.0023 39.1019 58.2634 39.1242L59.1445 39.1993C59.0991 39.1543 59.0619 39.0608 59.0329 38.9186C59.0064 38.7794 58.9859 38.6187 58.9713 38.4367C58.9591 38.2576 58.9494 38.0828 58.942 37.9124C58.9371 37.7448 58.9323 37.6088 58.9275 37.5043C58.9162 37.2514 58.8831 37.013 58.8282 36.7891C58.7758 36.5683 58.6833 36.3851 58.5505 36.2395C58.4202 36.0969 58.2327 36.0152 57.9879 35.9943C57.6534 35.9658 57.39 36.068 57.1975 36.3008C57.0076 36.5366 56.8963 36.8463 56.8636 37.2297Z" fill="black"/>
<path d="M57.9467 45.0005L57.0936 44.7114L58.2079 41.4233L59.0609 41.7124L57.9467 45.0005ZM61.5465 42.7967L55.5907 40.7785L55.9008 39.8634L61.8566 41.8816L61.5465 42.7967ZM60.2693 46.5656L54.3135 44.5474L54.6236 43.6323L60.5794 45.6506L60.2693 46.5656Z" fill="black"/>
<path d="M54.9996 46.1248L57.4679 51.2961L56.8685 52.2346L51.5687 48.8496L52.0888 48.0353L56.1878 50.6534L53.7107 45.4959L54.319 44.5436L59.6187 47.9285L59.0986 48.7428L54.9996 46.1248Z" fill="black"/>
<path d="M49.8452 47.2128L55.8067 53.4758L55.1306 54.1194L54.4419 53.3958L54.3589 53.4749C54.3827 53.6029 54.4075 53.7714 54.4333 53.9806C54.4589 54.1936 54.4318 54.4303 54.352 54.6909C54.2722 54.9554 54.0839 55.2287 53.7874 55.511C53.4039 55.8761 52.9745 56.102 52.4994 56.1887C52.0243 56.2755 51.5372 56.221 51.0382 56.0253C50.5391 55.8296 50.0619 55.4925 49.6065 55.0141C49.1473 54.5317 48.8314 54.0355 48.6586 53.5254C48.4877 53.0173 48.4554 52.5281 48.5616 52.0577C48.6697 51.5894 48.9135 51.1745 49.2931 50.8132C49.5857 50.5347 49.866 50.3601 50.1342 50.2895C50.4042 50.2209 50.646 50.2037 50.8594 50.2379C51.0747 50.2741 51.2476 50.3093 51.3781 50.3434L51.4374 50.2869L49.1453 47.879L49.8452 47.2128ZM52.9509 51.8532C52.6235 51.5092 52.2842 51.2538 51.9331 51.0868C51.5839 50.9218 51.2418 50.8574 50.907 50.8935C50.574 50.9317 50.2671 51.0843 49.9864 51.3515C49.6938 51.63 49.523 51.9396 49.4741 52.2801C49.4251 52.6244 49.4763 52.9751 49.6277 53.3321C49.779 53.693 50.009 54.0356 50.3176 54.3598C50.6225 54.6801 50.9466 54.9216 51.2901 55.0846C51.6335 55.2513 51.9756 55.3158 52.3163 55.2778C52.6569 55.2437 52.9755 55.0856 53.272 54.8033C53.5567 54.5323 53.7272 54.2325 53.7836 53.9037C53.8418 53.577 53.7981 53.238 53.6523 52.8869C53.5084 52.5378 53.2746 52.1933 52.9509 51.8532Z" fill="black"/>
<path d="M45.8869 50.7308C46.0291 50.6496 46.1627 50.589 46.2876 50.5491C46.4112 50.5067 46.5004 50.4841 46.5552 50.481L46.7644 51.3423C46.5308 51.4066 46.3399 51.4905 46.1916 51.5941C46.0433 51.6977 45.9446 51.8468 45.8955 52.0415C45.8427 52.2351 45.8445 52.4997 45.901 52.8352L45.9883 53.3511L51.1434 57.6861L50.2333 58.206L46.2401 54.7161L46.1833 54.7486L47.162 59.9608L46.252 60.4808L44.9951 52.9001C44.9382 52.5585 44.934 52.2513 44.9825 51.9785C45.0295 51.7032 45.1293 51.4624 45.2816 51.2559C45.4316 51.0507 45.6334 50.8757 45.8869 50.7308Z" fill="black"/>
<path d="M43.0819 56.3814L41.5002 61.889L40.4292 62.194L38.7069 56.1459L39.6362 55.8813L40.9683 60.5591L42.5342 55.056L43.621 54.7465L45.3433 60.7946L44.414 61.0592L43.0819 56.3814ZM42.6886 63.7301L41.8223 63.9767C41.7012 63.5515 41.7492 63.1618 41.9662 62.8077C42.1832 62.4536 42.5437 62.2048 43.0477 62.0613C43.5438 61.92 43.9774 61.9427 44.3484 62.1293C44.7168 62.3167 44.9615 62.6231 45.0826 63.0483L44.2164 63.295C44.158 63.0903 44.0504 62.9265 43.8934 62.8038C43.7338 62.6818 43.5162 62.66 43.2406 62.7385C42.9649 62.817 42.7901 62.9505 42.7161 63.139C42.6394 63.3283 42.6303 63.5253 42.6886 63.7301Z" fill="black"/>
<path d="M30.8715 55.5724C31.4486 55.6929 31.9171 55.933 32.2769 56.2926C32.6368 56.6521 32.879 57.0945 33.0036 57.6196C33.1281 58.1447 33.1262 58.7145 32.9979 59.329C32.8673 59.9542 32.6372 60.4819 32.3075 60.9122C31.9746 61.3445 31.573 61.6524 31.1025 61.8357C30.6288 62.0212 30.1141 62.0559 29.5583 61.9398C29.1255 61.8494 28.7522 61.6878 28.4383 61.455C28.1245 61.2221 27.8868 60.9383 27.7253 60.6034C27.5638 60.2685 27.4966 59.9032 27.5235 59.5073L28.4693 59.7048C28.4828 60.0004 28.5912 60.2824 28.7945 60.5507C28.9945 60.8211 29.303 60.9998 29.7197 61.0869C30.0884 61.1639 30.4318 61.1352 30.7499 61.0009C31.0647 60.8687 31.3358 60.6451 31.5633 60.3301C31.7876 60.0173 31.9483 59.6284 32.0454 59.1635C32.1447 58.688 32.1564 58.2582 32.0804 57.8743C32.0018 57.4898 31.8452 57.1713 31.6108 56.9188C31.3737 56.6657 31.0681 56.5001 30.694 56.422C30.4482 56.3707 30.2162 56.3668 29.998 56.4105C29.7797 56.4541 29.5844 56.5416 29.412 56.6729C29.2396 56.8042 29.1006 56.9759 28.9949 57.188L28.0491 56.9905C28.1784 56.6383 28.3791 56.3386 28.6509 56.0915C28.9196 55.8465 29.2441 55.6745 29.6245 55.5755C30.0016 55.4786 30.4173 55.4776 30.8715 55.5724Z" fill="black"/>
<path d="M28.3472 55.0494L25.6258 60.7185L24.7547 60.3004L25.9383 57.8349L25.3625 57.5585L22.1416 59.0459L21.0196 58.5073L24.619 56.8746L23.7115 52.824L24.8335 53.3626L25.5456 56.6473L26.3281 57.0229L27.4762 54.6312L28.3472 55.0494Z" fill="black"/>
<path d="M22.6694 51.5725C22.977 51.8259 23.2083 52.1139 23.3635 52.4363C23.517 52.7608 23.5763 53.0943 23.5415 53.437C23.505 53.7818 23.3565 54.1122 23.0962 54.4281C22.8671 54.7062 22.6266 54.8864 22.3747 54.9689C22.1211 55.0535 21.8619 55.0697 21.5971 55.0177C21.3322 54.9657 21.0693 54.8728 20.8082 54.739C20.5432 54.6056 20.2859 54.4608 20.0363 54.3045C19.7101 54.0994 19.4476 53.9309 19.2487 53.7988C19.046 53.6671 18.8826 53.5908 18.7584 53.5698C18.6321 53.5471 18.5195 53.5958 18.4206 53.7158L18.3997 53.7411C18.1428 54.0529 18.0286 54.3654 18.0568 54.6787C18.083 54.9903 18.2678 55.2875 18.6111 55.5705C18.9671 55.8638 19.3104 56.0158 19.6411 56.0266C19.9717 56.0374 20.251 55.9881 20.479 55.8789L20.9784 56.7148C20.6091 56.9056 20.2514 56.9963 19.9053 56.9871C19.5555 56.9782 19.2283 56.9031 18.9238 56.7618C18.6155 56.6209 18.3392 56.4498 18.0949 56.2485C17.939 56.12 17.7756 55.9536 17.6046 55.749C17.4298 55.5448 17.2945 55.3078 17.1986 55.0378C17.1007 54.7661 17.0831 54.4634 17.1459 54.1297C17.2087 53.7959 17.3989 53.4363 17.7166 53.0509L20.3514 49.8534L21.097 50.4678L20.5555 51.125L20.5934 51.1562C20.7307 51.0926 20.9079 51.0493 21.1248 51.0264C21.3416 51.0036 21.5828 51.0307 21.8481 51.1079C22.1134 51.1851 22.3872 51.3399 22.6694 51.5725ZM22.0037 52.1486C21.7088 51.9056 21.4126 51.7587 21.1149 51.708C20.8151 51.6555 20.5381 51.6783 20.2839 51.7765C20.0276 51.873 19.8161 52.0223 19.6494 52.2245L19.0871 52.907C19.1499 52.8951 19.2481 52.9176 19.3815 52.9746C19.5111 53.0319 19.655 53.1062 19.8131 53.1976C19.9674 53.2893 20.1168 53.3806 20.2613 53.4714C20.4019 53.5625 20.5166 53.6358 20.6053 53.6912C20.8199 53.8256 21.0349 53.9338 21.2503 54.0158C21.4618 54.0982 21.6652 54.126 21.8604 54.0994C22.0518 54.0732 22.2255 53.9653 22.3818 53.7758C22.5952 53.5167 22.6608 53.2418 22.5785 52.9512C22.4923 52.6609 22.3007 52.3934 22.0037 52.1486Z" fill="black"/>
<path d="M14.9933 48.6248L15.7157 48.087L17.7888 50.8719L17.0663 51.4097L14.9933 48.6248ZM14.762 52.8393L19.8063 49.0842L20.3832 49.8593L15.3389 53.6143L14.762 52.8393ZM12.3857 49.6472L17.43 45.8921L18.007 46.6672L12.9627 50.4222L12.3857 49.6472Z" fill="black"/>
<path d="M15.7419 45.5614L10.0838 44.6551L9.65198 43.6287L15.4483 41.1899L15.823 42.0805L11.3399 43.9668L16.9916 44.858L17.4298 45.8995L11.6335 48.3382L11.2588 47.4477L15.7419 45.5614Z" fill="black"/>
<path d="M17.7748 40.7014L9.23394 42.0499L9.08836 41.1279L10.0751 40.9721L10.0572 40.8588C9.93831 40.8058 9.78549 40.7304 9.59876 40.6328C9.4089 40.5329 9.22941 40.3761 9.06027 40.1624C8.88802 39.9464 8.76996 39.6363 8.70611 39.2319C8.62354 38.7088 8.6815 38.2272 8.88002 37.7869C9.07853 37.3466 9.40006 36.9767 9.84462 36.6771C10.2892 36.3776 10.8377 36.1763 11.4901 36.0733C12.1479 35.9695 12.7358 35.9913 13.2537 36.1389C13.7689 36.2869 14.1899 36.5382 14.5167 36.8928C14.8408 37.2478 15.0437 37.6841 15.1254 38.2018C15.1884 38.6008 15.1728 38.9307 15.0786 39.1915C14.9817 39.4527 14.8585 39.6614 14.7091 39.8177C14.557 39.9743 14.4298 40.0966 14.3277 40.1846L14.3404 40.2655L17.6241 39.747L17.7748 40.7014ZM12.1916 40.6213C12.6607 40.5473 13.0637 40.4132 13.4005 40.2191C13.7347 40.0254 13.982 39.7805 14.1425 39.4843C14.3003 39.1886 14.349 38.8494 14.2885 38.4665C14.2255 38.0675 14.0678 37.7512 13.8154 37.5175C13.5598 37.2815 13.2421 37.1244 12.8623 37.0462C12.4793 36.9658 12.0668 36.9605 11.6246 37.0303C11.1879 37.0992 10.8049 37.2288 10.4757 37.4189C10.1434 37.6068 9.89605 37.8517 9.73372 38.1536C9.56827 38.4533 9.51747 38.8053 9.58132 39.2097C9.64261 39.598 9.79252 39.9086 10.031 40.1418C10.2669 40.3753 10.5707 40.5318 10.9424 40.6113C11.3115 40.6912 11.7279 40.6945 12.1916 40.6213Z" fill="black"/>
<path d="M17.1296 35.4461C17.1157 35.6093 17.0897 35.7536 17.0516 35.8791C17.0162 36.0049 16.9842 36.0912 16.9555 36.138L16.1279 35.8209C16.2077 35.5921 16.2471 35.3873 16.246 35.2064C16.245 35.0255 16.1784 34.8596 16.0461 34.7086C15.9167 34.5551 15.6979 34.4064 15.3897 34.2623L14.9155 34.0411L8.41953 35.821L8.50858 34.7767L13.6491 33.4729L13.6547 33.4076L8.80913 31.2522L8.89818 30.2079L15.8509 33.4798C16.1643 33.6271 16.4196 33.7982 16.6166 33.993C16.8164 34.1881 16.958 34.407 17.0414 34.6497C17.125 34.8897 17.1544 35.1551 17.1296 35.4461Z" fill="black"/>
<path d="M14.0709 29.9265L10.4368 25.4962L10.7942 24.4415L16.7501 26.4598L16.44 27.3749L11.8335 25.8139L15.4729 30.2287L15.1102 31.2989L9.15439 29.2806L9.46449 28.3655L14.0709 29.9265ZM8.24658 25.4283L8.53565 24.5753C8.95442 24.7172 9.24788 24.978 9.41602 25.3577C9.58417 25.7375 9.58414 26.1755 9.41595 26.6718C9.25039 27.1604 8.98543 27.5043 8.62107 27.7036C8.25758 27.9003 7.86645 27.9277 7.44768 27.7858L7.73675 26.9328C7.93838 27.0011 8.13429 27.0055 8.32447 26.9461C8.51553 26.884 8.65705 26.7173 8.74903 26.4458C8.841 26.1744 8.83045 25.9547 8.71735 25.7867C8.60513 25.6161 8.44821 25.4966 8.24658 25.4283Z" fill="black"/>
</g>
</svg>
