<svg width="36" height="35" viewBox="0 0 36 35" fill="none" xmlns="http://www.w3.org/2000/svg">
  <circle cx="18.269" cy="17.5" r="17.5" fill="white" />
  <path d="M18 28C20.6715 28 23.1825 26.96 25.0715 25.071L23.657 23.657C22.146 25.168 20.137 26 18 26C13.589 26 10 22.411 10 18C10 13.589 13.589 10 18 10C22.411 10 26 13.589 26 18C26 19.103 25.103 20 24 20C22.897 20 22 19.103 22 18V14H20V14.5395C19.411 14.1985 18.7295 14 18 14C15.791 14 14 15.791 14 18C14 20.209 15.791 22 18 22C19.197 22 20.268 21.4715 21.0015 20.6385C21.735 21.471 22.8055 22 24 22C26.2055 22 28 20.2055 28 18C28 12.486 23.514 8 18 8C12.486 8 8 12.486 8 18C8 23.514 12.486 28 18 28ZM18 20C16.897 20 16 19.103 16 18C16 16.897 16.897 16 18 16C19.103 16 20 16.897 20 18C20 19.103 19.103 20 18 20Z" fill="black" />
</svg>