<svg width="42" height="51" viewBox="0 0 42 51" fill="none" xmlns="http://www.w3.org/2000/svg">
  <path d="M1 7.54834V30.922C1.54749 37.2813 6.1043 50 19.9516 50C37.2608 50 40.5457 34.7123 40.6721 30.922C40.7731 27.8897 40.7142 14.0761 40.6721 7.54834" stroke="white" stroke-width="1.76882" />
  <path d="M17.9296 17.9195C16.4134 16.7403 12.7495 14.5588 10.2226 15.2663C7.06398 16.1507 6.05322 18.5512 6.05322 20.1937M17.9296 17.9195C19.8247 16.277 24.6258 12.3604 29.1742 11.6023C33.7226 10.8442 35.3651 18.6776 35.4914 20.1937C35.5747 21.1932 35.7678 24.4437 35.564 28.027M17.9296 17.9195C12.3704 22.4679 7.6957 21.3308 6.05322 20.1937M6.05322 20.1937C7.02186 22.51 10.172 26.8394 15.0237 25.6265C21.0882 24.1104 24.2468 20.1937 27.279 19.562C30.3113 18.9303 33.236 20.1937 35.564 28.027M6.05322 20.1937C6.05322 21.2284 6.05322 25.9866 6.05322 29.6695M35.564 28.027C35.4586 29.8795 35.2472 31.8209 34.8597 33.5862C34.7865 33.9196 34.6908 34.2572 34.5733 34.5969M6.05322 29.6695C6.05322 30.6638 6.05322 31.5797 6.05322 32.3227C6.93763 36.1973 10.5511 44.0475 17.9296 44.4518C26.559 44.9246 32.8659 39.5355 34.5733 34.5969M6.05322 29.6695C7.06398 31.312 10.0503 34.0916 14.0129 34.0916C17.9296 34.0916 20.9624 33.0431 24.5 29.0001C28.0376 24.9571 33.6553 28.5324 34.5733 34.5969" stroke="white" stroke-width="1.01075" />
  <circle cx="23.6259" cy="5.93814" r="2.77957" stroke="white" stroke-width="0.758065" />
  <circle cx="18.5729" cy="1.38979" r="1.1371" stroke="white" stroke-width="0.505376" />
</svg>