<svg width="36" height="36" viewBox="0 0 36 36" fill="none" xmlns="http://www.w3.org/2000/svg">
  <path d="M17.6923 0C14.1932 0 10.7725 1.03763 7.86299 2.98168C4.95351 4.92573 2.68585 7.68889 1.34676 10.9217C0.00767299 14.1545 -0.342702 17.712 0.339956 21.1438C1.02261 24.5759 2.70765 27.7282 5.18197 30.2027C7.65628 32.677 10.8087 34.362 14.2408 35.0447C17.6726 35.7274 21.2301 35.3768 24.4629 34.0378C27.6958 32.6987 30.4589 30.4312 32.403 27.5217C34.347 24.6122 35.3846 21.1916 35.3846 17.6923C35.3846 13 33.5205 8.49991 30.2028 5.18196C26.8848 1.86399 22.3845 0 17.6923 0ZM26.3837 12.1192L23.4865 25.8086C23.2654 26.7817 22.6904 27.0029 21.8721 26.5606L17.449 23.2875L15.2375 25.3442C15.1333 25.4802 14.9995 25.5908 14.8463 25.6675C14.693 25.7441 14.5243 25.7847 14.3529 25.7865L14.6625 21.3634L22.8452 13.9548C23.2212 13.6452 22.8452 13.4683 22.3144 13.7779L12.274 20.0807L7.85096 18.7096C6.9 18.4221 6.87788 17.7586 8.05 17.3163L25.101 10.6817C25.9413 10.4385 26.649 10.925 26.3837 12.1192Z" fill="#111111" />
</svg>