<svg width="28" height="25" viewBox="0 0 28 25" fill="none" xmlns="http://www.w3.org/2000/svg">
  <path fill-rule="evenodd" clip-rule="evenodd" d="M24.7741 1.09106C26.27 0.461215 27.8736 1.72612 27.6095 3.32757L24.4898 22.243C24.1889 24.0668 22.1858 25.1134 20.5126 24.2045C19.1124 23.444 17.0351 22.2734 15.1629 21.0501C14.228 20.4392 11.3654 18.4804 11.7172 17.086C12.0181 15.8937 16.8305 11.4141 19.5805 8.75003C20.6607 7.70356 20.1687 7.09901 18.893 8.06253C15.7283 10.4527 10.6474 14.0867 8.96719 15.1094C7.48476 16.0117 6.71074 16.1657 5.7875 16.0117C4.10157 15.7308 2.53851 15.2957 1.2624 14.7668C-0.462357 14.0518 -0.378345 11.6815 1.26123 10.9913L24.7741 1.09106Z" fill="white" />
</svg>