<svg width="129" height="129" viewBox="0 0 129 129" fill="none" xmlns="http://www.w3.org/2000/svg">
<g opacity="0.6">
<path d="M34.8398 44.743C34.5224 45.2399 34.1319 45.5928 33.668 45.8018C33.2042 46.0107 32.7047 46.0804 32.1696 46.0106C31.6344 45.9408 31.1023 45.737 30.5733 45.3991C30.035 45.0553 29.6232 44.653 29.3378 44.1922C29.0516 43.7276 28.9062 43.2429 28.9016 42.738C28.8961 42.2293 29.0462 41.7357 29.3518 41.2573C29.5898 40.8846 29.8733 40.5929 30.2023 40.382C30.5313 40.1711 30.881 40.0495 31.2513 40.0173C31.6217 39.985 31.9872 40.0517 32.3478 40.2172L31.8277 41.0315C31.5465 40.9394 31.2445 40.9408 30.9215 41.0357C30.5977 41.1268 30.3213 41.3518 30.0921 41.7107C29.8893 42.0281 29.7944 42.3593 29.8072 42.7043C29.8192 43.0455 29.9321 43.3784 30.1459 43.7028C30.3589 44.0234 30.6655 44.3115 31.0658 44.5672C31.4752 44.8287 31.8729 44.992 32.2588 45.0571C32.6462 45.1199 32.9995 45.0865 33.3187 44.9568C33.6394 44.8249 33.9026 44.5978 34.1083 44.2758C34.2435 44.0642 34.3293 43.8486 34.3659 43.6291C34.4025 43.4095 34.39 43.1959 34.3283 42.9881C34.2667 42.7804 34.1555 42.5895 33.9946 42.4155L34.5147 41.6012C34.7981 41.847 35.0072 42.1408 35.1418 42.4827C35.2757 42.8208 35.3214 43.1852 35.2791 43.576C35.236 43.9629 35.0895 44.352 34.8398 44.743Z" fill="black"/>
<path d="M38.5313 39.8421L34.1956 35.2872L34.8955 34.621L36.781 36.6019L37.2436 36.1616L36.995 32.6225L37.8965 31.7644L38.1467 35.7089L42.2559 36.2968L41.3544 37.1549L38.0307 36.6559L37.402 37.2543L39.2311 39.1759L38.5313 39.8421Z" fill="black"/>
<path d="M46.6868 33.6716C46.3408 33.8692 45.9896 33.9835 45.6331 34.0143C45.2753 34.0427 44.9423 33.9799 44.6342 33.8258C44.3248 33.6694 44.0686 33.4134 43.8655 33.058C43.6867 32.7451 43.6035 32.4564 43.6157 32.1916C43.6265 31.9245 43.7032 31.6764 43.8458 31.4472C43.9883 31.218 44.1684 31.0051 44.3861 30.8084C44.6048 30.608 44.8315 30.4188 45.0661 30.2407C45.3735 30.0085 45.6242 29.8228 45.8182 29.6837C46.0132 29.5408 46.1425 29.4151 46.2062 29.3064C46.2722 29.1964 46.2666 29.0738 46.1895 28.9388L46.1732 28.9103C45.9728 28.5596 45.7211 28.3419 45.4181 28.2572C45.1175 28.1712 44.7741 28.2386 44.3878 28.4593C43.9873 28.6881 43.7234 28.9552 43.5961 29.2606C43.4687 29.5659 43.4158 29.8445 43.4371 30.0964L42.4783 30.267C42.4309 29.8539 42.4729 29.4873 42.6043 29.1671C42.7367 28.8431 42.9229 28.5638 43.163 28.3292C43.404 28.0909 43.662 27.8932 43.9369 27.7361C44.1123 27.6359 44.3259 27.5422 44.5778 27.4548C44.8307 27.3638 45.1003 27.3213 45.3867 27.3274C45.6755 27.3322 45.9648 27.4231 46.2545 27.6002C46.5443 27.7773 46.8131 28.0826 47.0609 28.5163L49.1163 32.1138L48.2773 32.5931L47.8549 31.8537L47.8122 31.8781C47.8231 32.029 47.8007 32.21 47.7452 32.4209C47.6896 32.6318 47.5787 32.8476 47.4125 33.0683C47.2463 33.289 47.0044 33.4901 46.6868 33.6716ZM46.3842 32.8448C46.716 32.6553 46.9584 32.4303 47.1114 32.17C47.2668 31.9083 47.3437 31.6412 47.342 31.3687C47.3427 31.0948 47.2781 30.8441 47.1481 30.6166L46.7094 29.8488C46.6982 29.9118 46.6424 29.9955 46.5418 30.1001C46.4423 30.201 46.3217 30.3092 46.1802 30.4246C46.0397 30.5363 45.9014 30.6436 45.7653 30.7465C45.6302 30.8457 45.5211 30.927 45.4378 30.9903C45.236 31.1433 45.0586 31.3059 44.9056 31.4782C44.7535 31.6468 44.6554 31.8271 44.611 32.019C44.5677 32.2073 44.6069 32.408 44.7288 32.6213C44.8953 32.9128 45.1291 33.0716 45.43 33.0977C45.732 33.12 46.0501 33.0357 46.3842 32.8448Z" fill="black"/>
<path d="M55.3069 26.2455L55.5535 27.1117L52.2145 28.0626L51.9678 27.1963L55.3069 26.2455ZM51.4483 24.5348L53.1706 30.5828L52.2413 30.8474L50.519 24.7994L51.4483 24.5348ZM55.2756 23.4449L56.9979 29.4929L56.0686 29.7576L54.3463 23.7095L55.2756 23.4449Z" fill="black"/>
<path d="M61.4333 27.4788L64.2871 22.5099L65.3999 22.47L65.6248 28.7545L64.6592 28.7891L64.4853 23.9284L61.6479 28.8968L60.5186 28.9372L60.2938 22.6527L61.2594 22.6182L61.4333 27.4788Z" fill="black"/>
<path d="M69.033 31.4562L70.8008 22.9921L71.7145 23.183L71.5103 24.1608L71.6225 24.1843C71.7143 24.0919 71.8389 23.9757 71.9964 23.8358C72.1571 23.6937 72.3674 23.5814 72.6272 23.4991C72.8902 23.4146 73.2221 23.4142 73.6228 23.4979C74.1411 23.6061 74.571 23.8311 74.9122 24.1729C75.2535 24.5146 75.4854 24.9464 75.6078 25.4683C75.7302 25.9902 75.7239 26.5744 75.5889 27.221C75.4527 27.8729 75.2238 28.4148 74.9022 28.8467C74.5811 29.276 74.1969 29.5805 73.7494 29.7603C73.3026 29.9375 72.8227 29.9724 72.3097 29.8653C71.9143 29.7827 71.6113 29.6511 71.4009 29.4706C71.191 29.2873 71.0395 29.0981 70.9464 28.903C70.8539 28.7053 70.7846 28.543 70.7386 28.4163L70.6584 28.3995L69.9788 31.6537L69.033 31.4562ZM71.0877 26.2642C70.9906 26.729 70.9731 27.1534 71.0351 27.5372C71.0977 27.9183 71.239 28.2364 71.459 28.4915C71.6795 28.7439 71.9795 28.9097 72.3589 28.9889C72.7543 29.0715 73.106 29.0362 73.414 28.8831C73.7253 28.7278 73.9848 28.4864 74.1926 28.159C74.4037 27.8295 74.5549 27.4456 74.6465 27.0074C74.7369 26.5746 74.7515 26.1706 74.6905 25.7954C74.6327 25.418 74.4914 25.0999 74.2666 24.8411C74.0451 24.5801 73.7339 24.4078 73.3332 24.3241C72.9484 24.2437 72.6048 24.2737 72.3022 24.4141C72.0002 24.5517 71.7462 24.7803 71.54 25.0997C71.3345 25.4165 71.1837 25.8046 71.0877 26.2642Z" fill="black"/>
<path d="M77.4927 33.8938C77.345 33.8229 77.2193 33.7474 77.1155 33.6673C77.0104 33.5896 76.9411 33.5291 76.9075 33.4857L77.4974 32.8243C77.6831 32.98 77.8606 33.0895 78.0301 33.1527C78.1996 33.2159 78.3784 33.2124 78.5665 33.1422C78.7558 33.0757 78.9725 32.9239 79.2165 32.6868L79.5915 32.3218L80.2308 25.6168L81.1756 26.0704L80.5719 31.3392L80.6309 31.3676L84.3645 27.6012L85.3093 28.0548L79.7846 33.3955C79.5358 33.6363 79.2853 33.8143 79.0332 33.9294C78.78 34.047 78.5251 34.1018 78.2686 34.0937C78.0146 34.0868 77.7559 34.0202 77.4927 33.8938Z" fill="black"/>
<path d="M86.5877 34.8444L92.0188 33.0175L92.8782 33.7256L88.8791 38.5787L88.1335 37.9643L91.2265 34.2107L85.808 36.0481L84.936 35.3295L88.9351 30.4764L89.6807 31.0908L86.5877 34.8444ZM92.8589 30.9936L93.5541 31.5664C93.2729 31.9076 92.9249 32.0895 92.5102 32.1121C92.0955 32.1346 91.686 31.9793 91.2816 31.646C90.8835 31.318 90.6558 30.9483 90.5987 30.5369C90.5437 30.1273 90.6567 29.7519 90.9379 29.4106L91.633 29.9834C91.4976 30.1477 91.424 30.3293 91.4122 30.5282C91.4025 30.7289 91.5082 30.9203 91.7294 31.1026C91.9505 31.2848 92.1597 31.3529 92.3569 31.3067C92.5562 31.2623 92.7236 31.1579 92.8589 30.9936Z" fill="black"/>
<path d="M97.1516 51.2025C96.923 50.6591 96.8544 50.1371 96.9459 49.6367C97.0374 49.1363 97.2638 48.6857 97.6253 48.2849C97.9867 47.8841 98.4567 47.562 99.0353 47.3185C99.624 47.0708 100.189 46.9604 100.73 46.9873C101.275 47.0157 101.757 47.1714 102.175 47.4544C102.597 47.7389 102.918 48.1428 103.138 48.6661C103.309 49.0736 103.388 49.4727 103.375 49.8632C103.362 50.2538 103.263 50.6106 103.079 50.9338C102.895 51.2569 102.633 51.5198 102.292 51.7226L101.917 50.832C102.153 50.6529 102.323 50.4035 102.429 50.0838C102.537 49.7656 102.509 49.4102 102.344 49.0178C102.198 48.6706 101.979 48.4043 101.688 48.2188C101.401 48.0349 101.063 47.9387 100.674 47.9304C100.289 47.9236 99.878 48.0122 99.4402 48.1964C98.9924 48.3848 98.6321 48.6193 98.3593 48.8999C98.0875 49.183 97.9143 49.4928 97.8397 49.8292C97.7661 50.1681 97.8035 50.5137 97.9516 50.8659C98.049 51.0973 98.1777 51.2904 98.3376 51.4453C98.4974 51.6001 98.6804 51.7111 98.8864 51.7784C99.0924 51.8458 99.3127 51.8626 99.5473 51.8291L99.922 52.7197C99.5587 52.8133 99.1981 52.8184 98.8402 52.7351C98.486 52.6531 98.1601 52.4838 97.8625 52.227C97.5685 51.9717 97.3316 51.6301 97.1516 51.2025Z" fill="black"/>
<path d="M99.0874 57.0242L105.299 56.0434L105.45 56.9978L102.748 57.4243L102.848 58.0552L105.902 59.861L106.096 61.0903L102.707 59.0556L99.8894 62.1034L99.6953 60.874L101.994 58.4221L101.859 57.5648L99.2381 57.9785L99.0874 57.0242Z" fill="black"/>
<path d="M99.5337 67.2401C99.5675 66.843 99.6731 66.4891 99.8502 66.1782C100.03 65.8676 100.271 65.6292 100.573 65.4632C100.877 65.2974 101.233 65.2319 101.641 65.2667C102 65.2973 102.285 65.3929 102.496 65.5533C102.71 65.7139 102.871 65.918 102.978 66.1655C103.086 66.413 103.159 66.6822 103.197 66.9731C103.238 67.2669 103.265 67.561 103.278 67.8552C103.294 68.2401 103.305 68.5519 103.309 68.7906C103.316 69.0322 103.346 69.2101 103.399 69.3242C103.452 69.441 103.556 69.5061 103.711 69.5193L103.744 69.5221C104.146 69.5564 104.469 69.4729 104.71 69.2717C104.952 69.0731 105.092 68.7522 105.129 68.3089C105.169 67.8493 105.099 67.4804 104.92 67.2022C104.741 66.9239 104.541 66.722 104.322 66.5965L104.726 65.7106C105.093 65.9062 105.371 66.1491 105.56 66.4391C105.751 66.7321 105.875 67.044 105.932 67.3748C105.991 67.7086 106.007 68.0332 105.981 68.3486C105.963 68.5499 105.919 68.779 105.848 69.0359C105.779 69.2957 105.661 69.5417 105.493 69.774C105.325 70.0089 105.086 70.1954 104.776 70.3332C104.466 70.4711 104.062 70.5189 103.564 70.4764L99.4357 70.1244L99.5177 69.1617L100.366 69.234L100.37 69.1851C100.24 69.1082 100.104 68.987 99.9618 68.8215C99.8197 68.656 99.7051 68.4422 99.6179 68.18C99.5307 67.9178 99.5026 67.6045 99.5337 67.2401ZM100.386 67.4607C100.354 67.8414 100.401 68.1687 100.528 68.4425C100.655 68.7191 100.831 68.934 101.057 69.0875C101.282 69.2436 101.525 69.3328 101.786 69.3551L102.667 69.4302C102.621 69.3853 102.584 69.2917 102.555 69.1495C102.529 69.0103 102.508 68.8497 102.494 68.6676C102.482 68.4885 102.472 68.3138 102.464 68.1433C102.46 67.9758 102.455 67.8398 102.45 67.7353C102.439 67.4823 102.406 67.2439 102.351 67.0201C102.298 66.7992 102.206 66.616 102.073 66.4705C101.943 66.3279 101.755 66.2461 101.51 66.2253C101.176 66.1967 100.912 66.2989 100.72 66.5318C100.53 66.7676 100.419 67.0772 100.386 67.4607Z" fill="black"/>
<path d="M100.748 78.554L99.8951 78.2649L101.009 74.9768L101.862 75.2659L100.748 78.554ZM104.348 76.3503L98.3922 74.332L98.7023 73.4169L104.658 75.4352L104.348 76.3503ZM103.071 80.1192L97.115 78.1009L97.4251 77.1858L103.381 79.2041L103.071 80.1192Z" fill="black"/>
<path d="M96.2527 82.8957L98.721 88.067L98.1215 89.0055L92.8218 85.6206L93.3419 84.8063L97.4409 87.4243L94.9638 82.2668L95.5721 81.3145L100.872 84.6995L100.352 85.5138L96.2527 82.8957Z" fill="black"/>
<path d="M88.6623 86.8903L94.6238 93.1533L93.9477 93.7968L93.259 93.0733L93.176 93.1523C93.1998 93.2803 93.2246 93.4489 93.2504 93.658C93.276 93.871 93.2489 94.1078 93.1691 94.3684C93.0893 94.6328 92.901 94.9062 92.6045 95.1885C92.221 95.5535 91.7916 95.7795 91.3165 95.8662C90.8414 95.9529 90.3543 95.8985 89.8553 95.7027C89.3562 95.507 88.879 95.17 88.4236 94.6916C87.9644 94.2092 87.6485 93.713 87.4757 93.2029C87.3048 92.6948 87.2725 92.2056 87.3787 91.7352C87.4868 91.2668 87.7306 90.852 88.1102 90.4907C88.4028 90.2122 88.6831 90.0376 88.9513 89.967C89.2213 89.8984 89.4631 89.8811 89.6765 89.9154C89.8918 89.9516 90.0647 89.9867 90.1952 90.0208L90.2545 89.9644L87.9624 87.5564L88.6623 86.8903ZM91.768 91.5307C91.4406 91.1867 91.1013 90.9312 90.7502 90.7643C90.401 90.5993 90.0589 90.5349 89.7241 90.571C89.3911 90.6091 89.0842 90.7618 88.8035 91.029C88.5109 91.3075 88.3401 91.617 88.2912 91.9575C88.2422 92.3019 88.2934 92.6526 88.4448 93.0096C88.5961 93.3705 88.8261 93.713 89.1347 94.0373C89.4396 94.3575 89.7637 94.5991 90.1072 94.762C90.4506 94.9288 90.7927 94.9932 91.1334 94.9553C91.474 94.9212 91.7926 94.763 92.0891 94.4808C92.3738 94.2098 92.5443 93.9099 92.6007 93.5812C92.6589 93.2544 92.6152 92.9155 92.4694 92.5644C92.3255 92.2153 92.0917 91.8707 91.768 91.5307Z" fill="black"/>
<path d="M81.8502 92.4675C81.9924 92.3863 82.126 92.3257 82.2509 92.2858C82.3745 92.2435 82.4637 92.2208 82.5185 92.2177L82.7277 93.079C82.4941 93.1433 82.3031 93.2272 82.1549 93.3308C82.0066 93.4344 81.9079 93.5835 81.8588 93.7782C81.8059 93.9718 81.8078 94.2364 81.8643 94.5719L81.9516 95.0878L87.1066 99.4228L86.1966 99.9427L82.2034 96.4528L82.1465 96.4853L83.1253 101.698L82.2152 102.217L80.9584 94.6368C80.9015 94.2953 80.8973 93.988 80.9457 93.7152C80.9928 93.4399 81.0925 93.1991 81.2449 92.9926C81.3949 92.7874 81.5966 92.6124 81.8502 92.4675Z" fill="black"/>
<path d="M75.9024 99.4126L74.3207 104.92L73.2497 105.225L71.5274 99.1771L72.4567 98.9125L73.7888 103.59L75.3547 98.0872L76.4415 97.7777L78.1638 103.826L77.2345 104.09L75.9024 99.4126ZM75.5091 106.761L74.6428 107.008C74.5217 106.583 74.5697 106.193 74.7867 105.839C75.0037 105.485 75.3642 105.236 75.8682 105.092C76.3643 104.951 76.7979 104.974 77.1689 105.161C77.5373 105.348 77.782 105.654 77.9031 106.08L77.0368 106.326C76.9785 106.121 76.8709 105.958 76.7139 105.835C76.5543 105.713 76.3367 105.691 76.0611 105.77C75.7854 105.848 75.6106 105.982 75.5366 106.17C75.4599 106.36 75.4508 106.557 75.5091 106.761Z" fill="black"/>
<path d="M56.4389 98.8139C57.016 98.9344 57.4845 99.1744 57.8444 99.534C58.2042 99.8936 58.4465 100.336 58.571 100.861C58.6955 101.386 58.6936 101.956 58.5653 102.57C58.4347 103.196 58.2046 103.723 57.875 104.154C57.5421 104.586 57.1404 104.894 56.6699 105.077C56.1962 105.263 55.6815 105.297 55.1258 105.181C54.6929 105.091 54.3196 104.929 54.0058 104.696C53.6919 104.464 53.4543 104.18 53.2928 103.845C53.1313 103.51 53.064 103.145 53.0909 102.749L54.0367 102.946C54.0503 103.242 54.1587 103.524 54.3619 103.792C54.562 104.063 54.8704 104.241 55.2872 104.328C55.6559 104.405 55.9993 104.377 56.3173 104.242C56.6321 104.11 56.9033 103.887 57.1308 103.572C57.355 103.259 57.5157 102.87 57.6128 102.405C57.7121 101.929 57.7238 101.5 57.6479 101.116C57.5692 100.731 57.4127 100.413 57.1782 100.16C56.9411 99.9072 56.6355 99.7416 56.2615 99.6635C56.0157 99.6121 55.7837 99.6083 55.5654 99.6519C55.3472 99.6956 55.1519 99.783 54.9795 99.9143C54.807 100.046 54.668 100.217 54.5624 100.429L53.6166 100.232C53.7459 99.8797 53.9465 99.5801 54.2184 99.3329C54.487 99.0879 54.8116 98.9159 55.1919 98.8169C55.5691 98.72 55.9847 98.719 56.4389 98.8139Z" fill="black"/>
<path d="M50.5479 97.1011L47.8264 102.77L46.9554 102.352L48.1389 99.8867L47.5631 99.6103L44.3423 101.098L43.2202 100.559L46.8197 98.9264L45.9122 94.8758L47.0342 95.4144L47.7463 98.6991L48.5287 99.0747L49.6768 96.683L50.5479 97.1011Z" fill="black"/>
<path d="M41.8861 91.6634C42.1936 91.9168 42.425 92.2047 42.5802 92.5271C42.7337 92.8516 42.793 93.1852 42.7582 93.5279C42.7216 93.8727 42.5732 94.203 42.3128 94.519C42.0837 94.797 41.8432 94.9773 41.5914 95.0597C41.3378 95.1443 41.0786 95.1606 40.8137 95.1086C40.5489 95.0566 40.2859 94.9637 40.0248 94.8299C39.7599 94.6964 39.5026 94.5516 39.2529 94.3954C38.9268 94.1903 38.6643 94.0217 38.4654 93.8897C38.2627 93.758 38.0992 93.6817 37.9751 93.6607C37.8488 93.638 37.7362 93.6866 37.6372 93.8067L37.6164 93.832C37.3595 94.1437 37.2452 94.4563 37.2735 94.7696C37.2997 95.0812 37.4844 95.3784 37.8278 95.6613C38.1838 95.9547 38.5271 96.1067 38.8577 96.1175C39.1884 96.1282 39.4677 96.079 39.6956 95.9697L40.1951 96.8057C39.8257 96.9964 39.468 97.0872 39.122 97.0779C38.7721 97.069 38.445 96.9939 38.1405 96.8527C37.8322 96.7118 37.5559 96.5407 37.3115 96.3393C37.1556 96.2109 36.9922 96.0444 36.8213 95.8399C36.6464 95.6357 36.5111 95.3986 36.4153 95.1287C36.3173 94.857 36.2997 94.5543 36.3626 94.2205C36.4254 93.8868 36.6156 93.5272 36.9332 93.1417L39.568 89.9442L40.3137 90.5587L39.7721 91.2159L39.8101 91.2471C39.9474 91.1834 40.1245 91.1402 40.3414 91.1173C40.5583 91.0944 40.7994 91.1216 41.0647 91.1988C41.3301 91.2759 41.6038 91.4308 41.8861 91.6634ZM41.2204 92.2395C40.9255 91.9965 40.6292 91.8496 40.3315 91.7988C40.0318 91.7463 39.7548 91.7692 39.5005 91.8674C39.2442 91.9638 39.0327 92.1132 38.8661 92.3154L38.3037 92.9979C38.3666 92.986 38.4647 93.0085 38.5982 93.0654C38.7278 93.1227 38.8717 93.1971 39.0298 93.2884C39.1841 93.3802 39.3334 93.4715 39.4779 93.5622C39.6186 93.6534 39.7332 93.7266 39.822 93.7821C40.0366 93.9165 40.2516 94.0247 40.4669 94.1067C40.6785 94.189 40.8818 94.2169 41.077 94.1903C41.2684 94.1641 41.4422 94.0562 41.5984 93.8666C41.8119 93.6075 41.8775 93.3327 41.7952 93.042C41.709 92.7517 41.5174 92.4842 41.2204 92.2395Z" fill="black"/>
<path d="M31.885 86.237L32.6075 85.6992L34.6806 88.4841L33.9581 89.0219L31.885 86.237ZM31.6537 90.4515L36.698 86.6964L37.2749 87.4715L32.2306 91.2265L31.6537 90.4515ZM29.2775 87.2594L34.3218 83.5044L34.8987 84.2794L29.8544 88.0344L29.2775 87.2594Z" fill="black"/>
<path d="M30.8656 80.0708L25.2075 79.1645L24.7757 78.1381L30.572 75.6994L30.9467 76.5899L26.4636 78.4762L32.1153 79.3674L32.5535 80.4089L26.7571 82.8476L26.3824 81.9571L30.8656 80.0708Z" fill="black"/>
<path d="M31.8895 71.555L23.3486 72.9034L23.2031 71.9814L24.1898 71.8256L24.1719 71.7124C24.053 71.6593 23.9002 71.584 23.7135 71.4864C23.5236 71.3865 23.3441 71.2297 23.175 71.016C23.0027 70.8 22.8847 70.4898 22.8208 70.0854C22.7382 69.5624 22.7962 69.0807 22.9947 68.6404C23.1932 68.2002 23.5148 67.8302 23.9593 67.5307C24.4039 67.2312 24.9524 67.0299 25.6048 66.9269C26.2626 66.823 26.8505 66.8449 27.3684 66.9925C27.8836 67.1405 28.3046 67.3918 28.6314 67.7464C28.9555 68.1014 29.1584 68.5377 29.2401 69.0553C29.3031 69.4543 29.2875 69.7842 29.1933 70.045C29.0964 70.3063 28.9732 70.515 28.8238 70.6712C28.6717 70.8279 28.5445 70.9502 28.4424 71.0381L28.4551 71.119L31.7388 70.6006L31.8895 71.555ZM26.3063 71.4749C26.7754 71.4008 27.1784 71.2667 27.5152 71.0726C27.8494 70.8789 28.0967 70.634 28.2572 70.3379C28.415 70.0422 28.4637 69.7029 28.4032 69.3201C28.3402 68.9211 28.1825 68.6047 27.9301 68.371C27.6745 68.1351 27.3568 67.978 26.977 67.8998C26.594 67.8193 26.1814 67.814 25.7393 67.8838C25.3026 67.9528 24.9196 68.0823 24.5904 68.2725C24.2581 68.4603 24.0107 68.7052 23.8484 69.0072C23.683 69.3069 23.6322 69.6589 23.696 70.0633C23.7573 70.4515 23.9072 70.7622 24.1457 70.9953C24.3816 71.2289 24.6854 71.3854 25.0571 71.4649C25.4262 71.5448 25.8426 71.5481 26.3063 71.4749Z" fill="black"/>
<path d="M31.1697 62.7807C31.1558 62.9439 31.1298 63.0882 31.0917 63.2137C31.0563 63.3395 31.0243 63.4258 30.9956 63.4726L30.168 63.1555C30.2478 62.9267 30.2872 62.7219 30.2861 62.541C30.2851 62.3601 30.2185 62.1942 30.0862 62.0432C29.9568 61.8898 29.738 61.741 29.4298 61.5969L28.9556 61.3757L22.4596 63.1556L22.5487 62.1113L27.6892 60.8075L27.6948 60.7422L22.8492 58.5868L22.9383 57.5425L29.891 60.8144C30.2044 60.9617 30.4597 61.1328 30.6567 61.3276C30.8565 61.5227 30.9981 61.7416 31.0815 61.9843C31.1651 62.2243 31.1945 62.4897 31.1697 62.7807Z" fill="black"/>
<path d="M28.8329 53.939L25.1988 49.5087L25.5562 48.454L31.512 50.4723L31.2019 51.3874L26.5955 49.8264L30.2348 54.2412L29.8722 55.3114L23.9163 53.2931L24.2264 52.378L28.8329 53.939ZM23.0085 49.4408L23.2976 48.5878C23.7164 48.7297 24.0098 48.9905 24.178 49.3703C24.3461 49.75 24.3461 50.188 24.1779 50.6843C24.0124 51.1729 23.7474 51.5168 23.383 51.7161C23.0195 51.9128 22.6284 51.9402 22.2096 51.7983L22.4987 50.9453C22.7003 51.0136 22.8962 51.018 23.0864 50.9586C23.2775 50.8965 23.419 50.7298 23.511 50.4583C23.603 50.1869 23.5924 49.9672 23.4793 49.7992C23.3671 49.6286 23.2102 49.5091 23.0085 49.4408Z" fill="black"/>
</g>
</svg>
