<svg width="16" height="30" viewBox="0 0 16 30" fill="none" xmlns="http://www.w3.org/2000/svg">
  <path d="M7.29289 29.4357C7.68342 29.8262 8.31658 29.8262 8.70711 29.4357L15.0711 23.0717C15.4616 22.6812 15.4616 22.048 15.0711 21.6575C14.6805 21.267 14.0474 21.267 13.6569 21.6575L8 27.3144L2.34314 21.6575C1.95262 21.267 1.31946 21.267 0.928931 21.6575C0.538407 22.048 0.538407 22.6812 0.928931 23.0717L7.29289 29.4357ZM7 -4.37114e-08L7 28.7286L9 28.7286L9 4.37114e-08L7 -4.37114e-08Z" fill="url(#paint0_linear_1302_337)" />
  <defs>
    <linearGradient id="paint0_linear_1302_337" x1="7.5" y1="28.7286" x2="7.5" y2="-2.18557e-08" gradientUnits="userSpaceOnUse">
      <stop stop-color="#FE4F74" />
      <stop offset="0.38" stop-color="#A972FF" />
      <stop offset="1" stop-color="#E3D2E9" stop-opacity="0" />
    </linearGradient>
  </defs>
</svg>